G04 #@! TF.GenerationSoftware,KiCad,Pcbnew,(5.1.9)-1*
G04 #@! TF.CreationDate,2021-09-19T14:37:10+09:00*
G04 #@! TF.ProjectId,DragonOne_cpu_rev03,44726167-6f6e-44f6-9e65-5f6370755f72,0.3*
G04 #@! TF.SameCoordinates,PX5e78920PY8d19d38*
G04 #@! TF.FileFunction,Legend,Top*
G04 #@! TF.FilePolarity,Positive*
%FSLAX46Y46*%
G04 Gerber Fmt 4.6, Leading zero omitted, Abs format (unit mm)*
G04 Created by KiCad (PCBNEW (5.1.9)-1) date 2021-09-19 14:37:10*
%MOMM*%
%LPD*%
G01*
G04 APERTURE LIST*
%ADD10C,0.200000*%
%ADD11C,0.150000*%
%ADD12C,0.300000*%
%ADD13C,0.120000*%
G04 APERTURE END LIST*
D10*
X85217142Y61075000D02*
X85074285Y61146429D01*
X84860000Y61146429D01*
X84645714Y61075000D01*
X84502857Y60932143D01*
X84431428Y60789286D01*
X84360000Y60503572D01*
X84360000Y60289286D01*
X84431428Y60003572D01*
X84502857Y59860715D01*
X84645714Y59717858D01*
X84860000Y59646429D01*
X85002857Y59646429D01*
X85217142Y59717858D01*
X85288571Y59789286D01*
X85288571Y60289286D01*
X85002857Y60289286D01*
X85931428Y59646429D02*
X85931428Y61146429D01*
X86788571Y59646429D01*
X86788571Y61146429D01*
X87502857Y59646429D02*
X87502857Y61146429D01*
X87860000Y61146429D01*
X88074285Y61075000D01*
X88217142Y60932143D01*
X88288571Y60789286D01*
X88360000Y60503572D01*
X88360000Y60289286D01*
X88288571Y60003572D01*
X88217142Y59860715D01*
X88074285Y59717858D01*
X87860000Y59646429D01*
X87502857Y59646429D01*
X95155000Y68766429D02*
X95655000Y67266429D01*
X96155000Y68766429D01*
X96655000Y67266429D02*
X96655000Y68766429D01*
X97012142Y68766429D01*
X97226428Y68695000D01*
X97369285Y68552143D01*
X97440714Y68409286D01*
X97512142Y68123572D01*
X97512142Y67909286D01*
X97440714Y67623572D01*
X97369285Y67480715D01*
X97226428Y67337858D01*
X97012142Y67266429D01*
X96655000Y67266429D01*
X98155000Y67266429D02*
X98155000Y68766429D01*
X98512142Y68766429D01*
X98726428Y68695000D01*
X98869285Y68552143D01*
X98940714Y68409286D01*
X99012142Y68123572D01*
X99012142Y67909286D01*
X98940714Y67623572D01*
X98869285Y67480715D01*
X98726428Y67337858D01*
X98512142Y67266429D01*
X98155000Y67266429D01*
X36024285Y1362143D02*
X35452857Y1362143D01*
X35452857Y2562143D01*
X36367142Y1705000D02*
X36938571Y1705000D01*
X36252857Y1362143D02*
X36652857Y2562143D01*
X37052857Y1362143D01*
X37452857Y1362143D02*
X37452857Y2562143D01*
X38138571Y1362143D01*
X38138571Y2562143D01*
X39624285Y1362143D02*
X39624285Y2562143D01*
X40081428Y2562143D01*
X40195714Y2505000D01*
X40252857Y2447858D01*
X40310000Y2333572D01*
X40310000Y2162143D01*
X40252857Y2047858D01*
X40195714Y1990715D01*
X40081428Y1933572D01*
X39624285Y1933572D01*
X41052857Y2562143D02*
X41281428Y2562143D01*
X41395714Y2505000D01*
X41510000Y2390715D01*
X41567142Y2162143D01*
X41567142Y1762143D01*
X41510000Y1533572D01*
X41395714Y1419286D01*
X41281428Y1362143D01*
X41052857Y1362143D01*
X40938571Y1419286D01*
X40824285Y1533572D01*
X40767142Y1762143D01*
X40767142Y2162143D01*
X40824285Y2390715D01*
X40938571Y2505000D01*
X41052857Y2562143D01*
X41967142Y2562143D02*
X42252857Y1362143D01*
X42481428Y2219286D01*
X42710000Y1362143D01*
X42995714Y2562143D01*
X43452857Y1990715D02*
X43852857Y1990715D01*
X44024285Y1362143D02*
X43452857Y1362143D01*
X43452857Y2562143D01*
X44024285Y2562143D01*
X45224285Y1362143D02*
X44824285Y1933572D01*
X44538571Y1362143D02*
X44538571Y2562143D01*
X44995714Y2562143D01*
X45110000Y2505000D01*
X45167142Y2447858D01*
X45224285Y2333572D01*
X45224285Y2162143D01*
X45167142Y2047858D01*
X45110000Y1990715D01*
X44995714Y1933572D01*
X44538571Y1933572D01*
X51378571Y1362143D02*
X50807142Y1362143D01*
X50807142Y2562143D01*
X51721428Y1705000D02*
X52292857Y1705000D01*
X51607142Y1362143D02*
X52007142Y2562143D01*
X52407142Y1362143D01*
X52807142Y1362143D02*
X52807142Y2562143D01*
X53492857Y1362143D01*
X53492857Y2562143D01*
X55378571Y1990715D02*
X55550000Y1933572D01*
X55607142Y1876429D01*
X55664285Y1762143D01*
X55664285Y1590715D01*
X55607142Y1476429D01*
X55550000Y1419286D01*
X55435714Y1362143D01*
X54978571Y1362143D01*
X54978571Y2562143D01*
X55378571Y2562143D01*
X55492857Y2505000D01*
X55550000Y2447858D01*
X55607142Y2333572D01*
X55607142Y2219286D01*
X55550000Y2105000D01*
X55492857Y2047858D01*
X55378571Y1990715D01*
X54978571Y1990715D01*
X56407142Y2562143D02*
X56635714Y2562143D01*
X56750000Y2505000D01*
X56864285Y2390715D01*
X56921428Y2162143D01*
X56921428Y1762143D01*
X56864285Y1533572D01*
X56750000Y1419286D01*
X56635714Y1362143D01*
X56407142Y1362143D01*
X56292857Y1419286D01*
X56178571Y1533572D01*
X56121428Y1762143D01*
X56121428Y2162143D01*
X56178571Y2390715D01*
X56292857Y2505000D01*
X56407142Y2562143D01*
X57378571Y1705000D02*
X57950000Y1705000D01*
X57264285Y1362143D02*
X57664285Y2562143D01*
X58064285Y1362143D01*
X59150000Y1362143D02*
X58750000Y1933572D01*
X58464285Y1362143D02*
X58464285Y2562143D01*
X58921428Y2562143D01*
X59035714Y2505000D01*
X59092857Y2447858D01*
X59150000Y2333572D01*
X59150000Y2162143D01*
X59092857Y2047858D01*
X59035714Y1990715D01*
X58921428Y1933572D01*
X58464285Y1933572D01*
X59664285Y1362143D02*
X59664285Y2562143D01*
X59950000Y2562143D01*
X60121428Y2505000D01*
X60235714Y2390715D01*
X60292857Y2276429D01*
X60350000Y2047858D01*
X60350000Y1876429D01*
X60292857Y1647858D01*
X60235714Y1533572D01*
X60121428Y1419286D01*
X59950000Y1362143D01*
X59664285Y1362143D01*
D11*
X3342142Y22296429D02*
X3485000Y22248810D01*
X3532619Y22201191D01*
X3580238Y22105953D01*
X3580238Y21963096D01*
X3532619Y21867858D01*
X3485000Y21820239D01*
X3389761Y21772620D01*
X3008809Y21772620D01*
X3008809Y22772620D01*
X3342142Y22772620D01*
X3437380Y22725000D01*
X3485000Y22677381D01*
X3532619Y22582143D01*
X3532619Y22486905D01*
X3485000Y22391667D01*
X3437380Y22344048D01*
X3342142Y22296429D01*
X3008809Y22296429D01*
X4199285Y22772620D02*
X4389761Y22772620D01*
X4485000Y22725000D01*
X4580238Y22629762D01*
X4627857Y22439286D01*
X4627857Y22105953D01*
X4580238Y21915477D01*
X4485000Y21820239D01*
X4389761Y21772620D01*
X4199285Y21772620D01*
X4104047Y21820239D01*
X4008809Y21915477D01*
X3961190Y22105953D01*
X3961190Y22439286D01*
X4008809Y22629762D01*
X4104047Y22725000D01*
X4199285Y22772620D01*
X5246904Y22772620D02*
X5437380Y22772620D01*
X5532619Y22725000D01*
X5627857Y22629762D01*
X5675476Y22439286D01*
X5675476Y22105953D01*
X5627857Y21915477D01*
X5532619Y21820239D01*
X5437380Y21772620D01*
X5246904Y21772620D01*
X5151666Y21820239D01*
X5056428Y21915477D01*
X5008809Y22105953D01*
X5008809Y22439286D01*
X5056428Y22629762D01*
X5151666Y22725000D01*
X5246904Y22772620D01*
X5961190Y22772620D02*
X6532619Y22772620D01*
X6246904Y21772620D02*
X6246904Y22772620D01*
X6818333Y21820239D02*
X6961190Y21772620D01*
X7199285Y21772620D01*
X7294523Y21820239D01*
X7342142Y21867858D01*
X7389761Y21963096D01*
X7389761Y22058334D01*
X7342142Y22153572D01*
X7294523Y22201191D01*
X7199285Y22248810D01*
X7008809Y22296429D01*
X6913571Y22344048D01*
X6865952Y22391667D01*
X6818333Y22486905D01*
X6818333Y22582143D01*
X6865952Y22677381D01*
X6913571Y22725000D01*
X7008809Y22772620D01*
X7246904Y22772620D01*
X7389761Y22725000D01*
X7675476Y22772620D02*
X8246904Y22772620D01*
X7961190Y21772620D02*
X7961190Y22772620D01*
X9151666Y21772620D02*
X8818333Y22248810D01*
X8580238Y21772620D02*
X8580238Y22772620D01*
X8961190Y22772620D01*
X9056428Y22725000D01*
X9104047Y22677381D01*
X9151666Y22582143D01*
X9151666Y22439286D01*
X9104047Y22344048D01*
X9056428Y22296429D01*
X8961190Y22248810D01*
X8580238Y22248810D01*
X9532619Y22058334D02*
X10008809Y22058334D01*
X9437380Y21772620D02*
X9770714Y22772620D01*
X10104047Y21772620D01*
X10437380Y21772620D02*
X10437380Y22772620D01*
X10818333Y22772620D01*
X10913571Y22725000D01*
X10961190Y22677381D01*
X11008809Y22582143D01*
X11008809Y22439286D01*
X10961190Y22344048D01*
X10913571Y22296429D01*
X10818333Y22248810D01*
X10437380Y22248810D01*
X5532619Y8437620D02*
X5199285Y8913810D01*
X4961190Y8437620D02*
X4961190Y9437620D01*
X5342142Y9437620D01*
X5437380Y9390000D01*
X5485000Y9342381D01*
X5532619Y9247143D01*
X5532619Y9104286D01*
X5485000Y9009048D01*
X5437380Y8961429D01*
X5342142Y8913810D01*
X4961190Y8913810D01*
X5961190Y8961429D02*
X6294523Y8961429D01*
X6437380Y8437620D02*
X5961190Y8437620D01*
X5961190Y9437620D01*
X6437380Y9437620D01*
X6818333Y8485239D02*
X6961190Y8437620D01*
X7199285Y8437620D01*
X7294523Y8485239D01*
X7342142Y8532858D01*
X7389761Y8628096D01*
X7389761Y8723334D01*
X7342142Y8818572D01*
X7294523Y8866191D01*
X7199285Y8913810D01*
X7008809Y8961429D01*
X6913571Y9009048D01*
X6865952Y9056667D01*
X6818333Y9151905D01*
X6818333Y9247143D01*
X6865952Y9342381D01*
X6913571Y9390000D01*
X7008809Y9437620D01*
X7246904Y9437620D01*
X7389761Y9390000D01*
X7818333Y8961429D02*
X8151666Y8961429D01*
X8294523Y8437620D02*
X7818333Y8437620D01*
X7818333Y9437620D01*
X8294523Y9437620D01*
X8580238Y9437620D02*
X9151666Y9437620D01*
X8865952Y8437620D02*
X8865952Y9437620D01*
D10*
X1362142Y60937143D02*
X2562142Y60937143D01*
X2562142Y60480000D01*
X2505000Y60365715D01*
X2447857Y60308572D01*
X2333571Y60251429D01*
X2162142Y60251429D01*
X2047857Y60308572D01*
X1990714Y60365715D01*
X1933571Y60480000D01*
X1933571Y60937143D01*
X2562142Y59508572D02*
X2562142Y59280000D01*
X2505000Y59165715D01*
X2390714Y59051429D01*
X2162142Y58994286D01*
X1762142Y58994286D01*
X1533571Y59051429D01*
X1419285Y59165715D01*
X1362142Y59280000D01*
X1362142Y59508572D01*
X1419285Y59622858D01*
X1533571Y59737143D01*
X1762142Y59794286D01*
X2162142Y59794286D01*
X2390714Y59737143D01*
X2505000Y59622858D01*
X2562142Y59508572D01*
X1362142Y57794286D02*
X1933571Y58194286D01*
X1362142Y58480000D02*
X2562142Y58480000D01*
X2562142Y58022858D01*
X2505000Y57908572D01*
X2447857Y57851429D01*
X2333571Y57794286D01*
X2162142Y57794286D01*
X2047857Y57851429D01*
X1990714Y57908572D01*
X1933571Y58022858D01*
X1933571Y58480000D01*
X2562142Y57451429D02*
X2562142Y56765715D01*
X1362142Y57108572D02*
X2562142Y57108572D01*
X2447857Y56422858D02*
X2505000Y56365715D01*
X2562142Y56251429D01*
X2562142Y55965715D01*
X2505000Y55851429D01*
X2447857Y55794286D01*
X2333571Y55737143D01*
X2219285Y55737143D01*
X2047857Y55794286D01*
X1362142Y56480000D01*
X1362142Y55737143D01*
X905000Y54880000D02*
X962142Y54937143D01*
X1133571Y55051429D01*
X1247857Y55108572D01*
X1419285Y55165715D01*
X1705000Y55222858D01*
X1933571Y55222858D01*
X2219285Y55165715D01*
X2390714Y55108572D01*
X2505000Y55051429D01*
X2676428Y54937143D01*
X2733571Y54880000D01*
X1362142Y53851429D02*
X1362142Y54422858D01*
X2562142Y54422858D01*
X1476428Y52765715D02*
X1419285Y52822858D01*
X1362142Y52994286D01*
X1362142Y53108572D01*
X1419285Y53280000D01*
X1533571Y53394286D01*
X1647857Y53451429D01*
X1876428Y53508572D01*
X2047857Y53508572D01*
X2276428Y53451429D01*
X2390714Y53394286D01*
X2505000Y53280000D01*
X2562142Y53108572D01*
X2562142Y52994286D01*
X2505000Y52822858D01*
X2447857Y52765715D01*
X1362142Y52251429D02*
X2562142Y52251429D01*
X2562142Y51965715D01*
X2505000Y51794286D01*
X2390714Y51680000D01*
X2276428Y51622858D01*
X2047857Y51565715D01*
X1876428Y51565715D01*
X1647857Y51622858D01*
X1533571Y51680000D01*
X1419285Y51794286D01*
X1362142Y51965715D01*
X1362142Y52251429D01*
X905000Y51165715D02*
X962142Y51108572D01*
X1133571Y50994286D01*
X1247857Y50937143D01*
X1419285Y50880000D01*
X1705000Y50822858D01*
X1933571Y50822858D01*
X2219285Y50880000D01*
X2390714Y50937143D01*
X2505000Y50994286D01*
X2676428Y51108572D01*
X2733571Y51165715D01*
X29625000Y98967858D02*
X29625000Y97767858D01*
X29167857Y97767858D01*
X29053571Y97825000D01*
X28996428Y97882143D01*
X28939285Y97996429D01*
X28939285Y98167858D01*
X28996428Y98282143D01*
X29053571Y98339286D01*
X29167857Y98396429D01*
X29625000Y98396429D01*
X28196428Y97767858D02*
X27967857Y97767858D01*
X27853571Y97825000D01*
X27739285Y97939286D01*
X27682142Y98167858D01*
X27682142Y98567858D01*
X27739285Y98796429D01*
X27853571Y98910715D01*
X27967857Y98967858D01*
X28196428Y98967858D01*
X28310714Y98910715D01*
X28425000Y98796429D01*
X28482142Y98567858D01*
X28482142Y98167858D01*
X28425000Y97939286D01*
X28310714Y97825000D01*
X28196428Y97767858D01*
X26482142Y98967858D02*
X26882142Y98396429D01*
X27167857Y98967858D02*
X27167857Y97767858D01*
X26710714Y97767858D01*
X26596428Y97825000D01*
X26539285Y97882143D01*
X26482142Y97996429D01*
X26482142Y98167858D01*
X26539285Y98282143D01*
X26596428Y98339286D01*
X26710714Y98396429D01*
X27167857Y98396429D01*
X26139285Y97767858D02*
X25453571Y97767858D01*
X25796428Y98967858D02*
X25796428Y97767858D01*
X24425000Y98967858D02*
X25110714Y98967858D01*
X24767857Y98967858D02*
X24767857Y97767858D01*
X24882142Y97939286D01*
X24996428Y98053572D01*
X25110714Y98110715D01*
X23567857Y99425000D02*
X23625000Y99367858D01*
X23739285Y99196429D01*
X23796428Y99082143D01*
X23853571Y98910715D01*
X23910714Y98625000D01*
X23910714Y98396429D01*
X23853571Y98110715D01*
X23796428Y97939286D01*
X23739285Y97825000D01*
X23625000Y97653572D01*
X23567857Y97596429D01*
X23110714Y98967858D02*
X23110714Y97767858D01*
X22653571Y97767858D01*
X22539285Y97825000D01*
X22482142Y97882143D01*
X22425000Y97996429D01*
X22425000Y98167858D01*
X22482142Y98282143D01*
X22539285Y98339286D01*
X22653571Y98396429D01*
X23110714Y98396429D01*
X21910714Y98967858D02*
X21910714Y97767858D01*
X21625000Y97767858D01*
X21453571Y97825000D01*
X21339285Y97939286D01*
X21282142Y98053572D01*
X21225000Y98282143D01*
X21225000Y98453572D01*
X21282142Y98682143D01*
X21339285Y98796429D01*
X21453571Y98910715D01*
X21625000Y98967858D01*
X21910714Y98967858D01*
X19853571Y97710715D02*
X20882142Y99253572D01*
X19453571Y97767858D02*
X19453571Y98739286D01*
X19396428Y98853572D01*
X19339285Y98910715D01*
X19225000Y98967858D01*
X18996428Y98967858D01*
X18882142Y98910715D01*
X18825000Y98853572D01*
X18767857Y98739286D01*
X18767857Y97767858D01*
X18253571Y98625000D02*
X17682142Y98625000D01*
X18367857Y98967858D02*
X17967857Y97767858D01*
X17567857Y98967858D01*
X16482142Y98967858D02*
X16882142Y98396429D01*
X17167857Y98967858D02*
X17167857Y97767858D01*
X16710714Y97767858D01*
X16596428Y97825000D01*
X16539285Y97882143D01*
X16482142Y97996429D01*
X16482142Y98167858D01*
X16539285Y98282143D01*
X16596428Y98339286D01*
X16710714Y98396429D01*
X17167857Y98396429D01*
X16139285Y97767858D02*
X15453571Y97767858D01*
X15796428Y98967858D02*
X15796428Y97767858D01*
X15167857Y99425000D02*
X15110714Y99367858D01*
X14996428Y99196429D01*
X14939285Y99082143D01*
X14882142Y98910715D01*
X14825000Y98625000D01*
X14825000Y98396429D01*
X14882142Y98110715D01*
X14939285Y97939286D01*
X14996428Y97825000D01*
X15110714Y97653572D01*
X15167857Y97596429D01*
X72287857Y98625000D02*
X71716428Y98625000D01*
X72402142Y98967858D02*
X72002142Y97767858D01*
X71602142Y98967858D01*
X71202142Y98967858D02*
X71202142Y97767858D01*
X70916428Y97767858D01*
X70745000Y97825000D01*
X70630714Y97939286D01*
X70573571Y98053572D01*
X70516428Y98282143D01*
X70516428Y98453572D01*
X70573571Y98682143D01*
X70630714Y98796429D01*
X70745000Y98910715D01*
X70916428Y98967858D01*
X71202142Y98967858D01*
X70002142Y98967858D02*
X70002142Y97767858D01*
X69716428Y97767858D01*
X69545000Y97825000D01*
X69430714Y97939286D01*
X69373571Y98053572D01*
X69316428Y98282143D01*
X69316428Y98453572D01*
X69373571Y98682143D01*
X69430714Y98796429D01*
X69545000Y98910715D01*
X69716428Y98967858D01*
X70002142Y98967858D01*
X68116428Y98967858D02*
X68516428Y98396429D01*
X68802142Y98967858D02*
X68802142Y97767858D01*
X68345000Y97767858D01*
X68230714Y97825000D01*
X68173571Y97882143D01*
X68116428Y97996429D01*
X68116428Y98167858D01*
X68173571Y98282143D01*
X68230714Y98339286D01*
X68345000Y98396429D01*
X68802142Y98396429D01*
X66287857Y98339286D02*
X66116428Y98396429D01*
X66059285Y98453572D01*
X66002142Y98567858D01*
X66002142Y98739286D01*
X66059285Y98853572D01*
X66116428Y98910715D01*
X66230714Y98967858D01*
X66687857Y98967858D01*
X66687857Y97767858D01*
X66287857Y97767858D01*
X66173571Y97825000D01*
X66116428Y97882143D01*
X66059285Y97996429D01*
X66059285Y98110715D01*
X66116428Y98225000D01*
X66173571Y98282143D01*
X66287857Y98339286D01*
X66687857Y98339286D01*
X65487857Y97767858D02*
X65487857Y98739286D01*
X65430714Y98853572D01*
X65373571Y98910715D01*
X65259285Y98967858D01*
X65030714Y98967858D01*
X64916428Y98910715D01*
X64859285Y98853572D01*
X64802142Y98739286D01*
X64802142Y97767858D01*
X64287857Y98910715D02*
X64116428Y98967858D01*
X63830714Y98967858D01*
X63716428Y98910715D01*
X63659285Y98853572D01*
X63602142Y98739286D01*
X63602142Y98625000D01*
X63659285Y98510715D01*
X63716428Y98453572D01*
X63830714Y98396429D01*
X64059285Y98339286D01*
X64173571Y98282143D01*
X64230714Y98225000D01*
X64287857Y98110715D01*
X64287857Y97996429D01*
X64230714Y97882143D01*
X64173571Y97825000D01*
X64059285Y97767858D01*
X63773571Y97767858D01*
X63602142Y97825000D01*
X74987857Y1362143D02*
X74987857Y2562143D01*
X75273571Y2562143D01*
X75445000Y2505000D01*
X75559285Y2390715D01*
X75616428Y2276429D01*
X75673571Y2047858D01*
X75673571Y1876429D01*
X75616428Y1647858D01*
X75559285Y1533572D01*
X75445000Y1419286D01*
X75273571Y1362143D01*
X74987857Y1362143D01*
X76130714Y1705000D02*
X76702142Y1705000D01*
X76016428Y1362143D02*
X76416428Y2562143D01*
X76816428Y1362143D01*
X77045000Y2562143D02*
X77730714Y2562143D01*
X77387857Y1362143D02*
X77387857Y2562143D01*
X78073571Y1705000D02*
X78645000Y1705000D01*
X77959285Y1362143D02*
X78359285Y2562143D01*
X78759285Y1362143D01*
X80473571Y1990715D02*
X80645000Y1933572D01*
X80702142Y1876429D01*
X80759285Y1762143D01*
X80759285Y1590715D01*
X80702142Y1476429D01*
X80645000Y1419286D01*
X80530714Y1362143D01*
X80073571Y1362143D01*
X80073571Y2562143D01*
X80473571Y2562143D01*
X80587857Y2505000D01*
X80645000Y2447858D01*
X80702142Y2333572D01*
X80702142Y2219286D01*
X80645000Y2105000D01*
X80587857Y2047858D01*
X80473571Y1990715D01*
X80073571Y1990715D01*
X81273571Y2562143D02*
X81273571Y1590715D01*
X81330714Y1476429D01*
X81387857Y1419286D01*
X81502142Y1362143D01*
X81730714Y1362143D01*
X81845000Y1419286D01*
X81902142Y1476429D01*
X81959285Y1590715D01*
X81959285Y2562143D01*
X82473571Y1419286D02*
X82645000Y1362143D01*
X82930714Y1362143D01*
X83045000Y1419286D01*
X83102142Y1476429D01*
X83159285Y1590715D01*
X83159285Y1705000D01*
X83102142Y1819286D01*
X83045000Y1876429D01*
X82930714Y1933572D01*
X82702142Y1990715D01*
X82587857Y2047858D01*
X82530714Y2105000D01*
X82473571Y2219286D01*
X82473571Y2333572D01*
X82530714Y2447858D01*
X82587857Y2505000D01*
X82702142Y2562143D01*
X82987857Y2562143D01*
X83159285Y2505000D01*
X7517857Y93685000D02*
X7455952Y93485000D01*
X7394047Y93418334D01*
X7270238Y93351667D01*
X7084523Y93351667D01*
X6960714Y93418334D01*
X6898809Y93485000D01*
X6836904Y93618334D01*
X6836904Y94151667D01*
X8136904Y94151667D01*
X8136904Y93685000D01*
X8075000Y93551667D01*
X8013095Y93485000D01*
X7889285Y93418334D01*
X7765476Y93418334D01*
X7641666Y93485000D01*
X7579761Y93551667D01*
X7517857Y93685000D01*
X7517857Y94151667D01*
X6836904Y92151667D02*
X7517857Y92151667D01*
X7641666Y92218334D01*
X7703571Y92351667D01*
X7703571Y92618334D01*
X7641666Y92751667D01*
X6898809Y92151667D02*
X6836904Y92285000D01*
X6836904Y92618334D01*
X6898809Y92751667D01*
X7022619Y92818334D01*
X7146428Y92818334D01*
X7270238Y92751667D01*
X7332142Y92618334D01*
X7332142Y92285000D01*
X7394047Y92151667D01*
X6898809Y91551667D02*
X6836904Y91418334D01*
X6836904Y91151667D01*
X6898809Y91018334D01*
X7022619Y90951667D01*
X7084523Y90951667D01*
X7208333Y91018334D01*
X7270238Y91151667D01*
X7270238Y91351667D01*
X7332142Y91485000D01*
X7455952Y91551667D01*
X7517857Y91551667D01*
X7641666Y91485000D01*
X7703571Y91351667D01*
X7703571Y91151667D01*
X7641666Y91018334D01*
X6898809Y89818334D02*
X6836904Y89951667D01*
X6836904Y90218334D01*
X6898809Y90351667D01*
X7022619Y90418334D01*
X7517857Y90418334D01*
X7641666Y90351667D01*
X7703571Y90218334D01*
X7703571Y89951667D01*
X7641666Y89818334D01*
X7517857Y89751667D01*
X7394047Y89751667D01*
X7270238Y90418334D01*
X6836904Y88551667D02*
X8136904Y88551667D01*
X6898809Y88551667D02*
X6836904Y88685000D01*
X6836904Y88951667D01*
X6898809Y89085000D01*
X6960714Y89151667D01*
X7084523Y89218334D01*
X7455952Y89218334D01*
X7579761Y89151667D01*
X7641666Y89085000D01*
X7703571Y88951667D01*
X7703571Y88685000D01*
X7641666Y88551667D01*
X6836904Y86618334D02*
X6898809Y86751667D01*
X6960714Y86818334D01*
X7084523Y86885000D01*
X7455952Y86885000D01*
X7579761Y86818334D01*
X7641666Y86751667D01*
X7703571Y86618334D01*
X7703571Y86418334D01*
X7641666Y86285000D01*
X7579761Y86218334D01*
X7455952Y86151667D01*
X7084523Y86151667D01*
X6960714Y86218334D01*
X6898809Y86285000D01*
X6836904Y86418334D01*
X6836904Y86618334D01*
X7703571Y85551667D02*
X6836904Y85551667D01*
X7579761Y85551667D02*
X7641666Y85485000D01*
X7703571Y85351667D01*
X7703571Y85151667D01*
X7641666Y85018334D01*
X7517857Y84951667D01*
X6836904Y84951667D01*
X6836904Y83218334D02*
X8136904Y83218334D01*
X8136904Y82885000D01*
X8075000Y82685000D01*
X7951190Y82551667D01*
X7827380Y82485000D01*
X7579761Y82418334D01*
X7394047Y82418334D01*
X7146428Y82485000D01*
X7022619Y82551667D01*
X6898809Y82685000D01*
X6836904Y82885000D01*
X6836904Y83218334D01*
X6836904Y81818334D02*
X7703571Y81818334D01*
X7455952Y81818334D02*
X7579761Y81751667D01*
X7641666Y81685000D01*
X7703571Y81551667D01*
X7703571Y81418334D01*
X6836904Y80351667D02*
X7517857Y80351667D01*
X7641666Y80418334D01*
X7703571Y80551667D01*
X7703571Y80818334D01*
X7641666Y80951667D01*
X6898809Y80351667D02*
X6836904Y80485000D01*
X6836904Y80818334D01*
X6898809Y80951667D01*
X7022619Y81018334D01*
X7146428Y81018334D01*
X7270238Y80951667D01*
X7332142Y80818334D01*
X7332142Y80485000D01*
X7394047Y80351667D01*
X7703571Y79085000D02*
X6651190Y79085000D01*
X6527380Y79151667D01*
X6465476Y79218334D01*
X6403571Y79351667D01*
X6403571Y79551667D01*
X6465476Y79685000D01*
X6898809Y79085000D02*
X6836904Y79218334D01*
X6836904Y79485000D01*
X6898809Y79618334D01*
X6960714Y79685000D01*
X7084523Y79751667D01*
X7455952Y79751667D01*
X7579761Y79685000D01*
X7641666Y79618334D01*
X7703571Y79485000D01*
X7703571Y79218334D01*
X7641666Y79085000D01*
X6836904Y78218334D02*
X6898809Y78351667D01*
X6960714Y78418334D01*
X7084523Y78485000D01*
X7455952Y78485000D01*
X7579761Y78418334D01*
X7641666Y78351667D01*
X7703571Y78218334D01*
X7703571Y78018334D01*
X7641666Y77885000D01*
X7579761Y77818334D01*
X7455952Y77751667D01*
X7084523Y77751667D01*
X6960714Y77818334D01*
X6898809Y77885000D01*
X6836904Y78018334D01*
X6836904Y78218334D01*
X7703571Y77151667D02*
X6836904Y77151667D01*
X7579761Y77151667D02*
X7641666Y77085000D01*
X7703571Y76951667D01*
X7703571Y76751667D01*
X7641666Y76618334D01*
X7517857Y76551667D01*
X6836904Y76551667D01*
X8136904Y75618334D02*
X8136904Y75351667D01*
X8075000Y75218334D01*
X7951190Y75085000D01*
X7703571Y75018334D01*
X7270238Y75018334D01*
X7022619Y75085000D01*
X6898809Y75218334D01*
X6836904Y75351667D01*
X6836904Y75618334D01*
X6898809Y75751667D01*
X7022619Y75885000D01*
X7270238Y75951667D01*
X7703571Y75951667D01*
X7951190Y75885000D01*
X8075000Y75751667D01*
X8136904Y75618334D01*
X7703571Y74418334D02*
X6836904Y74418334D01*
X7579761Y74418334D02*
X7641666Y74351667D01*
X7703571Y74218334D01*
X7703571Y74018334D01*
X7641666Y73885000D01*
X7517857Y73818334D01*
X6836904Y73818334D01*
X6898809Y72618334D02*
X6836904Y72751667D01*
X6836904Y73018334D01*
X6898809Y73151667D01*
X7022619Y73218334D01*
X7517857Y73218334D01*
X7641666Y73151667D01*
X7703571Y73018334D01*
X7703571Y72751667D01*
X7641666Y72618334D01*
X7517857Y72551667D01*
X7394047Y72551667D01*
X7270238Y73218334D01*
X8136904Y71085000D02*
X6836904Y70618334D01*
X8136904Y70151667D01*
X6836904Y68951667D02*
X6836904Y69751667D01*
X6836904Y69351667D02*
X8136904Y69351667D01*
X7951190Y69485000D01*
X7827380Y69618334D01*
X7765476Y69751667D01*
X6960714Y68351667D02*
X6898809Y68285000D01*
X6836904Y68351667D01*
X6898809Y68418334D01*
X6960714Y68351667D01*
X6836904Y68351667D01*
X8136904Y67418334D02*
X8136904Y67285000D01*
X8075000Y67151667D01*
X8013095Y67085000D01*
X7889285Y67018334D01*
X7641666Y66951667D01*
X7332142Y66951667D01*
X7084523Y67018334D01*
X6960714Y67085000D01*
X6898809Y67151667D01*
X6836904Y67285000D01*
X6836904Y67418334D01*
X6898809Y67551667D01*
X6960714Y67618334D01*
X7084523Y67685000D01*
X7332142Y67751667D01*
X7641666Y67751667D01*
X7889285Y67685000D01*
X8013095Y67618334D01*
X8075000Y67551667D01*
X8136904Y67418334D01*
X4191666Y92685000D02*
X4253571Y92751667D01*
X4439285Y92885000D01*
X4563095Y92951667D01*
X4748809Y93018334D01*
X5058333Y93085000D01*
X5305952Y93085000D01*
X5615476Y93018334D01*
X5801190Y92951667D01*
X5925000Y92885000D01*
X6110714Y92751667D01*
X6172619Y92685000D01*
X4810714Y91351667D02*
X4748809Y91418334D01*
X4686904Y91618334D01*
X4686904Y91751667D01*
X4748809Y91951667D01*
X4872619Y92085000D01*
X4996428Y92151667D01*
X5244047Y92218334D01*
X5429761Y92218334D01*
X5677380Y92151667D01*
X5801190Y92085000D01*
X5925000Y91951667D01*
X5986904Y91751667D01*
X5986904Y91618334D01*
X5925000Y91418334D01*
X5863095Y91351667D01*
X4191666Y90885000D02*
X4253571Y90818334D01*
X4439285Y90685000D01*
X4563095Y90618334D01*
X4748809Y90551667D01*
X5058333Y90485000D01*
X5305952Y90485000D01*
X5615476Y90551667D01*
X5801190Y90618334D01*
X5925000Y90685000D01*
X6110714Y90818334D01*
X6172619Y90885000D01*
X4686904Y88751667D02*
X5986904Y88751667D01*
X4686904Y87951667D02*
X5429761Y88551667D01*
X5986904Y87951667D02*
X5244047Y88751667D01*
X4686904Y87351667D02*
X5986904Y87351667D01*
X4686904Y86751667D02*
X5367857Y86751667D01*
X5491666Y86818334D01*
X5553571Y86951667D01*
X5553571Y87151667D01*
X5491666Y87285000D01*
X5429761Y87351667D01*
X4686904Y85485000D02*
X5367857Y85485000D01*
X5491666Y85551667D01*
X5553571Y85685000D01*
X5553571Y85951667D01*
X5491666Y86085000D01*
X4748809Y85485000D02*
X4686904Y85618334D01*
X4686904Y85951667D01*
X4748809Y86085000D01*
X4872619Y86151667D01*
X4996428Y86151667D01*
X5120238Y86085000D01*
X5182142Y85951667D01*
X5182142Y85618334D01*
X5244047Y85485000D01*
X4686904Y84618334D02*
X4748809Y84751667D01*
X4872619Y84818334D01*
X5986904Y84818334D01*
X4748809Y83551667D02*
X4686904Y83685000D01*
X4686904Y83951667D01*
X4748809Y84085000D01*
X4872619Y84151667D01*
X5367857Y84151667D01*
X5491666Y84085000D01*
X5553571Y83951667D01*
X5553571Y83685000D01*
X5491666Y83551667D01*
X5367857Y83485000D01*
X5244047Y83485000D01*
X5120238Y84151667D01*
X4686904Y82285000D02*
X5986904Y82285000D01*
X4748809Y82285000D02*
X4686904Y82418334D01*
X4686904Y82685000D01*
X4748809Y82818334D01*
X4810714Y82885000D01*
X4934523Y82951667D01*
X5305952Y82951667D01*
X5429761Y82885000D01*
X5491666Y82818334D01*
X5553571Y82685000D01*
X5553571Y82418334D01*
X5491666Y82285000D01*
X4686904Y80551667D02*
X5986904Y80551667D01*
X5367857Y80551667D02*
X5367857Y79751667D01*
X4686904Y79751667D02*
X5986904Y79751667D01*
X4686904Y78485000D02*
X5367857Y78485000D01*
X5491666Y78551667D01*
X5553571Y78685000D01*
X5553571Y78951667D01*
X5491666Y79085000D01*
X4748809Y78485000D02*
X4686904Y78618334D01*
X4686904Y78951667D01*
X4748809Y79085000D01*
X4872619Y79151667D01*
X4996428Y79151667D01*
X5120238Y79085000D01*
X5182142Y78951667D01*
X5182142Y78618334D01*
X5244047Y78485000D01*
X4748809Y77885000D02*
X4686904Y77751667D01*
X4686904Y77485000D01*
X4748809Y77351667D01*
X4872619Y77285000D01*
X4934523Y77285000D01*
X5058333Y77351667D01*
X5120238Y77485000D01*
X5120238Y77685000D01*
X5182142Y77818334D01*
X5305952Y77885000D01*
X5367857Y77885000D01*
X5491666Y77818334D01*
X5553571Y77685000D01*
X5553571Y77485000D01*
X5491666Y77351667D01*
X4748809Y76751667D02*
X4686904Y76618334D01*
X4686904Y76351667D01*
X4748809Y76218334D01*
X4872619Y76151667D01*
X4934523Y76151667D01*
X5058333Y76218334D01*
X5120238Y76351667D01*
X5120238Y76551667D01*
X5182142Y76685000D01*
X5305952Y76751667D01*
X5367857Y76751667D01*
X5491666Y76685000D01*
X5553571Y76551667D01*
X5553571Y76351667D01*
X5491666Y76218334D01*
X4686904Y75351667D02*
X4748809Y75485000D01*
X4810714Y75551667D01*
X4934523Y75618334D01*
X5305952Y75618334D01*
X5429761Y75551667D01*
X5491666Y75485000D01*
X5553571Y75351667D01*
X5553571Y75151667D01*
X5491666Y75018334D01*
X5429761Y74951667D01*
X5305952Y74885000D01*
X4934523Y74885000D01*
X4810714Y74951667D01*
X4748809Y75018334D01*
X4686904Y75151667D01*
X4686904Y75351667D01*
X5553571Y73685000D02*
X4686904Y73685000D01*
X5553571Y74285000D02*
X4872619Y74285000D01*
X4748809Y74218334D01*
X4686904Y74085000D01*
X4686904Y73885000D01*
X4748809Y73751667D01*
X4810714Y73685000D01*
X5553571Y73018334D02*
X4686904Y73018334D01*
X5429761Y73018334D02*
X5491666Y72951667D01*
X5553571Y72818334D01*
X5553571Y72618334D01*
X5491666Y72485000D01*
X5367857Y72418334D01*
X4686904Y72418334D01*
X4686904Y71151667D02*
X5367857Y71151667D01*
X5491666Y71218334D01*
X5553571Y71351667D01*
X5553571Y71618334D01*
X5491666Y71751667D01*
X4748809Y71151667D02*
X4686904Y71285000D01*
X4686904Y71618334D01*
X4748809Y71751667D01*
X4872619Y71818334D01*
X4996428Y71818334D01*
X5120238Y71751667D01*
X5182142Y71618334D01*
X5182142Y71285000D01*
X5244047Y71151667D01*
X4686904Y70485000D02*
X5986904Y70485000D01*
X4686904Y69885000D02*
X5367857Y69885000D01*
X5491666Y69951667D01*
X5553571Y70085000D01*
X5553571Y70285000D01*
X5491666Y70418334D01*
X5429761Y70485000D01*
X2570952Y92946667D02*
X2632857Y93013334D01*
X2694761Y93146667D01*
X2694761Y93280000D01*
X2632857Y93413334D01*
X2570952Y93480000D01*
X2447142Y93546667D01*
X2323333Y93546667D01*
X2199523Y93480000D01*
X2137619Y93413334D01*
X2075714Y93280000D01*
X2075714Y93146667D01*
X2137619Y93013334D01*
X2199523Y92946667D01*
X2694761Y92946667D02*
X2199523Y92946667D01*
X2137619Y92880000D01*
X2137619Y92813334D01*
X2199523Y92680000D01*
X2323333Y92613334D01*
X2632857Y92613334D01*
X2818571Y92746667D01*
X2942380Y92946667D01*
X3004285Y93213334D01*
X2942380Y93480000D01*
X2818571Y93680000D01*
X2632857Y93813334D01*
X2385238Y93880000D01*
X2137619Y93813334D01*
X1951904Y93680000D01*
X1828095Y93480000D01*
X1766190Y93213334D01*
X1828095Y92946667D01*
X1951904Y92746667D01*
X1951904Y92013334D02*
X3251904Y92013334D01*
X2447142Y91880000D02*
X1951904Y91480000D01*
X2818571Y91480000D02*
X2323333Y92013334D01*
X1951904Y90280000D02*
X2632857Y90280000D01*
X2756666Y90346667D01*
X2818571Y90480000D01*
X2818571Y90746667D01*
X2756666Y90880000D01*
X2013809Y90280000D02*
X1951904Y90413334D01*
X1951904Y90746667D01*
X2013809Y90880000D01*
X2137619Y90946667D01*
X2261428Y90946667D01*
X2385238Y90880000D01*
X2447142Y90746667D01*
X2447142Y90413334D01*
X2509047Y90280000D01*
X2818571Y89613334D02*
X1951904Y89613334D01*
X2694761Y89613334D02*
X2756666Y89546667D01*
X2818571Y89413334D01*
X2818571Y89213334D01*
X2756666Y89080000D01*
X2632857Y89013334D01*
X1951904Y89013334D01*
X2818571Y88346667D02*
X1518571Y88346667D01*
X2756666Y88346667D02*
X2818571Y88213334D01*
X2818571Y87946667D01*
X2756666Y87813334D01*
X2694761Y87746667D01*
X2570952Y87680000D01*
X2199523Y87680000D01*
X2075714Y87746667D01*
X2013809Y87813334D01*
X1951904Y87946667D01*
X1951904Y88213334D01*
X2013809Y88346667D01*
X1951904Y86480000D02*
X2632857Y86480000D01*
X2756666Y86546667D01*
X2818571Y86680000D01*
X2818571Y86946667D01*
X2756666Y87080000D01*
X2013809Y86480000D02*
X1951904Y86613334D01*
X1951904Y86946667D01*
X2013809Y87080000D01*
X2137619Y87146667D01*
X2261428Y87146667D01*
X2385238Y87080000D01*
X2447142Y86946667D01*
X2447142Y86613334D01*
X2509047Y86480000D01*
X2818571Y85813334D02*
X1518571Y85813334D01*
X2756666Y85813334D02*
X2818571Y85680000D01*
X2818571Y85413334D01*
X2756666Y85280000D01*
X2694761Y85213334D01*
X2570952Y85146667D01*
X2199523Y85146667D01*
X2075714Y85213334D01*
X2013809Y85280000D01*
X1951904Y85413334D01*
X1951904Y85680000D01*
X2013809Y85813334D01*
X1951904Y83946667D02*
X2632857Y83946667D01*
X2756666Y84013334D01*
X2818571Y84146667D01*
X2818571Y84413334D01*
X2756666Y84546667D01*
X2013809Y83946667D02*
X1951904Y84080000D01*
X1951904Y84413334D01*
X2013809Y84546667D01*
X2137619Y84613334D01*
X2261428Y84613334D01*
X2385238Y84546667D01*
X2447142Y84413334D01*
X2447142Y84080000D01*
X2509047Y83946667D01*
X3128095Y82280001D02*
X3190000Y82213334D01*
X3251904Y82080001D01*
X3251904Y81746667D01*
X3190000Y81613334D01*
X3128095Y81546667D01*
X3004285Y81480001D01*
X2880476Y81480001D01*
X2694761Y81546667D01*
X1951904Y82346667D01*
X1951904Y81480001D01*
X3251904Y80613334D02*
X3251904Y80480000D01*
X3190000Y80346667D01*
X3128095Y80280000D01*
X3004285Y80213334D01*
X2756666Y80146667D01*
X2447142Y80146667D01*
X2199523Y80213334D01*
X2075714Y80280000D01*
X2013809Y80346667D01*
X1951904Y80480000D01*
X1951904Y80613334D01*
X2013809Y80746667D01*
X2075714Y80813334D01*
X2199523Y80880000D01*
X2447142Y80946667D01*
X2756666Y80946667D01*
X3004285Y80880000D01*
X3128095Y80813334D01*
X3190000Y80746667D01*
X3251904Y80613334D01*
X3128095Y79613334D02*
X3190000Y79546667D01*
X3251904Y79413334D01*
X3251904Y79080000D01*
X3190000Y78946667D01*
X3128095Y78880000D01*
X3004285Y78813334D01*
X2880476Y78813334D01*
X2694761Y78880000D01*
X1951904Y79680000D01*
X1951904Y78813334D01*
X1951904Y77480000D02*
X1951904Y78280000D01*
X1951904Y77880000D02*
X3251904Y77880000D01*
X3066190Y78013334D01*
X2942380Y78146667D01*
X2880476Y78280000D01*
X2447142Y76880000D02*
X2447142Y75813334D01*
X3251904Y74880000D02*
X3251904Y74746667D01*
X3190000Y74613334D01*
X3128095Y74546667D01*
X3004285Y74480000D01*
X2756666Y74413334D01*
X2447142Y74413334D01*
X2199523Y74480000D01*
X2075714Y74546667D01*
X2013809Y74613334D01*
X1951904Y74746667D01*
X1951904Y74880000D01*
X2013809Y75013334D01*
X2075714Y75080000D01*
X2199523Y75146667D01*
X2447142Y75213334D01*
X2756666Y75213334D01*
X3004285Y75146667D01*
X3128095Y75080000D01*
X3190000Y75013334D01*
X3251904Y74880000D01*
X1951904Y73746667D02*
X1951904Y73480000D01*
X2013809Y73346667D01*
X2075714Y73280000D01*
X2261428Y73146667D01*
X2509047Y73080000D01*
X3004285Y73080000D01*
X3128095Y73146667D01*
X3190000Y73213334D01*
X3251904Y73346667D01*
X3251904Y73613334D01*
X3190000Y73746667D01*
X3128095Y73813334D01*
X3004285Y73880000D01*
X2694761Y73880000D01*
X2570952Y73813334D01*
X2509047Y73746667D01*
X2447142Y73613334D01*
X2447142Y73346667D01*
X2509047Y73213334D01*
X2570952Y73146667D01*
X2694761Y73080000D01*
X2447142Y72480001D02*
X2447142Y71413334D01*
X1951904Y70013334D02*
X1951904Y70813334D01*
X1951904Y70413334D02*
X3251904Y70413334D01*
X3066190Y70546667D01*
X2942380Y70680001D01*
X2880476Y70813334D01*
X1951904Y69346667D02*
X1951904Y69080001D01*
X2013809Y68946667D01*
X2075714Y68880001D01*
X2261428Y68746667D01*
X2509047Y68680001D01*
X3004285Y68680001D01*
X3128095Y68746667D01*
X3190000Y68813334D01*
X3251904Y68946667D01*
X3251904Y69213334D01*
X3190000Y69346667D01*
X3128095Y69413334D01*
X3004285Y69480001D01*
X2694761Y69480001D01*
X2570952Y69413334D01*
X2509047Y69346667D01*
X2447142Y69213334D01*
X2447142Y68946667D01*
X2509047Y68813334D01*
X2570952Y68746667D01*
X2694761Y68680001D01*
D12*
X8243571Y4495715D02*
X8243571Y6295715D01*
X8843571Y5010000D01*
X9443571Y6295715D01*
X9443571Y4495715D01*
X11329285Y4667143D02*
X11243571Y4581429D01*
X10986428Y4495715D01*
X10815000Y4495715D01*
X10557857Y4581429D01*
X10386428Y4752858D01*
X10300714Y4924286D01*
X10215000Y5267143D01*
X10215000Y5524286D01*
X10300714Y5867143D01*
X10386428Y6038572D01*
X10557857Y6210000D01*
X10815000Y6295715D01*
X10986428Y6295715D01*
X11243571Y6210000D01*
X11329285Y6124286D01*
X12872142Y6295715D02*
X12529285Y6295715D01*
X12357857Y6210000D01*
X12272142Y6124286D01*
X12100714Y5867143D01*
X12015000Y5524286D01*
X12015000Y4838572D01*
X12100714Y4667143D01*
X12186428Y4581429D01*
X12357857Y4495715D01*
X12700714Y4495715D01*
X12872142Y4581429D01*
X12957857Y4667143D01*
X13043571Y4838572D01*
X13043571Y5267143D01*
X12957857Y5438572D01*
X12872142Y5524286D01*
X12700714Y5610000D01*
X12357857Y5610000D01*
X12186428Y5524286D01*
X12100714Y5438572D01*
X12015000Y5267143D01*
X14072142Y5524286D02*
X13900714Y5610000D01*
X13815000Y5695715D01*
X13729285Y5867143D01*
X13729285Y5952858D01*
X13815000Y6124286D01*
X13900714Y6210000D01*
X14072142Y6295715D01*
X14415000Y6295715D01*
X14586428Y6210000D01*
X14672142Y6124286D01*
X14757857Y5952858D01*
X14757857Y5867143D01*
X14672142Y5695715D01*
X14586428Y5610000D01*
X14415000Y5524286D01*
X14072142Y5524286D01*
X13900714Y5438572D01*
X13815000Y5352858D01*
X13729285Y5181429D01*
X13729285Y4838572D01*
X13815000Y4667143D01*
X13900714Y4581429D01*
X14072142Y4495715D01*
X14415000Y4495715D01*
X14586428Y4581429D01*
X14672142Y4667143D01*
X14757857Y4838572D01*
X14757857Y5181429D01*
X14672142Y5352858D01*
X14586428Y5438572D01*
X14415000Y5524286D01*
X15529285Y5438572D02*
X16129285Y5438572D01*
X16386428Y4495715D02*
X15529285Y4495715D01*
X15529285Y6295715D01*
X16386428Y6295715D01*
X16986428Y6295715D02*
X18186428Y6295715D01*
X16986428Y4495715D01*
X18186428Y4495715D01*
X18700714Y6295715D02*
X19815000Y6295715D01*
X19215000Y5610000D01*
X19472142Y5610000D01*
X19643571Y5524286D01*
X19729285Y5438572D01*
X19815000Y5267143D01*
X19815000Y4838572D01*
X19729285Y4667143D01*
X19643571Y4581429D01*
X19472142Y4495715D01*
X18957857Y4495715D01*
X18786428Y4581429D01*
X18700714Y4667143D01*
X20500714Y6124286D02*
X20586428Y6210000D01*
X20757857Y6295715D01*
X21186428Y6295715D01*
X21357857Y6210000D01*
X21443571Y6124286D01*
X21529285Y5952858D01*
X21529285Y5781429D01*
X21443571Y5524286D01*
X20415000Y4495715D01*
X21529285Y4495715D01*
X22557857Y5524286D02*
X22386428Y5610000D01*
X22300714Y5695715D01*
X22215000Y5867143D01*
X22215000Y5952858D01*
X22300714Y6124286D01*
X22386428Y6210000D01*
X22557857Y6295715D01*
X22900714Y6295715D01*
X23072142Y6210000D01*
X23157857Y6124286D01*
X23243571Y5952858D01*
X23243571Y5867143D01*
X23157857Y5695715D01*
X23072142Y5610000D01*
X22900714Y5524286D01*
X22557857Y5524286D01*
X22386428Y5438572D01*
X22300714Y5352858D01*
X22215000Y5181429D01*
X22215000Y4838572D01*
X22300714Y4667143D01*
X22386428Y4581429D01*
X22557857Y4495715D01*
X22900714Y4495715D01*
X23072142Y4581429D01*
X23157857Y4667143D01*
X23243571Y4838572D01*
X23243571Y5181429D01*
X23157857Y5352858D01*
X23072142Y5438572D01*
X22900714Y5524286D01*
X25300714Y4581429D02*
X25557857Y4495715D01*
X25986428Y4495715D01*
X26157857Y4581429D01*
X26243571Y4667143D01*
X26329285Y4838572D01*
X26329285Y5010000D01*
X26243571Y5181429D01*
X26157857Y5267143D01*
X25986428Y5352858D01*
X25643571Y5438572D01*
X25472142Y5524286D01*
X25386428Y5610000D01*
X25300714Y5781429D01*
X25300714Y5952858D01*
X25386428Y6124286D01*
X25472142Y6210000D01*
X25643571Y6295715D01*
X26072142Y6295715D01*
X26329285Y6210000D01*
X27700714Y5438572D02*
X27957857Y5352858D01*
X28043571Y5267143D01*
X28129285Y5095715D01*
X28129285Y4838572D01*
X28043571Y4667143D01*
X27957857Y4581429D01*
X27786428Y4495715D01*
X27100714Y4495715D01*
X27100714Y6295715D01*
X27700714Y6295715D01*
X27872142Y6210000D01*
X27957857Y6124286D01*
X28043571Y5952858D01*
X28043571Y5781429D01*
X27957857Y5610000D01*
X27872142Y5524286D01*
X27700714Y5438572D01*
X27100714Y5438572D01*
X29929285Y4667143D02*
X29843571Y4581429D01*
X29586428Y4495715D01*
X29415000Y4495715D01*
X29157857Y4581429D01*
X28986428Y4752858D01*
X28900714Y4924286D01*
X28815000Y5267143D01*
X28815000Y5524286D01*
X28900714Y5867143D01*
X28986428Y6038572D01*
X29157857Y6210000D01*
X29415000Y6295715D01*
X29586428Y6295715D01*
X29843571Y6210000D01*
X29929285Y6124286D01*
X9272142Y1495715D02*
X8672142Y2352858D01*
X8243571Y1495715D02*
X8243571Y3295715D01*
X8929285Y3295715D01*
X9100714Y3210000D01*
X9186428Y3124286D01*
X9272142Y2952858D01*
X9272142Y2695715D01*
X9186428Y2524286D01*
X9100714Y2438572D01*
X8929285Y2352858D01*
X8243571Y2352858D01*
X10729285Y1581429D02*
X10557857Y1495715D01*
X10215000Y1495715D01*
X10043571Y1581429D01*
X9957857Y1752858D01*
X9957857Y2438572D01*
X10043571Y2610000D01*
X10215000Y2695715D01*
X10557857Y2695715D01*
X10729285Y2610000D01*
X10815000Y2438572D01*
X10815000Y2267143D01*
X9957857Y2095715D01*
X11415000Y2695715D02*
X11843571Y1495715D01*
X12272142Y2695715D01*
X12957857Y1667143D02*
X13043571Y1581429D01*
X12957857Y1495715D01*
X12872142Y1581429D01*
X12957857Y1667143D01*
X12957857Y1495715D01*
X14157857Y3295715D02*
X14329285Y3295715D01*
X14500714Y3210000D01*
X14586428Y3124286D01*
X14672142Y2952858D01*
X14757857Y2610000D01*
X14757857Y2181429D01*
X14672142Y1838572D01*
X14586428Y1667143D01*
X14500714Y1581429D01*
X14329285Y1495715D01*
X14157857Y1495715D01*
X13986428Y1581429D01*
X13900714Y1667143D01*
X13815000Y1838572D01*
X13729285Y2181429D01*
X13729285Y2610000D01*
X13815000Y2952858D01*
X13900714Y3124286D01*
X13986428Y3210000D01*
X14157857Y3295715D01*
X15529285Y1667143D02*
X15615000Y1581429D01*
X15529285Y1495715D01*
X15443571Y1581429D01*
X15529285Y1667143D01*
X15529285Y1495715D01*
X16215000Y3295715D02*
X17329285Y3295715D01*
X16729285Y2610000D01*
X16986428Y2610000D01*
X17157857Y2524286D01*
X17243571Y2438572D01*
X17329285Y2267143D01*
X17329285Y1838572D01*
X17243571Y1667143D01*
X17157857Y1581429D01*
X16986428Y1495715D01*
X16472142Y1495715D01*
X16300714Y1581429D01*
X16215000Y1667143D01*
D10*
X85217142Y63615000D02*
X85074285Y63686429D01*
X84860000Y63686429D01*
X84645714Y63615000D01*
X84502857Y63472143D01*
X84431428Y63329286D01*
X84360000Y63043572D01*
X84360000Y62829286D01*
X84431428Y62543572D01*
X84502857Y62400715D01*
X84645714Y62257858D01*
X84860000Y62186429D01*
X85002857Y62186429D01*
X85217142Y62257858D01*
X85288571Y62329286D01*
X85288571Y62829286D01*
X85002857Y62829286D01*
X85931428Y62186429D02*
X85931428Y63686429D01*
X86788571Y62186429D01*
X86788571Y63686429D01*
X87502857Y62186429D02*
X87502857Y63686429D01*
X87860000Y63686429D01*
X88074285Y63615000D01*
X88217142Y63472143D01*
X88288571Y63329286D01*
X88360000Y63043572D01*
X88360000Y62829286D01*
X88288571Y62543572D01*
X88217142Y62400715D01*
X88074285Y62257858D01*
X87860000Y62186429D01*
X87502857Y62186429D01*
X95155000Y71306429D02*
X95655000Y69806429D01*
X96155000Y71306429D01*
X96655000Y69806429D02*
X96655000Y71306429D01*
X97012142Y71306429D01*
X97226428Y71235000D01*
X97369285Y71092143D01*
X97440714Y70949286D01*
X97512142Y70663572D01*
X97512142Y70449286D01*
X97440714Y70163572D01*
X97369285Y70020715D01*
X97226428Y69877858D01*
X97012142Y69806429D01*
X96655000Y69806429D01*
X98155000Y69806429D02*
X98155000Y71306429D01*
X98512142Y71306429D01*
X98726428Y71235000D01*
X98869285Y71092143D01*
X98940714Y70949286D01*
X99012142Y70663572D01*
X99012142Y70449286D01*
X98940714Y70163572D01*
X98869285Y70020715D01*
X98726428Y69877858D01*
X98512142Y69806429D01*
X98155000Y69806429D01*
X84360000Y68766429D02*
X84860000Y67266429D01*
X85360000Y68766429D01*
X85860000Y67266429D02*
X85860000Y68766429D01*
X86217142Y68766429D01*
X86431428Y68695000D01*
X86574285Y68552143D01*
X86645714Y68409286D01*
X86717142Y68123572D01*
X86717142Y67909286D01*
X86645714Y67623572D01*
X86574285Y67480715D01*
X86431428Y67337858D01*
X86217142Y67266429D01*
X85860000Y67266429D01*
X87360000Y67266429D02*
X87360000Y68766429D01*
X87717142Y68766429D01*
X87931428Y68695000D01*
X88074285Y68552143D01*
X88145714Y68409286D01*
X88217142Y68123572D01*
X88217142Y67909286D01*
X88145714Y67623572D01*
X88074285Y67480715D01*
X87931428Y67337858D01*
X87717142Y67266429D01*
X87360000Y67266429D01*
X96012142Y63615000D02*
X95869285Y63686429D01*
X95655000Y63686429D01*
X95440714Y63615000D01*
X95297857Y63472143D01*
X95226428Y63329286D01*
X95155000Y63043572D01*
X95155000Y62829286D01*
X95226428Y62543572D01*
X95297857Y62400715D01*
X95440714Y62257858D01*
X95655000Y62186429D01*
X95797857Y62186429D01*
X96012142Y62257858D01*
X96083571Y62329286D01*
X96083571Y62829286D01*
X95797857Y62829286D01*
X96726428Y62186429D02*
X96726428Y63686429D01*
X97583571Y62186429D01*
X97583571Y63686429D01*
X98297857Y62186429D02*
X98297857Y63686429D01*
X98655000Y63686429D01*
X98869285Y63615000D01*
X99012142Y63472143D01*
X99083571Y63329286D01*
X99155000Y63043572D01*
X99155000Y62829286D01*
X99083571Y62543572D01*
X99012142Y62400715D01*
X98869285Y62257858D01*
X98655000Y62186429D01*
X98297857Y62186429D01*
X84360000Y71306429D02*
X84860000Y69806429D01*
X85360000Y71306429D01*
X85860000Y69806429D02*
X85860000Y71306429D01*
X86217142Y71306429D01*
X86431428Y71235000D01*
X86574285Y71092143D01*
X86645714Y70949286D01*
X86717142Y70663572D01*
X86717142Y70449286D01*
X86645714Y70163572D01*
X86574285Y70020715D01*
X86431428Y69877858D01*
X86217142Y69806429D01*
X85860000Y69806429D01*
X87360000Y69806429D02*
X87360000Y71306429D01*
X87717142Y71306429D01*
X87931428Y71235000D01*
X88074285Y71092143D01*
X88145714Y70949286D01*
X88217142Y70663572D01*
X88217142Y70449286D01*
X88145714Y70163572D01*
X88074285Y70020715D01*
X87931428Y69877858D01*
X87717142Y69806429D01*
X87360000Y69806429D01*
X96012142Y61075000D02*
X95869285Y61146429D01*
X95655000Y61146429D01*
X95440714Y61075000D01*
X95297857Y60932143D01*
X95226428Y60789286D01*
X95155000Y60503572D01*
X95155000Y60289286D01*
X95226428Y60003572D01*
X95297857Y59860715D01*
X95440714Y59717858D01*
X95655000Y59646429D01*
X95797857Y59646429D01*
X96012142Y59717858D01*
X96083571Y59789286D01*
X96083571Y60289286D01*
X95797857Y60289286D01*
X96726428Y59646429D02*
X96726428Y61146429D01*
X97583571Y59646429D01*
X97583571Y61146429D01*
X98297857Y59646429D02*
X98297857Y61146429D01*
X98655000Y61146429D01*
X98869285Y61075000D01*
X99012142Y60932143D01*
X99083571Y60789286D01*
X99155000Y60503572D01*
X99155000Y60289286D01*
X99083571Y60003572D01*
X99012142Y59860715D01*
X98869285Y59717858D01*
X98655000Y59646429D01*
X98297857Y59646429D01*
D13*
X33801267Y3935000D02*
X33508733Y3935000D01*
X33801267Y4955000D02*
X33508733Y4955000D01*
X33080000Y68705000D02*
X33080000Y69995000D01*
X33780000Y68705000D02*
X33080000Y68705000D01*
X33780000Y68005000D02*
X33780000Y68705000D01*
X33780000Y54485000D02*
X33080000Y54485000D01*
X33780000Y55185000D02*
X33780000Y54485000D01*
X19560000Y68705000D02*
X20260000Y68705000D01*
X19560000Y68005000D02*
X19560000Y68705000D01*
X19560000Y54485000D02*
X20260000Y54485000D01*
X19560000Y55185000D02*
X19560000Y54485000D01*
X90395000Y34921000D02*
X89595000Y34121000D01*
X89595000Y34121000D02*
X81055000Y34121000D01*
X81055000Y34121000D02*
X81055000Y54779000D01*
X81055000Y54779000D02*
X90395000Y54779000D01*
X90395000Y54779000D02*
X90395000Y34921000D01*
X5000000Y10000000D02*
X9500000Y10000000D01*
X3750000Y14000000D02*
X3750000Y12500000D01*
X9500000Y16500000D02*
X5000000Y16500000D01*
X10750000Y12500000D02*
X10750000Y14000000D01*
X15127500Y13080276D02*
X15127500Y13589724D01*
X14082500Y13080276D02*
X14082500Y13589724D01*
X37442224Y52592500D02*
X36932776Y52592500D01*
X37442224Y51547500D02*
X36932776Y51547500D01*
X19304724Y39257500D02*
X18795276Y39257500D01*
X19304724Y38212500D02*
X18795276Y38212500D01*
X23114724Y79897500D02*
X22605276Y79897500D01*
X23114724Y78852500D02*
X22605276Y78852500D01*
X51567000Y54420000D02*
X52367000Y53620000D01*
X52367000Y53620000D02*
X52367000Y37020000D01*
X52367000Y37020000D02*
X41613000Y37020000D01*
X41613000Y37020000D02*
X41613000Y54420000D01*
X41613000Y54420000D02*
X51567000Y54420000D01*
X20238767Y31240000D02*
X19946233Y31240000D01*
X20238767Y32260000D02*
X19946233Y32260000D01*
X56390000Y35298767D02*
X56390000Y35006233D01*
X55370000Y35298767D02*
X55370000Y35006233D01*
X92856267Y56640000D02*
X92563733Y56640000D01*
X92856267Y57660000D02*
X92563733Y57660000D01*
X88346233Y94490000D02*
X88638767Y94490000D01*
X88346233Y93470000D02*
X88638767Y93470000D01*
X57910000Y86213733D02*
X57910000Y86506267D01*
X58930000Y86213733D02*
X58930000Y86506267D01*
X41763733Y77345000D02*
X42056267Y77345000D01*
X41763733Y76325000D02*
X42056267Y76325000D01*
X23006267Y73785000D02*
X22713733Y73785000D01*
X23006267Y74805000D02*
X22713733Y74805000D01*
X18968767Y35050000D02*
X18676233Y35050000D01*
X18968767Y36070000D02*
X18676233Y36070000D01*
X37383767Y49020000D02*
X37091233Y49020000D01*
X37383767Y50040000D02*
X37091233Y50040000D01*
X91950000Y13253767D02*
X91950000Y12961233D01*
X90930000Y13253767D02*
X90930000Y12961233D01*
X91586267Y31240000D02*
X91293733Y31240000D01*
X91586267Y32260000D02*
X91293733Y32260000D01*
X91293733Y76075000D02*
X91586267Y76075000D01*
X91293733Y75055000D02*
X91586267Y75055000D01*
X19175000Y75418733D02*
X19175000Y75711267D01*
X20195000Y75418733D02*
X20195000Y75711267D01*
X47520000Y81030000D02*
X53920000Y81030000D01*
X53920000Y81030000D02*
X53920000Y83430000D01*
X53920000Y83430000D02*
X47520000Y83430000D01*
X47520000Y83430000D02*
X47520000Y81030000D01*
X47520000Y81880000D02*
X46620000Y81280000D01*
X46620000Y81280000D02*
X46420000Y81280000D01*
X47520000Y82580000D02*
X46620000Y83180000D01*
X46620000Y83180000D02*
X46420000Y83180000D01*
X85460000Y80490000D02*
X85460000Y83090000D01*
X100160000Y80490000D02*
X85460000Y80490000D01*
X85460000Y89690000D02*
X87360000Y89690000D01*
X85460000Y86990000D02*
X85460000Y89690000D01*
X100160000Y89690000D02*
X100160000Y80490000D01*
X91360000Y89690000D02*
X100160000Y89690000D01*
X86310000Y80290000D02*
X85260000Y80290000D01*
X85260000Y81340000D02*
X85260000Y80290000D01*
X17910000Y15060000D02*
X17580000Y15060000D01*
X17580000Y15060000D02*
X17580000Y20500000D01*
X17580000Y20500000D02*
X17910000Y20500000D01*
X20190000Y15060000D02*
X20520000Y15060000D01*
X20520000Y15060000D02*
X20520000Y20500000D01*
X20520000Y20500000D02*
X20190000Y20500000D01*
X17580000Y15960000D02*
X20520000Y15960000D01*
X17580000Y16080000D02*
X20520000Y16080000D01*
X17580000Y15840000D02*
X20520000Y15840000D01*
X63865000Y3115000D02*
X63865000Y8315000D01*
X51105000Y3115000D02*
X63865000Y3115000D01*
X48505000Y8315000D02*
X63865000Y8315000D01*
X51105000Y3115000D02*
X51105000Y5715000D01*
X51105000Y5715000D02*
X48505000Y5715000D01*
X48505000Y5715000D02*
X48505000Y8315000D01*
X49835000Y3115000D02*
X48505000Y3115000D01*
X48505000Y3115000D02*
X48505000Y4445000D01*
X37075000Y3115000D02*
X37075000Y4445000D01*
X38405000Y3115000D02*
X37075000Y3115000D01*
X37075000Y5715000D02*
X37075000Y8315000D01*
X39675000Y5715000D02*
X37075000Y5715000D01*
X39675000Y3115000D02*
X39675000Y5715000D01*
X37075000Y8315000D02*
X44815000Y8315000D01*
X39675000Y3115000D02*
X44815000Y3115000D01*
X44815000Y3115000D02*
X44815000Y8315000D01*
X40640000Y85935000D02*
X38440000Y85935000D01*
X40640000Y85935000D02*
X42840000Y85935000D01*
X40640000Y79165000D02*
X38440000Y79165000D01*
X40640000Y79165000D02*
X44240000Y79165000D01*
X18630000Y80320000D02*
X18615000Y80320000D01*
X20755000Y80320000D02*
X20740000Y80320000D01*
X18630000Y84860000D02*
X18615000Y84860000D01*
X20755000Y84860000D02*
X20740000Y84860000D01*
X18615000Y84860000D02*
X18615000Y80320000D01*
X20755000Y84860000D02*
X20755000Y80320000D01*
X15660000Y21280000D02*
X15675000Y21280000D01*
X13535000Y21280000D02*
X13550000Y21280000D01*
X15660000Y16740000D02*
X15675000Y16740000D01*
X13535000Y16740000D02*
X13550000Y16740000D01*
X15675000Y16740000D02*
X15675000Y21280000D01*
X13535000Y16740000D02*
X13535000Y21280000D01*
D11*
X39885000Y98295000D02*
X52985000Y98295000D01*
X52985000Y98295000D02*
X52985000Y91895000D01*
X52985000Y91895000D02*
X39885000Y91895000D01*
X39885000Y91895000D02*
X39885000Y98295000D01*
D13*
X89475000Y71815000D02*
X90805000Y71815000D01*
X89475000Y70485000D02*
X89475000Y71815000D01*
X92075000Y71815000D02*
X94675000Y71815000D01*
X92075000Y69215000D02*
X92075000Y71815000D01*
X89475000Y69215000D02*
X92075000Y69215000D01*
X94675000Y71815000D02*
X94675000Y58995000D01*
X89475000Y69215000D02*
X89475000Y58995000D01*
X89475000Y58995000D02*
X94675000Y58995000D01*
X8315000Y45025000D02*
X6985000Y45025000D01*
X8315000Y46355000D02*
X8315000Y45025000D01*
X5715000Y45025000D02*
X3115000Y45025000D01*
X5715000Y47625000D02*
X5715000Y45025000D01*
X8315000Y47625000D02*
X5715000Y47625000D01*
X3115000Y45025000D02*
X3115000Y65465000D01*
X8315000Y47625000D02*
X8315000Y65465000D01*
X8315000Y65465000D02*
X3115000Y65465000D01*
X11370000Y92015000D02*
X11370000Y93345000D01*
X12700000Y92015000D02*
X11370000Y92015000D01*
X11370000Y94615000D02*
X11370000Y97215000D01*
X13970000Y94615000D02*
X11370000Y94615000D01*
X13970000Y92015000D02*
X13970000Y94615000D01*
X11370000Y97215000D02*
X31810000Y97215000D01*
X13970000Y92015000D02*
X31810000Y92015000D01*
X31810000Y92015000D02*
X31810000Y97215000D01*
X60900000Y92015000D02*
X60900000Y93345000D01*
X62230000Y92015000D02*
X60900000Y92015000D01*
X60900000Y94615000D02*
X60900000Y97215000D01*
X63500000Y94615000D02*
X60900000Y94615000D01*
X63500000Y92015000D02*
X63500000Y94615000D01*
X60900000Y97215000D02*
X81340000Y97215000D01*
X63500000Y92015000D02*
X81340000Y92015000D01*
X81340000Y92015000D02*
X81340000Y97215000D01*
X69460000Y3115000D02*
X69460000Y4445000D01*
X70790000Y3115000D02*
X69460000Y3115000D01*
X69460000Y5715000D02*
X69460000Y8315000D01*
X72060000Y5715000D02*
X69460000Y5715000D01*
X72060000Y3115000D02*
X72060000Y5715000D01*
X69460000Y8315000D02*
X89900000Y8315000D01*
X72060000Y3115000D02*
X89900000Y3115000D01*
X89900000Y3115000D02*
X89900000Y8315000D01*
X69982000Y54420000D02*
X70782000Y53620000D01*
X70782000Y53620000D02*
X70782000Y37020000D01*
X70782000Y37020000D02*
X60028000Y37020000D01*
X60028000Y37020000D02*
X60028000Y54420000D01*
X60028000Y54420000D02*
X69982000Y54420000D01*
X10750000Y26000000D02*
X10750000Y27500000D01*
X9500000Y30000000D02*
X5000000Y30000000D01*
X3750000Y27500000D02*
X3750000Y26000000D01*
X5000000Y23500000D02*
X9500000Y23500000D01*
X18415000Y24390000D02*
X20615000Y24390000D01*
X18415000Y24390000D02*
X16215000Y24390000D01*
X18415000Y29610000D02*
X20615000Y29610000D01*
X18415000Y29610000D02*
X14815000Y29610000D01*
X70910000Y14605000D02*
X70910000Y12405000D01*
X70910000Y14605000D02*
X70910000Y16805000D01*
X77680000Y14605000D02*
X77680000Y12405000D01*
X77680000Y14605000D02*
X77680000Y18205000D01*
X82115000Y14500000D02*
X82115000Y12300000D01*
X82115000Y14500000D02*
X82115000Y16700000D01*
X88885000Y14500000D02*
X88885000Y12300000D01*
X88885000Y14500000D02*
X88885000Y18100000D01*
X79585000Y84455000D02*
X79585000Y86655000D01*
X79585000Y84455000D02*
X79585000Y82255000D01*
X72815000Y84455000D02*
X72815000Y86655000D01*
X72815000Y84455000D02*
X72815000Y80855000D01*
X68155000Y84455000D02*
X68155000Y86655000D01*
X68155000Y84455000D02*
X68155000Y82255000D01*
X61385000Y84455000D02*
X61385000Y86655000D01*
X61385000Y84455000D02*
X61385000Y80855000D01*
D11*
X32218333Y5357858D02*
X32170714Y5310239D01*
X32027857Y5262620D01*
X31932619Y5262620D01*
X31789761Y5310239D01*
X31694523Y5405477D01*
X31646904Y5500715D01*
X31599285Y5691191D01*
X31599285Y5834048D01*
X31646904Y6024524D01*
X31694523Y6119762D01*
X31789761Y6215000D01*
X31932619Y6262620D01*
X32027857Y6262620D01*
X32170714Y6215000D01*
X32218333Y6167381D01*
X33170714Y5262620D02*
X32599285Y5262620D01*
X32885000Y5262620D02*
X32885000Y6262620D01*
X32789761Y6119762D01*
X32694523Y6024524D01*
X32599285Y5976905D01*
X25908095Y52617620D02*
X25908095Y51808096D01*
X25955714Y51712858D01*
X26003333Y51665239D01*
X26098571Y51617620D01*
X26289047Y51617620D01*
X26384285Y51665239D01*
X26431904Y51712858D01*
X26479523Y51808096D01*
X26479523Y52617620D01*
X27479523Y51617620D02*
X26908095Y51617620D01*
X27193809Y51617620D02*
X27193809Y52617620D01*
X27098571Y52474762D01*
X27003333Y52379524D01*
X26908095Y52331905D01*
X84963095Y33668620D02*
X84963095Y32859096D01*
X85010714Y32763858D01*
X85058333Y32716239D01*
X85153571Y32668620D01*
X85344047Y32668620D01*
X85439285Y32716239D01*
X85486904Y32763858D01*
X85534523Y32859096D01*
X85534523Y33668620D01*
X85963095Y33573381D02*
X86010714Y33621000D01*
X86105952Y33668620D01*
X86344047Y33668620D01*
X86439285Y33621000D01*
X86486904Y33573381D01*
X86534523Y33478143D01*
X86534523Y33382905D01*
X86486904Y33240048D01*
X85915476Y32668620D01*
X86534523Y32668620D01*
X5916666Y17095239D02*
X6059523Y17047620D01*
X6297619Y17047620D01*
X6392857Y17095239D01*
X6440476Y17142858D01*
X6488095Y17238096D01*
X6488095Y17333334D01*
X6440476Y17428572D01*
X6392857Y17476191D01*
X6297619Y17523810D01*
X6107142Y17571429D01*
X6011904Y17619048D01*
X5964285Y17666667D01*
X5916666Y17761905D01*
X5916666Y17857143D01*
X5964285Y17952381D01*
X6011904Y18000000D01*
X6107142Y18047620D01*
X6345238Y18047620D01*
X6488095Y18000000D01*
X6821428Y18047620D02*
X7059523Y17047620D01*
X7250000Y17761905D01*
X7440476Y17047620D01*
X7678571Y18047620D01*
X8583333Y17047620D02*
X8011904Y17047620D01*
X8297619Y17047620D02*
X8297619Y18047620D01*
X8202380Y17904762D01*
X8107142Y17809524D01*
X8011904Y17761905D01*
X13627380Y13168334D02*
X13151190Y12835000D01*
X13627380Y12596905D02*
X12627380Y12596905D01*
X12627380Y12977858D01*
X12675000Y13073096D01*
X12722619Y13120715D01*
X12817857Y13168334D01*
X12960714Y13168334D01*
X13055952Y13120715D01*
X13103571Y13073096D01*
X13151190Y12977858D01*
X13151190Y12596905D01*
X12960714Y14025477D02*
X13627380Y14025477D01*
X12579761Y13787381D02*
X13294047Y13549286D01*
X13294047Y14168334D01*
X37020833Y52887620D02*
X36687500Y53363810D01*
X36449404Y52887620D02*
X36449404Y53887620D01*
X36830357Y53887620D01*
X36925595Y53840000D01*
X36973214Y53792381D01*
X37020833Y53697143D01*
X37020833Y53554286D01*
X36973214Y53459048D01*
X36925595Y53411429D01*
X36830357Y53363810D01*
X36449404Y53363810D01*
X37354166Y53887620D02*
X37973214Y53887620D01*
X37639880Y53506667D01*
X37782738Y53506667D01*
X37877976Y53459048D01*
X37925595Y53411429D01*
X37973214Y53316191D01*
X37973214Y53078096D01*
X37925595Y52982858D01*
X37877976Y52935239D01*
X37782738Y52887620D01*
X37497023Y52887620D01*
X37401785Y52935239D01*
X37354166Y52982858D01*
X18883333Y36852620D02*
X18550000Y37328810D01*
X18311904Y36852620D02*
X18311904Y37852620D01*
X18692857Y37852620D01*
X18788095Y37805000D01*
X18835714Y37757381D01*
X18883333Y37662143D01*
X18883333Y37519286D01*
X18835714Y37424048D01*
X18788095Y37376429D01*
X18692857Y37328810D01*
X18311904Y37328810D01*
X19264285Y37757381D02*
X19311904Y37805000D01*
X19407142Y37852620D01*
X19645238Y37852620D01*
X19740476Y37805000D01*
X19788095Y37757381D01*
X19835714Y37662143D01*
X19835714Y37566905D01*
X19788095Y37424048D01*
X19216666Y36852620D01*
X19835714Y36852620D01*
X22693333Y77492620D02*
X22360000Y77968810D01*
X22121904Y77492620D02*
X22121904Y78492620D01*
X22502857Y78492620D01*
X22598095Y78445000D01*
X22645714Y78397381D01*
X22693333Y78302143D01*
X22693333Y78159286D01*
X22645714Y78064048D01*
X22598095Y78016429D01*
X22502857Y77968810D01*
X22121904Y77968810D01*
X23645714Y77492620D02*
X23074285Y77492620D01*
X23360000Y77492620D02*
X23360000Y78492620D01*
X23264761Y78349762D01*
X23169523Y78254524D01*
X23074285Y78206905D01*
X52819380Y44958096D02*
X53628904Y44958096D01*
X53724142Y45005715D01*
X53771761Y45053334D01*
X53819380Y45148572D01*
X53819380Y45339048D01*
X53771761Y45434286D01*
X53724142Y45481905D01*
X53628904Y45529524D01*
X52819380Y45529524D01*
X52819380Y45910477D02*
X52819380Y46529524D01*
X53200333Y46196191D01*
X53200333Y46339048D01*
X53247952Y46434286D01*
X53295571Y46481905D01*
X53390809Y46529524D01*
X53628904Y46529524D01*
X53724142Y46481905D01*
X53771761Y46434286D01*
X53819380Y46339048D01*
X53819380Y46053334D01*
X53771761Y45958096D01*
X53724142Y45910477D01*
X19449642Y29962858D02*
X19402023Y29915239D01*
X19259166Y29867620D01*
X19163928Y29867620D01*
X19021071Y29915239D01*
X18925833Y30010477D01*
X18878214Y30105715D01*
X18830595Y30296191D01*
X18830595Y30439048D01*
X18878214Y30629524D01*
X18925833Y30724762D01*
X19021071Y30820000D01*
X19163928Y30867620D01*
X19259166Y30867620D01*
X19402023Y30820000D01*
X19449642Y30772381D01*
X20402023Y29867620D02*
X19830595Y29867620D01*
X20116309Y29867620D02*
X20116309Y30867620D01*
X20021071Y30724762D01*
X19925833Y30629524D01*
X19830595Y30581905D01*
X21259166Y30867620D02*
X21068690Y30867620D01*
X20973452Y30820000D01*
X20925833Y30772381D01*
X20830595Y30629524D01*
X20782976Y30439048D01*
X20782976Y30058096D01*
X20830595Y29962858D01*
X20878214Y29915239D01*
X20973452Y29867620D01*
X21163928Y29867620D01*
X21259166Y29915239D01*
X21306785Y29962858D01*
X21354404Y30058096D01*
X21354404Y30296191D01*
X21306785Y30391429D01*
X21259166Y30439048D01*
X21163928Y30486667D01*
X20973452Y30486667D01*
X20878214Y30439048D01*
X20830595Y30391429D01*
X20782976Y30296191D01*
X57667142Y34509643D02*
X57714761Y34462024D01*
X57762380Y34319167D01*
X57762380Y34223929D01*
X57714761Y34081072D01*
X57619523Y33985834D01*
X57524285Y33938215D01*
X57333809Y33890596D01*
X57190952Y33890596D01*
X57000476Y33938215D01*
X56905238Y33985834D01*
X56810000Y34081072D01*
X56762380Y34223929D01*
X56762380Y34319167D01*
X56810000Y34462024D01*
X56857619Y34509643D01*
X57762380Y35462024D02*
X57762380Y34890596D01*
X57762380Y35176310D02*
X56762380Y35176310D01*
X56905238Y35081072D01*
X57000476Y34985834D01*
X57048095Y34890596D01*
X56762380Y36366786D02*
X56762380Y35890596D01*
X57238571Y35842977D01*
X57190952Y35890596D01*
X57143333Y35985834D01*
X57143333Y36223929D01*
X57190952Y36319167D01*
X57238571Y36366786D01*
X57333809Y36414405D01*
X57571904Y36414405D01*
X57667142Y36366786D01*
X57714761Y36319167D01*
X57762380Y36223929D01*
X57762380Y35985834D01*
X57714761Y35890596D01*
X57667142Y35842977D01*
X92067142Y55362858D02*
X92019523Y55315239D01*
X91876666Y55267620D01*
X91781428Y55267620D01*
X91638571Y55315239D01*
X91543333Y55410477D01*
X91495714Y55505715D01*
X91448095Y55696191D01*
X91448095Y55839048D01*
X91495714Y56029524D01*
X91543333Y56124762D01*
X91638571Y56220000D01*
X91781428Y56267620D01*
X91876666Y56267620D01*
X92019523Y56220000D01*
X92067142Y56172381D01*
X93019523Y55267620D02*
X92448095Y55267620D01*
X92733809Y55267620D02*
X92733809Y56267620D01*
X92638571Y56124762D01*
X92543333Y56029524D01*
X92448095Y55981905D01*
X93876666Y55934286D02*
X93876666Y55267620D01*
X93638571Y56315239D02*
X93400476Y55600953D01*
X94019523Y55600953D01*
X87849642Y95052858D02*
X87802023Y95005239D01*
X87659166Y94957620D01*
X87563928Y94957620D01*
X87421071Y95005239D01*
X87325833Y95100477D01*
X87278214Y95195715D01*
X87230595Y95386191D01*
X87230595Y95529048D01*
X87278214Y95719524D01*
X87325833Y95814762D01*
X87421071Y95910000D01*
X87563928Y95957620D01*
X87659166Y95957620D01*
X87802023Y95910000D01*
X87849642Y95862381D01*
X88802023Y94957620D02*
X88230595Y94957620D01*
X88516309Y94957620D02*
X88516309Y95957620D01*
X88421071Y95814762D01*
X88325833Y95719524D01*
X88230595Y95671905D01*
X89135357Y95957620D02*
X89754404Y95957620D01*
X89421071Y95576667D01*
X89563928Y95576667D01*
X89659166Y95529048D01*
X89706785Y95481429D01*
X89754404Y95386191D01*
X89754404Y95148096D01*
X89706785Y95052858D01*
X89659166Y95005239D01*
X89563928Y94957620D01*
X89278214Y94957620D01*
X89182976Y95005239D01*
X89135357Y95052858D01*
X60047142Y85717143D02*
X60094761Y85669524D01*
X60142380Y85526667D01*
X60142380Y85431429D01*
X60094761Y85288572D01*
X59999523Y85193334D01*
X59904285Y85145715D01*
X59713809Y85098096D01*
X59570952Y85098096D01*
X59380476Y85145715D01*
X59285238Y85193334D01*
X59190000Y85288572D01*
X59142380Y85431429D01*
X59142380Y85526667D01*
X59190000Y85669524D01*
X59237619Y85717143D01*
X60142380Y86669524D02*
X60142380Y86098096D01*
X60142380Y86383810D02*
X59142380Y86383810D01*
X59285238Y86288572D01*
X59380476Y86193334D01*
X59428095Y86098096D01*
X59237619Y87050477D02*
X59190000Y87098096D01*
X59142380Y87193334D01*
X59142380Y87431429D01*
X59190000Y87526667D01*
X59237619Y87574286D01*
X59332857Y87621905D01*
X59428095Y87621905D01*
X59570952Y87574286D01*
X60142380Y87002858D01*
X60142380Y87621905D01*
X44442142Y76477858D02*
X44394523Y76430239D01*
X44251666Y76382620D01*
X44156428Y76382620D01*
X44013571Y76430239D01*
X43918333Y76525477D01*
X43870714Y76620715D01*
X43823095Y76811191D01*
X43823095Y76954048D01*
X43870714Y77144524D01*
X43918333Y77239762D01*
X44013571Y77335000D01*
X44156428Y77382620D01*
X44251666Y77382620D01*
X44394523Y77335000D01*
X44442142Y77287381D01*
X45394523Y76382620D02*
X44823095Y76382620D01*
X45108809Y76382620D02*
X45108809Y77382620D01*
X45013571Y77239762D01*
X44918333Y77144524D01*
X44823095Y77096905D01*
X46346904Y76382620D02*
X45775476Y76382620D01*
X46061190Y76382620D02*
X46061190Y77382620D01*
X45965952Y77239762D01*
X45870714Y77144524D01*
X45775476Y77096905D01*
X22217142Y72507858D02*
X22169523Y72460239D01*
X22026666Y72412620D01*
X21931428Y72412620D01*
X21788571Y72460239D01*
X21693333Y72555477D01*
X21645714Y72650715D01*
X21598095Y72841191D01*
X21598095Y72984048D01*
X21645714Y73174524D01*
X21693333Y73269762D01*
X21788571Y73365000D01*
X21931428Y73412620D01*
X22026666Y73412620D01*
X22169523Y73365000D01*
X22217142Y73317381D01*
X23169523Y72412620D02*
X22598095Y72412620D01*
X22883809Y72412620D02*
X22883809Y73412620D01*
X22788571Y73269762D01*
X22693333Y73174524D01*
X22598095Y73126905D01*
X23788571Y73412620D02*
X23883809Y73412620D01*
X23979047Y73365000D01*
X24026666Y73317381D01*
X24074285Y73222143D01*
X24121904Y73031667D01*
X24121904Y72793572D01*
X24074285Y72603096D01*
X24026666Y72507858D01*
X23979047Y72460239D01*
X23883809Y72412620D01*
X23788571Y72412620D01*
X23693333Y72460239D01*
X23645714Y72507858D01*
X23598095Y72603096D01*
X23550476Y72793572D01*
X23550476Y73031667D01*
X23598095Y73222143D01*
X23645714Y73317381D01*
X23693333Y73365000D01*
X23788571Y73412620D01*
X18655833Y33772858D02*
X18608214Y33725239D01*
X18465357Y33677620D01*
X18370119Y33677620D01*
X18227261Y33725239D01*
X18132023Y33820477D01*
X18084404Y33915715D01*
X18036785Y34106191D01*
X18036785Y34249048D01*
X18084404Y34439524D01*
X18132023Y34534762D01*
X18227261Y34630000D01*
X18370119Y34677620D01*
X18465357Y34677620D01*
X18608214Y34630000D01*
X18655833Y34582381D01*
X19132023Y33677620D02*
X19322500Y33677620D01*
X19417738Y33725239D01*
X19465357Y33772858D01*
X19560595Y33915715D01*
X19608214Y34106191D01*
X19608214Y34487143D01*
X19560595Y34582381D01*
X19512976Y34630000D01*
X19417738Y34677620D01*
X19227261Y34677620D01*
X19132023Y34630000D01*
X19084404Y34582381D01*
X19036785Y34487143D01*
X19036785Y34249048D01*
X19084404Y34153810D01*
X19132023Y34106191D01*
X19227261Y34058572D01*
X19417738Y34058572D01*
X19512976Y34106191D01*
X19560595Y34153810D01*
X19608214Y34249048D01*
X37070833Y50442858D02*
X37023214Y50395239D01*
X36880357Y50347620D01*
X36785119Y50347620D01*
X36642261Y50395239D01*
X36547023Y50490477D01*
X36499404Y50585715D01*
X36451785Y50776191D01*
X36451785Y50919048D01*
X36499404Y51109524D01*
X36547023Y51204762D01*
X36642261Y51300000D01*
X36785119Y51347620D01*
X36880357Y51347620D01*
X37023214Y51300000D01*
X37070833Y51252381D01*
X37642261Y50919048D02*
X37547023Y50966667D01*
X37499404Y51014286D01*
X37451785Y51109524D01*
X37451785Y51157143D01*
X37499404Y51252381D01*
X37547023Y51300000D01*
X37642261Y51347620D01*
X37832738Y51347620D01*
X37927976Y51300000D01*
X37975595Y51252381D01*
X38023214Y51157143D01*
X38023214Y51109524D01*
X37975595Y51014286D01*
X37927976Y50966667D01*
X37832738Y50919048D01*
X37642261Y50919048D01*
X37547023Y50871429D01*
X37499404Y50823810D01*
X37451785Y50728572D01*
X37451785Y50538096D01*
X37499404Y50442858D01*
X37547023Y50395239D01*
X37642261Y50347620D01*
X37832738Y50347620D01*
X37927976Y50395239D01*
X37975595Y50442858D01*
X38023214Y50538096D01*
X38023214Y50728572D01*
X37975595Y50823810D01*
X37927976Y50871429D01*
X37832738Y50919048D01*
X93227142Y12940834D02*
X93274761Y12893215D01*
X93322380Y12750358D01*
X93322380Y12655120D01*
X93274761Y12512262D01*
X93179523Y12417024D01*
X93084285Y12369405D01*
X92893809Y12321786D01*
X92750952Y12321786D01*
X92560476Y12369405D01*
X92465238Y12417024D01*
X92370000Y12512262D01*
X92322380Y12655120D01*
X92322380Y12750358D01*
X92370000Y12893215D01*
X92417619Y12940834D01*
X92322380Y13274167D02*
X92322380Y13940834D01*
X93322380Y13512262D01*
X91273333Y29962858D02*
X91225714Y29915239D01*
X91082857Y29867620D01*
X90987619Y29867620D01*
X90844761Y29915239D01*
X90749523Y30010477D01*
X90701904Y30105715D01*
X90654285Y30296191D01*
X90654285Y30439048D01*
X90701904Y30629524D01*
X90749523Y30724762D01*
X90844761Y30820000D01*
X90987619Y30867620D01*
X91082857Y30867620D01*
X91225714Y30820000D01*
X91273333Y30772381D01*
X92130476Y30867620D02*
X91940000Y30867620D01*
X91844761Y30820000D01*
X91797142Y30772381D01*
X91701904Y30629524D01*
X91654285Y30439048D01*
X91654285Y30058096D01*
X91701904Y29962858D01*
X91749523Y29915239D01*
X91844761Y29867620D01*
X92035238Y29867620D01*
X92130476Y29915239D01*
X92178095Y29962858D01*
X92225714Y30058096D01*
X92225714Y30296191D01*
X92178095Y30391429D01*
X92130476Y30439048D01*
X92035238Y30486667D01*
X91844761Y30486667D01*
X91749523Y30439048D01*
X91701904Y30391429D01*
X91654285Y30296191D01*
X91273333Y76637858D02*
X91225714Y76590239D01*
X91082857Y76542620D01*
X90987619Y76542620D01*
X90844761Y76590239D01*
X90749523Y76685477D01*
X90701904Y76780715D01*
X90654285Y76971191D01*
X90654285Y77114048D01*
X90701904Y77304524D01*
X90749523Y77399762D01*
X90844761Y77495000D01*
X90987619Y77542620D01*
X91082857Y77542620D01*
X91225714Y77495000D01*
X91273333Y77447381D01*
X92178095Y77542620D02*
X91701904Y77542620D01*
X91654285Y77066429D01*
X91701904Y77114048D01*
X91797142Y77161667D01*
X92035238Y77161667D01*
X92130476Y77114048D01*
X92178095Y77066429D01*
X92225714Y76971191D01*
X92225714Y76733096D01*
X92178095Y76637858D01*
X92130476Y76590239D01*
X92035238Y76542620D01*
X91797142Y76542620D01*
X91701904Y76590239D01*
X91654285Y76637858D01*
X18612142Y75398334D02*
X18659761Y75350715D01*
X18707380Y75207858D01*
X18707380Y75112620D01*
X18659761Y74969762D01*
X18564523Y74874524D01*
X18469285Y74826905D01*
X18278809Y74779286D01*
X18135952Y74779286D01*
X17945476Y74826905D01*
X17850238Y74874524D01*
X17755000Y74969762D01*
X17707380Y75112620D01*
X17707380Y75207858D01*
X17755000Y75350715D01*
X17802619Y75398334D01*
X18040714Y76255477D02*
X18707380Y76255477D01*
X17659761Y76017381D02*
X18374047Y75779286D01*
X18374047Y76398334D01*
X47249761Y79162381D02*
X47154523Y79210000D01*
X47059285Y79305239D01*
X46916428Y79448096D01*
X46821190Y79495715D01*
X46725952Y79495715D01*
X46773571Y79257620D02*
X46678333Y79305239D01*
X46583095Y79400477D01*
X46535476Y79590953D01*
X46535476Y79924286D01*
X46583095Y80114762D01*
X46678333Y80210000D01*
X46773571Y80257620D01*
X46964047Y80257620D01*
X47059285Y80210000D01*
X47154523Y80114762D01*
X47202142Y79924286D01*
X47202142Y79590953D01*
X47154523Y79400477D01*
X47059285Y79305239D01*
X46964047Y79257620D01*
X46773571Y79257620D01*
X48154523Y79257620D02*
X47583095Y79257620D01*
X47868809Y79257620D02*
X47868809Y80257620D01*
X47773571Y80114762D01*
X47678333Y80019524D01*
X47583095Y79971905D01*
X94476666Y91387620D02*
X94476666Y90673334D01*
X94429047Y90530477D01*
X94333809Y90435239D01*
X94190952Y90387620D01*
X94095714Y90387620D01*
X95095714Y90959048D02*
X95000476Y91006667D01*
X94952857Y91054286D01*
X94905238Y91149524D01*
X94905238Y91197143D01*
X94952857Y91292381D01*
X95000476Y91340000D01*
X95095714Y91387620D01*
X95286190Y91387620D01*
X95381428Y91340000D01*
X95429047Y91292381D01*
X95476666Y91197143D01*
X95476666Y91149524D01*
X95429047Y91054286D01*
X95381428Y91006667D01*
X95286190Y90959048D01*
X95095714Y90959048D01*
X95000476Y90911429D01*
X94952857Y90863810D01*
X94905238Y90768572D01*
X94905238Y90578096D01*
X94952857Y90482858D01*
X95000476Y90435239D01*
X95095714Y90387620D01*
X95286190Y90387620D01*
X95381428Y90435239D01*
X95429047Y90482858D01*
X95476666Y90578096D01*
X95476666Y90768572D01*
X95429047Y90863810D01*
X95381428Y90911429D01*
X95286190Y90959048D01*
X19502380Y11326905D02*
X18502380Y11326905D01*
X18502380Y11565000D01*
X18550000Y11707858D01*
X18645238Y11803096D01*
X18740476Y11850715D01*
X18930952Y11898334D01*
X19073809Y11898334D01*
X19264285Y11850715D01*
X19359523Y11803096D01*
X19454761Y11707858D01*
X19502380Y11565000D01*
X19502380Y11326905D01*
X19502380Y12850715D02*
X19502380Y12279286D01*
X19502380Y12565000D02*
X18502380Y12565000D01*
X18645238Y12469762D01*
X18740476Y12374524D01*
X18788095Y12279286D01*
X17602380Y13708096D02*
X16602380Y13708096D01*
X17602380Y14279524D02*
X17030952Y13850953D01*
X16602380Y14279524D02*
X17173809Y13708096D01*
X46957380Y5381667D02*
X47671666Y5381667D01*
X47814523Y5334048D01*
X47909761Y5238810D01*
X47957380Y5095953D01*
X47957380Y5000715D01*
X46957380Y5762620D02*
X46957380Y6429286D01*
X47957380Y6000715D01*
X35527380Y5381667D02*
X36241666Y5381667D01*
X36384523Y5334048D01*
X36479761Y5238810D01*
X36527380Y5095953D01*
X36527380Y5000715D01*
X35527380Y6286429D02*
X35527380Y6095953D01*
X35575000Y6000715D01*
X35622619Y5953096D01*
X35765476Y5857858D01*
X35955952Y5810239D01*
X36336904Y5810239D01*
X36432142Y5857858D01*
X36479761Y5905477D01*
X36527380Y6000715D01*
X36527380Y6191191D01*
X36479761Y6286429D01*
X36432142Y6334048D01*
X36336904Y6381667D01*
X36098809Y6381667D01*
X36003571Y6334048D01*
X35955952Y6286429D01*
X35908333Y6191191D01*
X35908333Y6000715D01*
X35955952Y5905477D01*
X36003571Y5857858D01*
X36098809Y5810239D01*
X39401904Y78897620D02*
X39401904Y78088096D01*
X39449523Y77992858D01*
X39497142Y77945239D01*
X39592380Y77897620D01*
X39782857Y77897620D01*
X39878095Y77945239D01*
X39925714Y77992858D01*
X39973333Y78088096D01*
X39973333Y78897620D01*
X40973333Y77897620D02*
X40401904Y77897620D01*
X40687619Y77897620D02*
X40687619Y78897620D01*
X40592380Y78754762D01*
X40497142Y78659524D01*
X40401904Y78611905D01*
X41592380Y78897620D02*
X41687619Y78897620D01*
X41782857Y78850000D01*
X41830476Y78802381D01*
X41878095Y78707143D01*
X41925714Y78516667D01*
X41925714Y78278572D01*
X41878095Y78088096D01*
X41830476Y77992858D01*
X41782857Y77945239D01*
X41687619Y77897620D01*
X41592380Y77897620D01*
X41497142Y77945239D01*
X41449523Y77992858D01*
X41401904Y78088096D01*
X41354285Y78278572D01*
X41354285Y78516667D01*
X41401904Y78707143D01*
X41449523Y78802381D01*
X41497142Y78850000D01*
X41592380Y78897620D01*
X22242142Y81947143D02*
X22289761Y81899524D01*
X22337380Y81756667D01*
X22337380Y81661429D01*
X22289761Y81518572D01*
X22194523Y81423334D01*
X22099285Y81375715D01*
X21908809Y81328096D01*
X21765952Y81328096D01*
X21575476Y81375715D01*
X21480238Y81423334D01*
X21385000Y81518572D01*
X21337380Y81661429D01*
X21337380Y81756667D01*
X21385000Y81899524D01*
X21432619Y81947143D01*
X22337380Y82899524D02*
X22337380Y82328096D01*
X22337380Y82613810D02*
X21337380Y82613810D01*
X21480238Y82518572D01*
X21575476Y82423334D01*
X21623095Y82328096D01*
X21765952Y83470953D02*
X21718333Y83375715D01*
X21670714Y83328096D01*
X21575476Y83280477D01*
X21527857Y83280477D01*
X21432619Y83328096D01*
X21385000Y83375715D01*
X21337380Y83470953D01*
X21337380Y83661429D01*
X21385000Y83756667D01*
X21432619Y83804286D01*
X21527857Y83851905D01*
X21575476Y83851905D01*
X21670714Y83804286D01*
X21718333Y83756667D01*
X21765952Y83661429D01*
X21765952Y83470953D01*
X21813571Y83375715D01*
X21861190Y83328096D01*
X21956428Y83280477D01*
X22146904Y83280477D01*
X22242142Y83328096D01*
X22289761Y83375715D01*
X22337380Y83470953D01*
X22337380Y83661429D01*
X22289761Y83756667D01*
X22242142Y83804286D01*
X22146904Y83851905D01*
X21956428Y83851905D01*
X21861190Y83804286D01*
X21813571Y83756667D01*
X21765952Y83661429D01*
X12762142Y18843334D02*
X12809761Y18795715D01*
X12857380Y18652858D01*
X12857380Y18557620D01*
X12809761Y18414762D01*
X12714523Y18319524D01*
X12619285Y18271905D01*
X12428809Y18224286D01*
X12285952Y18224286D01*
X12095476Y18271905D01*
X12000238Y18319524D01*
X11905000Y18414762D01*
X11857380Y18557620D01*
X11857380Y18652858D01*
X11905000Y18795715D01*
X11952619Y18843334D01*
X11857380Y19176667D02*
X11857380Y19795715D01*
X12238333Y19462381D01*
X12238333Y19605239D01*
X12285952Y19700477D01*
X12333571Y19748096D01*
X12428809Y19795715D01*
X12666904Y19795715D01*
X12762142Y19748096D01*
X12809761Y19700477D01*
X12857380Y19605239D01*
X12857380Y19319524D01*
X12809761Y19224286D01*
X12762142Y19176667D01*
X50649285Y90241429D02*
X50792142Y90193810D01*
X50839761Y90146191D01*
X50887380Y90050953D01*
X50887380Y89908096D01*
X50839761Y89812858D01*
X50792142Y89765239D01*
X50696904Y89717620D01*
X50315952Y89717620D01*
X50315952Y90717620D01*
X50649285Y90717620D01*
X50744523Y90670000D01*
X50792142Y90622381D01*
X50839761Y90527143D01*
X50839761Y90431905D01*
X50792142Y90336667D01*
X50744523Y90289048D01*
X50649285Y90241429D01*
X50315952Y90241429D01*
X51173095Y90717620D02*
X51744523Y90717620D01*
X51458809Y89717620D02*
X51458809Y90717620D01*
X52601666Y89717620D02*
X52030238Y89717620D01*
X52315952Y89717620D02*
X52315952Y90717620D01*
X52220714Y90574762D01*
X52125476Y90479524D01*
X52030238Y90431905D01*
D10*
X45593095Y93202143D02*
X47116904Y93202143D01*
X46355000Y92440239D02*
X46355000Y93964048D01*
D11*
X91741666Y73362620D02*
X91741666Y72648334D01*
X91694047Y72505477D01*
X91598809Y72410239D01*
X91455952Y72362620D01*
X91360714Y72362620D01*
X92122619Y73362620D02*
X92741666Y73362620D01*
X92408333Y72981667D01*
X92551190Y72981667D01*
X92646428Y72934048D01*
X92694047Y72886429D01*
X92741666Y72791191D01*
X92741666Y72553096D01*
X92694047Y72457858D01*
X92646428Y72410239D01*
X92551190Y72362620D01*
X92265476Y72362620D01*
X92170238Y72410239D01*
X92122619Y72457858D01*
X5381666Y44572620D02*
X5381666Y43858334D01*
X5334047Y43715477D01*
X5238809Y43620239D01*
X5095952Y43572620D01*
X5000714Y43572620D01*
X6334047Y44572620D02*
X5857857Y44572620D01*
X5810238Y44096429D01*
X5857857Y44144048D01*
X5953095Y44191667D01*
X6191190Y44191667D01*
X6286428Y44144048D01*
X6334047Y44096429D01*
X6381666Y44001191D01*
X6381666Y43763096D01*
X6334047Y43667858D01*
X6286428Y43620239D01*
X6191190Y43572620D01*
X5953095Y43572620D01*
X5857857Y43620239D01*
X5810238Y43667858D01*
X9822380Y94281667D02*
X10536666Y94281667D01*
X10679523Y94234048D01*
X10774761Y94138810D01*
X10822380Y93995953D01*
X10822380Y93900715D01*
X10155714Y95186429D02*
X10822380Y95186429D01*
X9774761Y94948334D02*
X10489047Y94710239D01*
X10489047Y95329286D01*
X59352380Y94281667D02*
X60066666Y94281667D01*
X60209523Y94234048D01*
X60304761Y94138810D01*
X60352380Y93995953D01*
X60352380Y93900715D01*
X59447619Y94710239D02*
X59400000Y94757858D01*
X59352380Y94853096D01*
X59352380Y95091191D01*
X59400000Y95186429D01*
X59447619Y95234048D01*
X59542857Y95281667D01*
X59638095Y95281667D01*
X59780952Y95234048D01*
X60352380Y94662620D01*
X60352380Y95281667D01*
X67912380Y5381667D02*
X68626666Y5381667D01*
X68769523Y5334048D01*
X68864761Y5238810D01*
X68912380Y5095953D01*
X68912380Y5000715D01*
X68912380Y6381667D02*
X68912380Y5810239D01*
X68912380Y6095953D02*
X67912380Y6095953D01*
X68055238Y6000715D01*
X68150476Y5905477D01*
X68198095Y5810239D01*
X71234380Y44958096D02*
X72043904Y44958096D01*
X72139142Y45005715D01*
X72186761Y45053334D01*
X72234380Y45148572D01*
X72234380Y45339048D01*
X72186761Y45434286D01*
X72139142Y45481905D01*
X72043904Y45529524D01*
X71234380Y45529524D01*
X71567714Y46434286D02*
X72234380Y46434286D01*
X71186761Y46196191D02*
X71901047Y45958096D01*
X71901047Y46577143D01*
X5916666Y30595239D02*
X6059523Y30547620D01*
X6297619Y30547620D01*
X6392857Y30595239D01*
X6440476Y30642858D01*
X6488095Y30738096D01*
X6488095Y30833334D01*
X6440476Y30928572D01*
X6392857Y30976191D01*
X6297619Y31023810D01*
X6107142Y31071429D01*
X6011904Y31119048D01*
X5964285Y31166667D01*
X5916666Y31261905D01*
X5916666Y31357143D01*
X5964285Y31452381D01*
X6011904Y31500000D01*
X6107142Y31547620D01*
X6345238Y31547620D01*
X6488095Y31500000D01*
X6821428Y31547620D02*
X7059523Y30547620D01*
X7250000Y31261905D01*
X7440476Y30547620D01*
X7678571Y31547620D01*
X8011904Y31452381D02*
X8059523Y31500000D01*
X8154761Y31547620D01*
X8392857Y31547620D01*
X8488095Y31500000D01*
X8535714Y31452381D01*
X8583333Y31357143D01*
X8583333Y31261905D01*
X8535714Y31119048D01*
X7964285Y30547620D01*
X8583333Y30547620D01*
X14478095Y31027620D02*
X14478095Y30218096D01*
X14525714Y30122858D01*
X14573333Y30075239D01*
X14668571Y30027620D01*
X14859047Y30027620D01*
X14954285Y30075239D01*
X15001904Y30122858D01*
X15049523Y30218096D01*
X15049523Y31027620D01*
X15573333Y30027620D02*
X15763809Y30027620D01*
X15859047Y30075239D01*
X15906666Y30122858D01*
X16001904Y30265715D01*
X16049523Y30456191D01*
X16049523Y30837143D01*
X16001904Y30932381D01*
X15954285Y30980000D01*
X15859047Y31027620D01*
X15668571Y31027620D01*
X15573333Y30980000D01*
X15525714Y30932381D01*
X15478095Y30837143D01*
X15478095Y30599048D01*
X15525714Y30503810D01*
X15573333Y30456191D01*
X15668571Y30408572D01*
X15859047Y30408572D01*
X15954285Y30456191D01*
X16001904Y30503810D01*
X16049523Y30599048D01*
X77947380Y13843096D02*
X78756904Y13843096D01*
X78852142Y13890715D01*
X78899761Y13938334D01*
X78947380Y14033572D01*
X78947380Y14224048D01*
X78899761Y14319286D01*
X78852142Y14366905D01*
X78756904Y14414524D01*
X77947380Y14414524D01*
X78375952Y15033572D02*
X78328333Y14938334D01*
X78280714Y14890715D01*
X78185476Y14843096D01*
X78137857Y14843096D01*
X78042619Y14890715D01*
X77995000Y14938334D01*
X77947380Y15033572D01*
X77947380Y15224048D01*
X77995000Y15319286D01*
X78042619Y15366905D01*
X78137857Y15414524D01*
X78185476Y15414524D01*
X78280714Y15366905D01*
X78328333Y15319286D01*
X78375952Y15224048D01*
X78375952Y15033572D01*
X78423571Y14938334D01*
X78471190Y14890715D01*
X78566428Y14843096D01*
X78756904Y14843096D01*
X78852142Y14890715D01*
X78899761Y14938334D01*
X78947380Y15033572D01*
X78947380Y15224048D01*
X78899761Y15319286D01*
X78852142Y15366905D01*
X78756904Y15414524D01*
X78566428Y15414524D01*
X78471190Y15366905D01*
X78423571Y15319286D01*
X78375952Y15224048D01*
X89152380Y13738096D02*
X89961904Y13738096D01*
X90057142Y13785715D01*
X90104761Y13833334D01*
X90152380Y13928572D01*
X90152380Y14119048D01*
X90104761Y14214286D01*
X90057142Y14261905D01*
X89961904Y14309524D01*
X89152380Y14309524D01*
X89152380Y14690477D02*
X89152380Y15357143D01*
X90152380Y14928572D01*
X71452380Y83693096D02*
X72261904Y83693096D01*
X72357142Y83740715D01*
X72404761Y83788334D01*
X72452380Y83883572D01*
X72452380Y84074048D01*
X72404761Y84169286D01*
X72357142Y84216905D01*
X72261904Y84264524D01*
X71452380Y84264524D01*
X71452380Y85169286D02*
X71452380Y84978810D01*
X71500000Y84883572D01*
X71547619Y84835953D01*
X71690476Y84740715D01*
X71880952Y84693096D01*
X72261904Y84693096D01*
X72357142Y84740715D01*
X72404761Y84788334D01*
X72452380Y84883572D01*
X72452380Y85074048D01*
X72404761Y85169286D01*
X72357142Y85216905D01*
X72261904Y85264524D01*
X72023809Y85264524D01*
X71928571Y85216905D01*
X71880952Y85169286D01*
X71833333Y85074048D01*
X71833333Y84883572D01*
X71880952Y84788334D01*
X71928571Y84740715D01*
X72023809Y84693096D01*
X60022380Y83693096D02*
X60831904Y83693096D01*
X60927142Y83740715D01*
X60974761Y83788334D01*
X61022380Y83883572D01*
X61022380Y84074048D01*
X60974761Y84169286D01*
X60927142Y84216905D01*
X60831904Y84264524D01*
X60022380Y84264524D01*
X60022380Y85216905D02*
X60022380Y84740715D01*
X60498571Y84693096D01*
X60450952Y84740715D01*
X60403333Y84835953D01*
X60403333Y85074048D01*
X60450952Y85169286D01*
X60498571Y85216905D01*
X60593809Y85264524D01*
X60831904Y85264524D01*
X60927142Y85216905D01*
X60974761Y85169286D01*
X61022380Y85074048D01*
X61022380Y84835953D01*
X60974761Y84740715D01*
X60927142Y84693096D01*
M02*
