M48
; DRILL file {KiCad (5.1.9)-1} date 09/19/21 14:37:13
; FORMAT={3:3/ absolute / metric / suppress leading zeros}
; #@! TF.CreationDate,2021-09-19T14:37:13+09:00
; #@! TF.GenerationSoftware,Kicad,Pcbnew,(5.1.9)-1
FMAT,2
METRIC,TZ
T1C0.300
T2C0.500
T3C0.800
T4C0.900
T5C1.000
T6C1.100
T7C1.300
T8C3.200
%
G90
G05
T1
X2540Y67310
X6985Y2540
X9525Y97790
X11430Y40640
X13335Y26035
X14605Y38735
X15875Y53340
X17145Y51376
X17145Y46355
X17780Y47625
X17780Y30480
X19071Y44450
X19077Y48425
X20320Y50800
X20955Y66675
X21590Y88900
X21590Y72390
X21590Y51435
X21590Y47625
X21590Y45085
X22225Y71755
X22860Y30480
X23495Y44450
X24130Y55245
X24765Y60960
X26035Y34925
X27305Y89535
X27940Y83820
X28575Y59055
X28575Y55245
X28575Y21590
X29210Y81915
X29210Y67310
X29269Y71755
X29845Y73660
X30480Y2540
X31115Y83820
X31115Y81915
X31750Y57150
X32385Y86995
X33020Y97790
X33020Y60960
X36195Y84455
X36195Y66040
X36195Y56497
X37465Y75565
X38735Y35560
X39370Y57785
X39370Y38100
X40005Y58420
X40005Y34290
X40005Y12700
X40640Y59055
X40640Y53975
X40640Y35560
X41275Y59690
X41275Y38800
X41910Y60325
X41910Y52070
X42545Y60960
X42545Y39370
X43180Y61595
X43180Y40005
X43815Y62230
X43815Y33020
X44450Y62865
X44450Y32385
X44450Y21590
X45069Y31750
X45085Y63500
X45720Y64100
X45720Y52070
X45720Y31116
X46355Y64770
X46355Y40640
X46990Y51435
X46990Y47625
X46990Y38100
X46990Y65405
X47625Y66040
X47625Y58420
X47627Y30508
X48260Y66675
X48264Y29845
X48895Y67310
X48895Y29210
X49530Y28575
X49530Y41275
X50165Y41910
X50800Y50800
X50800Y42545
X51435Y78105
X51435Y50165
X51435Y43180
X52070Y49530
X54645Y43145
X55245Y52070
X55880Y41910
X55880Y38100
X56515Y42545
X57150Y40640
X57150Y15875
X57802Y65388
X57802Y41258
X58420Y95250
X58725Y13000
X59690Y59055
X59690Y38800
X60325Y59690
X60960Y39370
X60960Y60325
X61595Y60960
X61595Y40005
X62230Y27940
X62230Y61595
X62865Y62230
X62865Y27305
X63500Y62865
X63500Y26670
X64135Y40640
X64135Y63500
X64135Y52070
X64135Y26035
X65405Y51435
X65405Y58420
X65405Y47625
X65405Y38100
X65405Y25400
X65405Y21590
X66040Y64135
X66040Y24765
X66675Y64770
X66675Y24130
X66675Y8890
X67310Y65405
X67310Y23495
X67945Y66040
X67945Y41275
X68580Y66675
X68580Y41910
X69215Y50800
X69215Y42545
X69250Y67275
X69850Y50165
X69850Y43180
X70485Y49530
X71120Y84455
X71120Y81915
X72497Y33020
X73025Y32385
X73660Y66675
X73660Y40005
X73660Y31750
X74295Y66040
X74295Y45085
X74295Y31115
X74930Y65405
X74930Y44450
X74930Y30480
X75565Y64770
X75565Y29845
X76179Y29210
X76200Y64135
X76835Y63500
X76835Y28575
X77470Y62865
X78105Y67310
X79375Y20320
X80010Y59055
X80645Y59690
X81280Y60325
X81280Y2540
X81915Y60960
X81915Y55880
X82550Y61595
X83185Y27940
X83185Y62230
X83820Y27305
X84455Y26670
X85125Y26039
X85725Y25400
X86425Y24775
X87082Y24129
X87759Y23495
X88900Y44450
X89128Y23648
X91110Y5715
X91440Y27940
X92710Y2540
T2
X45720Y83180
X45720Y81280
T3
X14605Y21510
X14605Y16510
X19685Y85090
X19685Y80090
T4
X19050Y21590
X19050Y13970
T5
X4445Y64135
X4445Y61595
X4445Y59055
X4445Y56515
X4445Y53975
X4445Y51435
X4445Y48895
X4445Y46355
X6985Y64135
X6985Y61595
X6985Y59055
X6985Y56515
X6985Y53975
X6985Y51435
X6985Y48895
X6985Y46355
X12700Y95885
X12700Y93345
X15240Y95885
X15240Y93345
X17780Y95885
X17780Y93345
X20320Y95885
X20320Y93345
X22860Y95885
X22860Y93345
X25400Y95885
X25400Y93345
X27940Y95885
X27940Y93345
X30480Y95885
X30480Y93345
X38405Y6985
X38405Y4445
X40945Y6985
X40945Y4445
X43485Y6985
X43485Y4445
X49835Y6985
X49835Y4445
X52375Y6985
X52375Y4445
X54915Y6985
X54915Y4445
X57455Y6985
X57455Y4445
X59995Y6985
X59995Y4445
X62230Y95885
X62230Y93345
X62535Y6985
X62535Y4445
X64770Y95885
X64770Y93345
X67310Y95885
X67310Y93345
X69850Y95885
X69850Y93345
X70790Y6985
X70790Y4445
X72390Y95885
X72390Y93345
X73330Y6985
X73330Y4445
X74930Y95885
X74930Y93345
X75870Y6985
X75870Y4445
X77470Y95885
X77470Y93345
X78410Y6985
X78410Y4445
X80010Y95885
X80010Y93345
X80950Y6985
X80950Y4445
X83490Y6985
X83490Y4445
X86030Y6985
X86030Y4445
X88570Y6985
X88570Y4445
X90805Y70485
X90805Y67945
X90805Y65405
X90805Y62865
X90805Y60325
X93345Y70485
X93345Y67945
X93345Y65405
X93345Y62865
X93345Y60325
T6
X4000Y29000
X4000Y24500
X4000Y15500
X4000Y11000
X10500Y29000
X10500Y24500
X10500Y15500
X10500Y11000
T7
X41435Y93395
X46435Y96795
X51435Y93395
T8
X3000Y97000
X3000Y3000
X31000Y44500
X97000Y97000
X97000Y3000
T5
G00X86360Y84090
M15
G01X86360Y86090
M16
G05
G00X90360Y89790
M15
G01X88360Y89790
M16
G05
G00X92360Y84090
M15
G01X92360Y86090
M16
G05
T0
M30
