M48
; DRILL file {KiCad (5.1.9)-1} date 08/21/21 09:49:26
; FORMAT={3:3/ absolute / metric / suppress leading zeros}
; #@! TF.CreationDate,2021-08-21T09:49:26+09:00
; #@! TF.GenerationSoftware,Kicad,Pcbnew,(5.1.9)-1
FMAT,2
METRIC,TZ
T1C0.300
T2C0.800
T3C0.890
T4C0.900
T5C1.000
T6C2.600
T7C3.200
%
G90
G05
T1
X1905Y53340
X2540Y34925
X7685Y65405
X9525Y52705
X10000Y65405
X10160Y55880
X10795Y33655
X11430Y24765
X12000Y65405
X12065Y55880
X12700Y53340
X13335Y36170
X13970Y38735
X14401Y35496
X14605Y38100
X15875Y65405
X17000Y65440
X17718Y39276
X18415Y66040
X18562Y41701
X19050Y52705
X19050Y47746
X19527Y31909
X19824Y40956
X20178Y34941
X20320Y24765
X20320Y16510
X20432Y37831
X22860Y17780
X23981Y26922
X24765Y36156
X26670Y19685
X27940Y36830
X27940Y29845
X28575Y34290
X30190Y29831
X30546Y33163
X34925Y34925
X37465Y15240
X38100Y19685
X38735Y13335
T2
X13335Y62865
X13970Y25400
X13970Y17780
X13970Y13970
X13970Y6350
X18415Y22225
X18415Y14605
X18415Y11350
X18415Y6350
X20955Y62865
X22860Y9525
X22860Y4525
X24765Y59690
X24765Y52070
X25400Y68580
X25400Y63580
X29845Y59690
X29845Y52070
X30480Y22860
X35480Y22860
X39370Y10795
X39370Y5795
X40640Y40640
X40640Y35760
X41275Y24685
X41275Y19685
T3
X37465Y58420
X37465Y56388
X37465Y54356
X37465Y52324
X40005Y57404
X40005Y55372
X40005Y53340
X40005Y51308
T4
X30480Y68580
X30480Y66040
X36195Y68580
X36195Y66040
T5
X4445Y61595
X4445Y59055
X4445Y56515
X4445Y50165
X4445Y47625
X4445Y45085
X4445Y42545
X4445Y40005
X4445Y37465
X4445Y29210
X4445Y26670
X4445Y24130
X4445Y21590
X4445Y19050
X4445Y16510
X4445Y13970
X4445Y11430
X6985Y61595
X6985Y59055
X6985Y56515
X6985Y50165
X6985Y47625
X6985Y45085
X6985Y42545
X6985Y40005
X6985Y37465
X6985Y29210
X6985Y26670
X6985Y24130
X6985Y21590
X6985Y19050
X6985Y16510
X6985Y13970
X6985Y11430
X37465Y62965
X37465Y46715
T6
X42305Y62240
X42305Y47440
T7
X3000Y69000
X3000Y3000
X44000Y69000
X44000Y3000
T0
M30
