G04 #@! TF.GenerationSoftware,KiCad,Pcbnew,(5.1.9)-1*
G04 #@! TF.CreationDate,2021-08-21T09:49:19+09:00*
G04 #@! TF.ProjectId,DragonOne_lan_rev02,44726167-6f6e-44f6-9e65-5f6c616e5f72,rev?*
G04 #@! TF.SameCoordinates,PX7cee6c0PY80befc0*
G04 #@! TF.FileFunction,Copper,L2,Bot*
G04 #@! TF.FilePolarity,Positive*
%FSLAX46Y46*%
G04 Gerber Fmt 4.6, Leading zero omitted, Abs format (unit mm)*
G04 Created by KiCad (PCBNEW (5.1.9)-1) date 2021-08-21 09:49:19*
%MOMM*%
%LPD*%
G01*
G04 APERTURE LIST*
G04 #@! TA.AperFunction,ComponentPad*
%ADD10C,1.800000*%
G04 #@! TD*
G04 #@! TA.AperFunction,ComponentPad*
%ADD11C,1.500000*%
G04 #@! TD*
G04 #@! TA.AperFunction,ComponentPad*
%ADD12R,1.500000X1.500000*%
G04 #@! TD*
G04 #@! TA.AperFunction,ComponentPad*
%ADD13O,1.700000X1.700000*%
G04 #@! TD*
G04 #@! TA.AperFunction,ComponentPad*
%ADD14R,1.700000X1.700000*%
G04 #@! TD*
G04 #@! TA.AperFunction,ComponentPad*
%ADD15R,1.800000X1.800000*%
G04 #@! TD*
G04 #@! TA.AperFunction,ComponentPad*
%ADD16O,1.600000X1.600000*%
G04 #@! TD*
G04 #@! TA.AperFunction,ComponentPad*
%ADD17C,1.600000*%
G04 #@! TD*
G04 #@! TA.AperFunction,ViaPad*
%ADD18C,0.600000*%
G04 #@! TD*
G04 #@! TA.AperFunction,Conductor*
%ADD19C,0.200000*%
G04 #@! TD*
G04 #@! TA.AperFunction,Conductor*
%ADD20C,0.254000*%
G04 #@! TD*
G04 #@! TA.AperFunction,Conductor*
%ADD21C,0.100000*%
G04 #@! TD*
G04 APERTURE END LIST*
D10*
X37465000Y62965000D03*
X37465000Y46715000D03*
D11*
X40005000Y51308000D03*
X40005000Y53340000D03*
X40005000Y55372000D03*
X40005000Y57404000D03*
X37465000Y52324000D03*
X37465000Y54356000D03*
X37465000Y56388000D03*
D12*
X37465000Y58420000D03*
D13*
X6985000Y56515000D03*
X4445000Y56515000D03*
X6985000Y59055000D03*
X4445000Y59055000D03*
X6985000Y61595000D03*
D14*
X4445000Y61595000D03*
D13*
X6985000Y37465000D03*
X4445000Y37465000D03*
X6985000Y40005000D03*
X4445000Y40005000D03*
X6985000Y42545000D03*
X4445000Y42545000D03*
X6985000Y45085000D03*
X4445000Y45085000D03*
X6985000Y47625000D03*
X4445000Y47625000D03*
X6985000Y50165000D03*
D14*
X4445000Y50165000D03*
D10*
X30480000Y68580000D03*
D15*
X30480000Y66040000D03*
D10*
X36195000Y68580000D03*
D15*
X36195000Y66040000D03*
D11*
X40640000Y35760000D03*
X40640000Y40640000D03*
D16*
X13970000Y25400000D03*
D17*
X13970000Y17780000D03*
D16*
X18415000Y14605000D03*
D17*
X18415000Y22225000D03*
D16*
X13970000Y6350000D03*
D17*
X13970000Y13970000D03*
D16*
X13335000Y62865000D03*
D17*
X20955000Y62865000D03*
D16*
X29845000Y59690000D03*
D17*
X29845000Y52070000D03*
D16*
X24765000Y59690000D03*
D17*
X24765000Y52070000D03*
D13*
X6985000Y11430000D03*
X4445000Y11430000D03*
X6985000Y13970000D03*
X4445000Y13970000D03*
X6985000Y16510000D03*
X4445000Y16510000D03*
X6985000Y19050000D03*
X4445000Y19050000D03*
X6985000Y21590000D03*
X4445000Y21590000D03*
X6985000Y24130000D03*
X4445000Y24130000D03*
X6985000Y26670000D03*
X4445000Y26670000D03*
X6985000Y29210000D03*
D14*
X4445000Y29210000D03*
D17*
X18415000Y11350000D03*
X18415000Y6350000D03*
X22860000Y4525000D03*
X22860000Y9525000D03*
X35480000Y22860000D03*
X30480000Y22860000D03*
X39370000Y5795000D03*
X39370000Y10795000D03*
X41275000Y24685000D03*
X41275000Y19685000D03*
X25400000Y63580000D03*
X25400000Y68580000D03*
D18*
X22859938Y17780000D03*
X26670000Y19685000D03*
X27940000Y29845000D03*
X28575000Y34290010D03*
X27940000Y36830000D03*
X20320000Y24765000D03*
X10795000Y33655000D03*
X2540000Y34925000D03*
X30190400Y29830800D03*
X10160000Y55880000D03*
X7685010Y65405000D03*
X15875000Y65405000D03*
X9525000Y52705000D03*
X38100000Y19685000D03*
X38735028Y13335000D03*
X37465000Y15240020D03*
X34924995Y34924995D03*
X12065000Y55880000D03*
X10000000Y65405008D03*
X18415000Y66040000D03*
X1905000Y53340000D03*
X30546200Y33163000D03*
X20178400Y34940500D03*
X20432000Y37830900D03*
X19526500Y31908500D03*
X11430000Y24765000D03*
X19823900Y40956100D03*
X18562000Y41701300D03*
X14401164Y35496218D03*
X17718200Y39276400D03*
X13334986Y36170100D03*
X14605000Y38100000D03*
X13970000Y38735006D03*
X20320000Y16510000D03*
X24764988Y36155801D03*
X19050000Y47745500D03*
X19050000Y52705000D03*
X23981125Y26922075D03*
X17000000Y65439990D03*
X12700000Y53340000D03*
X12000018Y65405000D03*
D19*
X13970000Y17780000D02*
X22859938Y17780000D01*
X13970000Y25400000D02*
X13970000Y22860000D01*
X17145000Y19685000D02*
X26670000Y19685000D01*
X13970000Y22860000D02*
X17145000Y19685000D01*
X27940000Y29845000D02*
X27940000Y33655010D01*
X27940000Y33655010D02*
X28575000Y34290010D01*
X28575000Y34290010D02*
X27940000Y34925010D01*
X27940000Y34925010D02*
X27940000Y36830000D01*
X21035000Y62945000D02*
X20955000Y62865000D01*
X21670000Y62945000D02*
X21035000Y62945000D01*
X24685000Y62865000D02*
X25400000Y63580000D01*
X20955000Y62865000D02*
X24685000Y62865000D01*
X27305000Y60325000D02*
X25400000Y62230000D01*
X27305000Y57785000D02*
X27305000Y60325000D01*
X33655000Y51435000D02*
X27305000Y57785000D01*
X25400000Y62230000D02*
X25400000Y63580000D01*
X33655000Y38395680D02*
X33655000Y51435000D01*
X32087923Y36828603D02*
X33655000Y38395680D01*
X32087923Y31728323D02*
X32087923Y36828603D01*
X30190400Y29830800D02*
X32087923Y31728323D01*
X10160000Y55880000D02*
X10160000Y62930010D01*
X10160000Y62930010D02*
X7685010Y65405000D01*
X15875000Y65405000D02*
X15875000Y54954998D01*
X15875000Y54954998D02*
X13625002Y52705000D01*
X13625002Y52705000D02*
X9525000Y52705000D01*
X38735000Y52070000D02*
X40005000Y53340000D01*
X38735000Y49641999D02*
X38735000Y52070000D01*
X39370000Y49006999D02*
X38735000Y49641999D01*
X39370000Y44080000D02*
X39370000Y49006999D01*
X38100000Y42810000D02*
X39370000Y44080000D01*
X38100000Y19685000D02*
X38100000Y42810000D01*
X40005000Y43595000D02*
X38735028Y42325028D01*
X40005000Y48465000D02*
X40005000Y43595000D01*
X38735028Y42325028D02*
X38735028Y13335000D01*
X41275000Y49735000D02*
X40005000Y48465000D01*
X41275000Y56134000D02*
X41275000Y49735000D01*
X40005000Y57404000D02*
X41275000Y56134000D01*
X37465000Y56388000D02*
X37016500Y56388000D01*
X36703000Y56388000D02*
X37465000Y56388000D01*
X35560000Y55245000D02*
X36703000Y56388000D01*
X35560000Y43815000D02*
X35560000Y55245000D01*
X36830000Y42545000D02*
X35560000Y43815000D01*
X36830000Y26670000D02*
X36830000Y42545000D01*
X37465000Y26035000D02*
X36830000Y26670000D01*
X37465000Y15240020D02*
X37465000Y26035000D01*
X37465000Y57785000D02*
X37465000Y58420000D01*
X34925000Y34925000D02*
X34925000Y57150000D01*
X34925000Y57150000D02*
X36195000Y58420000D01*
X36195000Y58420000D02*
X37465000Y58420000D01*
X11430000Y63975008D02*
X10000000Y65405008D01*
X11430000Y56515000D02*
X11430000Y63975008D01*
X12065000Y55880000D02*
X11430000Y56515000D01*
X1905000Y53340000D02*
X1905000Y62865000D01*
X1905000Y62865000D02*
X3175000Y64135000D01*
X5341994Y64135000D02*
X7246994Y66040000D01*
X7246994Y66040000D02*
X10160000Y66040000D01*
X3175000Y64135000D02*
X5341994Y64135000D01*
X9795100Y66040000D02*
X18415000Y66040000D01*
X17936700Y41960300D02*
X18314500Y42338100D01*
X15026165Y35271965D02*
X18387700Y38633500D01*
X15026165Y35196217D02*
X15026165Y35271965D01*
X18387700Y38633500D02*
X18387700Y40991300D01*
X18314500Y42338100D02*
X24335490Y42338100D01*
X4445000Y37465000D02*
X7063600Y34846400D01*
X18387700Y40991300D02*
X17936700Y41442300D01*
X17936700Y41442300D02*
X17936700Y41960300D01*
X30546200Y36127390D02*
X30546200Y33587264D01*
X24335490Y42338100D02*
X30546200Y36127390D01*
X14676348Y34846400D02*
X15026165Y35196217D01*
X30546200Y33587264D02*
X30546200Y33163000D01*
X7063600Y34846400D02*
X14676348Y34846400D01*
X6985000Y21747100D02*
X6985000Y21590000D01*
X20178400Y34940500D02*
X6985000Y21747100D01*
X7417002Y22860000D02*
X5715000Y22860000D01*
X8255000Y23697998D02*
X7417002Y22860000D01*
X5715000Y22860000D02*
X4445000Y21590000D01*
X8255000Y25229636D02*
X8255000Y23697998D01*
X20432000Y37406636D02*
X8255000Y25229636D01*
X20432000Y37830900D02*
X20432000Y37406636D01*
X19526500Y31908500D02*
X18573500Y31908500D01*
X18573500Y31908500D02*
X11430000Y24765000D01*
X19823900Y40531836D02*
X19823900Y40956100D01*
X13710349Y31563449D02*
X19823900Y37677000D01*
X13710349Y31559649D02*
X13710349Y31563449D01*
X7550700Y25400000D02*
X13710349Y31559649D01*
X19823900Y37677000D02*
X19823900Y40531836D01*
X5715000Y25400000D02*
X7550700Y25400000D01*
X4445000Y24130000D02*
X5715000Y25400000D01*
X8187081Y26670000D02*
X6985000Y26670000D01*
X18861999Y37344918D02*
X8187081Y26670000D01*
X18861999Y41401301D02*
X18861999Y37344918D01*
X18562000Y41701300D02*
X18861999Y41401301D01*
X13970000Y36195000D02*
X14401164Y35763836D01*
X7465600Y43815000D02*
X13970000Y37310600D01*
X6350000Y43815000D02*
X7465600Y43815000D01*
X14401164Y35763836D02*
X14401164Y35496218D01*
X5715000Y44450000D02*
X6350000Y43815000D01*
X5715000Y46355000D02*
X5715000Y44450000D01*
X13970000Y37310600D02*
X13970000Y36195000D01*
X4445000Y47625000D02*
X5715000Y46355000D01*
X13874999Y43275001D02*
X13874999Y42695337D01*
X17293936Y39276400D02*
X17718200Y39276400D01*
X6985000Y50165000D02*
X13874999Y43275001D01*
X13874999Y42695337D02*
X17293936Y39276400D01*
X12855200Y36170100D02*
X13334986Y36170100D01*
X7750300Y41275000D02*
X12855200Y36170100D01*
X3834000Y41275000D02*
X7750300Y41275000D01*
X3810000Y41299000D02*
X3834000Y41275000D01*
X3810000Y41275000D02*
X3810000Y41299000D01*
X3000000Y42085000D02*
X3810000Y41275000D01*
X3000000Y49500000D02*
X3000000Y42085000D01*
X3665000Y50165000D02*
X3000000Y49500000D01*
X4445000Y50165000D02*
X3665000Y50165000D01*
X14605000Y40005000D02*
X14605000Y38100000D01*
X6985000Y47625000D02*
X14605000Y40005000D01*
X13334994Y38735006D02*
X13970000Y38735006D01*
X6985000Y45085000D02*
X13334994Y38735006D01*
X13970000Y13970000D02*
X14460900Y13479100D01*
X13970000Y13970000D02*
X16510000Y16510000D01*
X16510000Y16510000D02*
X20320000Y16510000D01*
X18415000Y22225000D02*
X18415000Y29805813D01*
X18415000Y29805813D02*
X24764988Y36155801D01*
X31607400Y32242400D02*
X26287075Y26922075D01*
X31607400Y35994013D02*
X31607400Y32242400D01*
X19855913Y47745500D02*
X31607400Y35994013D01*
X26287075Y26922075D02*
X23981125Y26922075D01*
X19050000Y47745500D02*
X19855913Y47745500D01*
X19050000Y52705000D02*
X19050000Y63389990D01*
X19050000Y63389990D02*
X17000000Y65439990D01*
X12700000Y53340000D02*
X12700000Y56170002D01*
X12700000Y56170002D02*
X12000018Y56869984D01*
X12000018Y56869984D02*
X12000018Y65405000D01*
D20*
X46290000Y710000D02*
X710000Y710000D01*
X710000Y3220128D01*
X765000Y3220128D01*
X765000Y2779872D01*
X850890Y2348075D01*
X1019369Y1941331D01*
X1263962Y1575271D01*
X1575271Y1263962D01*
X1941331Y1019369D01*
X2348075Y850890D01*
X2779872Y765000D01*
X3220128Y765000D01*
X3651925Y850890D01*
X4058669Y1019369D01*
X4424729Y1263962D01*
X4736038Y1575271D01*
X4980631Y1941331D01*
X5149110Y2348075D01*
X5235000Y2779872D01*
X5235000Y3220128D01*
X5172906Y3532298D01*
X22046903Y3532298D01*
X22118486Y3288329D01*
X22373996Y3167429D01*
X22648184Y3098700D01*
X22930512Y3084783D01*
X23210130Y3126213D01*
X23472743Y3220128D01*
X41765000Y3220128D01*
X41765000Y2779872D01*
X41850890Y2348075D01*
X42019369Y1941331D01*
X42263962Y1575271D01*
X42575271Y1263962D01*
X42941331Y1019369D01*
X43348075Y850890D01*
X43779872Y765000D01*
X44220128Y765000D01*
X44651925Y850890D01*
X45058669Y1019369D01*
X45424729Y1263962D01*
X45736038Y1575271D01*
X45980631Y1941331D01*
X46149110Y2348075D01*
X46235000Y2779872D01*
X46235000Y3220128D01*
X46149110Y3651925D01*
X45980631Y4058669D01*
X45736038Y4424729D01*
X45424729Y4736038D01*
X45058669Y4980631D01*
X44651925Y5149110D01*
X44220128Y5235000D01*
X43779872Y5235000D01*
X43348075Y5149110D01*
X42941331Y4980631D01*
X42575271Y4736038D01*
X42263962Y4424729D01*
X42019369Y4058669D01*
X41850890Y3651925D01*
X41765000Y3220128D01*
X23472743Y3220128D01*
X23476292Y3221397D01*
X23601514Y3288329D01*
X23673097Y3532298D01*
X22860000Y4345395D01*
X22046903Y3532298D01*
X5172906Y3532298D01*
X5149110Y3651925D01*
X4980631Y4058669D01*
X4736038Y4424729D01*
X4706279Y4454488D01*
X21419783Y4454488D01*
X21461213Y4174870D01*
X21556397Y3908708D01*
X21623329Y3783486D01*
X21867298Y3711903D01*
X22680395Y4525000D01*
X23039605Y4525000D01*
X23852702Y3711903D01*
X24096671Y3783486D01*
X24217571Y4038996D01*
X24286300Y4313184D01*
X24300217Y4595512D01*
X24269579Y4802298D01*
X38556903Y4802298D01*
X38628486Y4558329D01*
X38883996Y4437429D01*
X39158184Y4368700D01*
X39440512Y4354783D01*
X39720130Y4396213D01*
X39986292Y4491397D01*
X40111514Y4558329D01*
X40183097Y4802298D01*
X39370000Y5615395D01*
X38556903Y4802298D01*
X24269579Y4802298D01*
X24258787Y4875130D01*
X24163603Y5141292D01*
X24096671Y5266514D01*
X23852702Y5338097D01*
X23039605Y4525000D01*
X22680395Y4525000D01*
X21867298Y5338097D01*
X21623329Y5266514D01*
X21502429Y5011004D01*
X21433700Y4736816D01*
X21419783Y4454488D01*
X4706279Y4454488D01*
X4424729Y4736038D01*
X4058669Y4980631D01*
X3651925Y5149110D01*
X3220128Y5235000D01*
X2779872Y5235000D01*
X2348075Y5149110D01*
X1941331Y4980631D01*
X1575271Y4736038D01*
X1263962Y4424729D01*
X1019369Y4058669D01*
X850890Y3651925D01*
X765000Y3220128D01*
X710000Y3220128D01*
X710000Y6491335D01*
X12535000Y6491335D01*
X12535000Y6208665D01*
X12590147Y5931426D01*
X12698320Y5670273D01*
X12855363Y5435241D01*
X13055241Y5235363D01*
X13290273Y5078320D01*
X13551426Y4970147D01*
X13828665Y4915000D01*
X14111335Y4915000D01*
X14388574Y4970147D01*
X14649727Y5078320D01*
X14884759Y5235363D01*
X15084637Y5435241D01*
X15241680Y5670273D01*
X15349853Y5931426D01*
X15405000Y6208665D01*
X15405000Y6491335D01*
X16980000Y6491335D01*
X16980000Y6208665D01*
X17035147Y5931426D01*
X17143320Y5670273D01*
X17300363Y5435241D01*
X17500241Y5235363D01*
X17735273Y5078320D01*
X17996426Y4970147D01*
X18273665Y4915000D01*
X18556335Y4915000D01*
X18833574Y4970147D01*
X19094727Y5078320D01*
X19329759Y5235363D01*
X19529637Y5435241D01*
X19584735Y5517702D01*
X22046903Y5517702D01*
X22860000Y4704605D01*
X23673097Y5517702D01*
X23612424Y5724488D01*
X37929783Y5724488D01*
X37971213Y5444870D01*
X38066397Y5178708D01*
X38133329Y5053486D01*
X38377298Y4981903D01*
X39190395Y5795000D01*
X39549605Y5795000D01*
X40362702Y4981903D01*
X40606671Y5053486D01*
X40727571Y5308996D01*
X40796300Y5583184D01*
X40810217Y5865512D01*
X40768787Y6145130D01*
X40673603Y6411292D01*
X40606671Y6536514D01*
X40362702Y6608097D01*
X39549605Y5795000D01*
X39190395Y5795000D01*
X38377298Y6608097D01*
X38133329Y6536514D01*
X38012429Y6281004D01*
X37943700Y6006816D01*
X37929783Y5724488D01*
X23612424Y5724488D01*
X23601514Y5761671D01*
X23346004Y5882571D01*
X23071816Y5951300D01*
X22789488Y5965217D01*
X22509870Y5923787D01*
X22243708Y5828603D01*
X22118486Y5761671D01*
X22046903Y5517702D01*
X19584735Y5517702D01*
X19686680Y5670273D01*
X19794853Y5931426D01*
X19850000Y6208665D01*
X19850000Y6491335D01*
X19794853Y6768574D01*
X19786930Y6787702D01*
X38556903Y6787702D01*
X39370000Y5974605D01*
X40183097Y6787702D01*
X40111514Y7031671D01*
X39856004Y7152571D01*
X39581816Y7221300D01*
X39299488Y7235217D01*
X39019870Y7193787D01*
X38753708Y7098603D01*
X38628486Y7031671D01*
X38556903Y6787702D01*
X19786930Y6787702D01*
X19686680Y7029727D01*
X19529637Y7264759D01*
X19329759Y7464637D01*
X19094727Y7621680D01*
X18833574Y7729853D01*
X18556335Y7785000D01*
X18273665Y7785000D01*
X17996426Y7729853D01*
X17735273Y7621680D01*
X17500241Y7464637D01*
X17300363Y7264759D01*
X17143320Y7029727D01*
X17035147Y6768574D01*
X16980000Y6491335D01*
X15405000Y6491335D01*
X15349853Y6768574D01*
X15241680Y7029727D01*
X15084637Y7264759D01*
X14884759Y7464637D01*
X14649727Y7621680D01*
X14388574Y7729853D01*
X14111335Y7785000D01*
X13828665Y7785000D01*
X13551426Y7729853D01*
X13290273Y7621680D01*
X13055241Y7464637D01*
X12855363Y7264759D01*
X12698320Y7029727D01*
X12590147Y6768574D01*
X12535000Y6491335D01*
X710000Y6491335D01*
X710000Y9666335D01*
X21425000Y9666335D01*
X21425000Y9383665D01*
X21480147Y9106426D01*
X21588320Y8845273D01*
X21745363Y8610241D01*
X21945241Y8410363D01*
X22180273Y8253320D01*
X22441426Y8145147D01*
X22718665Y8090000D01*
X23001335Y8090000D01*
X23278574Y8145147D01*
X23539727Y8253320D01*
X23774759Y8410363D01*
X23974637Y8610241D01*
X24131680Y8845273D01*
X24239853Y9106426D01*
X24295000Y9383665D01*
X24295000Y9666335D01*
X24239853Y9943574D01*
X24131680Y10204727D01*
X23974637Y10439759D01*
X23774759Y10639637D01*
X23539727Y10796680D01*
X23278574Y10904853D01*
X23120306Y10936335D01*
X37935000Y10936335D01*
X37935000Y10653665D01*
X37990147Y10376426D01*
X38098320Y10115273D01*
X38255363Y9880241D01*
X38455241Y9680363D01*
X38690273Y9523320D01*
X38951426Y9415147D01*
X39228665Y9360000D01*
X39511335Y9360000D01*
X39788574Y9415147D01*
X40049727Y9523320D01*
X40284759Y9680363D01*
X40484637Y9880241D01*
X40641680Y10115273D01*
X40749853Y10376426D01*
X40805000Y10653665D01*
X40805000Y10936335D01*
X40749853Y11213574D01*
X40641680Y11474727D01*
X40484637Y11709759D01*
X40284759Y11909637D01*
X40049727Y12066680D01*
X39788574Y12174853D01*
X39511335Y12230000D01*
X39228665Y12230000D01*
X38951426Y12174853D01*
X38690273Y12066680D01*
X38455241Y11909637D01*
X38255363Y11709759D01*
X38098320Y11474727D01*
X37990147Y11213574D01*
X37935000Y10936335D01*
X23120306Y10936335D01*
X23001335Y10960000D01*
X22718665Y10960000D01*
X22441426Y10904853D01*
X22180273Y10796680D01*
X21945241Y10639637D01*
X21745363Y10439759D01*
X21588320Y10204727D01*
X21480147Y9943574D01*
X21425000Y9666335D01*
X710000Y9666335D01*
X710000Y53432089D01*
X970000Y53432089D01*
X970000Y53247911D01*
X1005932Y53067271D01*
X1076414Y52897111D01*
X1178738Y52743972D01*
X1308972Y52613738D01*
X1462111Y52511414D01*
X1632271Y52440932D01*
X1812911Y52405000D01*
X1997089Y52405000D01*
X2177729Y52440932D01*
X2347889Y52511414D01*
X2501028Y52613738D01*
X2631262Y52743972D01*
X2733586Y52897111D01*
X2804068Y53067271D01*
X2840000Y53247911D01*
X2840000Y53432089D01*
X2804068Y53612729D01*
X2733586Y53782889D01*
X2640000Y53922951D01*
X2640000Y56158110D01*
X3003524Y56158110D01*
X3048175Y56010901D01*
X3173359Y55748080D01*
X3347412Y55514731D01*
X3563645Y55319822D01*
X3813748Y55170843D01*
X4088109Y55073519D01*
X4318000Y55194186D01*
X4318000Y56388000D01*
X4572000Y56388000D01*
X4572000Y55194186D01*
X4801891Y55073519D01*
X5076252Y55170843D01*
X5326355Y55319822D01*
X5542588Y55514731D01*
X5715000Y55745880D01*
X5887412Y55514731D01*
X6103645Y55319822D01*
X6353748Y55170843D01*
X6628109Y55073519D01*
X6858000Y55194186D01*
X6858000Y56388000D01*
X7112000Y56388000D01*
X7112000Y55194186D01*
X7341891Y55073519D01*
X7616252Y55170843D01*
X7866355Y55319822D01*
X8082588Y55514731D01*
X8256641Y55748080D01*
X8381825Y56010901D01*
X8426476Y56158110D01*
X8305155Y56388000D01*
X7112000Y56388000D01*
X6858000Y56388000D01*
X4572000Y56388000D01*
X4318000Y56388000D01*
X3124845Y56388000D01*
X3003524Y56158110D01*
X2640000Y56158110D01*
X2640000Y62445000D01*
X2956928Y62445000D01*
X2956928Y60745000D01*
X2969188Y60620518D01*
X3005498Y60500820D01*
X3064463Y60390506D01*
X3143815Y60293815D01*
X3240506Y60214463D01*
X3350820Y60155498D01*
X3423380Y60133487D01*
X3291525Y60001632D01*
X3129010Y59758411D01*
X3017068Y59488158D01*
X2960000Y59201260D01*
X2960000Y58908740D01*
X3017068Y58621842D01*
X3129010Y58351589D01*
X3291525Y58108368D01*
X3498368Y57901525D01*
X3680534Y57779805D01*
X3563645Y57710178D01*
X3347412Y57515269D01*
X3173359Y57281920D01*
X3048175Y57019099D01*
X3003524Y56871890D01*
X3124845Y56642000D01*
X4318000Y56642000D01*
X4318000Y56662000D01*
X4572000Y56662000D01*
X4572000Y56642000D01*
X6858000Y56642000D01*
X6858000Y56662000D01*
X7112000Y56662000D01*
X7112000Y56642000D01*
X8305155Y56642000D01*
X8426476Y56871890D01*
X8381825Y57019099D01*
X8256641Y57281920D01*
X8082588Y57515269D01*
X7866355Y57710178D01*
X7749466Y57779805D01*
X7931632Y57901525D01*
X8138475Y58108368D01*
X8300990Y58351589D01*
X8412932Y58621842D01*
X8470000Y58908740D01*
X8470000Y59201260D01*
X8412932Y59488158D01*
X8300990Y59758411D01*
X8138475Y60001632D01*
X7931632Y60208475D01*
X7757240Y60325000D01*
X7931632Y60441525D01*
X8138475Y60648368D01*
X8300990Y60891589D01*
X8412932Y61161842D01*
X8470000Y61448740D01*
X8470000Y61741260D01*
X8412932Y62028158D01*
X8300990Y62298411D01*
X8138475Y62541632D01*
X7931632Y62748475D01*
X7688411Y62910990D01*
X7418158Y63022932D01*
X7131260Y63080000D01*
X6838740Y63080000D01*
X6551842Y63022932D01*
X6281589Y62910990D01*
X6038368Y62748475D01*
X5906513Y62616620D01*
X5884502Y62689180D01*
X5825537Y62799494D01*
X5746185Y62896185D01*
X5649494Y62975537D01*
X5539180Y63034502D01*
X5419482Y63070812D01*
X5295000Y63083072D01*
X3595000Y63083072D01*
X3470518Y63070812D01*
X3350820Y63034502D01*
X3240506Y62975537D01*
X3143815Y62896185D01*
X3064463Y62799494D01*
X3005498Y62689180D01*
X2969188Y62569482D01*
X2956928Y62445000D01*
X2640000Y62445000D01*
X2640000Y62560554D01*
X3479447Y63400000D01*
X5305889Y63400000D01*
X5341994Y63396444D01*
X5378099Y63400000D01*
X5486079Y63410635D01*
X5624627Y63452663D01*
X5752314Y63520913D01*
X5864232Y63612762D01*
X5887252Y63640812D01*
X7007080Y64760640D01*
X7088982Y64678738D01*
X7242121Y64576414D01*
X7412281Y64505932D01*
X7577495Y64473068D01*
X9425001Y62625562D01*
X9425000Y56462951D01*
X9331414Y56322889D01*
X9260932Y56152729D01*
X9225000Y55972089D01*
X9225000Y55787911D01*
X9260932Y55607271D01*
X9331414Y55437111D01*
X9433738Y55283972D01*
X9563972Y55153738D01*
X9717111Y55051414D01*
X9887271Y54980932D01*
X10067911Y54945000D01*
X10252089Y54945000D01*
X10432729Y54980932D01*
X10602889Y55051414D01*
X10756028Y55153738D01*
X10886262Y55283972D01*
X10988586Y55437111D01*
X11059068Y55607271D01*
X11095000Y55787911D01*
X11095000Y55810554D01*
X11133068Y55772485D01*
X11165932Y55607271D01*
X11236414Y55437111D01*
X11338738Y55283972D01*
X11468972Y55153738D01*
X11622111Y55051414D01*
X11792271Y54980932D01*
X11965001Y54946574D01*
X11965000Y53922951D01*
X11871414Y53782889D01*
X11800932Y53612729D01*
X11766574Y53440000D01*
X10107951Y53440000D01*
X9967889Y53533586D01*
X9797729Y53604068D01*
X9617089Y53640000D01*
X9432911Y53640000D01*
X9252271Y53604068D01*
X9082111Y53533586D01*
X8928972Y53431262D01*
X8798738Y53301028D01*
X8696414Y53147889D01*
X8625932Y52977729D01*
X8590000Y52797089D01*
X8590000Y52612911D01*
X8625932Y52432271D01*
X8696414Y52262111D01*
X8798738Y52108972D01*
X8928972Y51978738D01*
X9082111Y51876414D01*
X9252271Y51805932D01*
X9432911Y51770000D01*
X9617089Y51770000D01*
X9797729Y51805932D01*
X9967889Y51876414D01*
X10107951Y51970000D01*
X13588897Y51970000D01*
X13625002Y51966444D01*
X13661107Y51970000D01*
X13769087Y51980635D01*
X13907635Y52022663D01*
X14035322Y52090913D01*
X14147240Y52182762D01*
X14170261Y52210812D01*
X16369193Y54409744D01*
X16397238Y54432760D01*
X16489087Y54544678D01*
X16557022Y54671775D01*
X16557337Y54672364D01*
X16599365Y54810913D01*
X16613556Y54954998D01*
X16610000Y54991103D01*
X16610000Y64589497D01*
X16727271Y64540922D01*
X16892485Y64508058D01*
X18315001Y63085542D01*
X18315000Y53287951D01*
X18221414Y53147889D01*
X18150932Y52977729D01*
X18115000Y52797089D01*
X18115000Y52612911D01*
X18150932Y52432271D01*
X18221414Y52262111D01*
X18323738Y52108972D01*
X18453972Y51978738D01*
X18607111Y51876414D01*
X18777271Y51805932D01*
X18957911Y51770000D01*
X19142089Y51770000D01*
X19322729Y51805932D01*
X19492889Y51876414D01*
X19646028Y51978738D01*
X19776262Y52108972D01*
X19844658Y52211335D01*
X23330000Y52211335D01*
X23330000Y51928665D01*
X23385147Y51651426D01*
X23493320Y51390273D01*
X23650363Y51155241D01*
X23850241Y50955363D01*
X24085273Y50798320D01*
X24346426Y50690147D01*
X24623665Y50635000D01*
X24906335Y50635000D01*
X25183574Y50690147D01*
X25444727Y50798320D01*
X25679759Y50955363D01*
X25879637Y51155241D01*
X26036680Y51390273D01*
X26144853Y51651426D01*
X26200000Y51928665D01*
X26200000Y52211335D01*
X28410000Y52211335D01*
X28410000Y51928665D01*
X28465147Y51651426D01*
X28573320Y51390273D01*
X28730363Y51155241D01*
X28930241Y50955363D01*
X29165273Y50798320D01*
X29426426Y50690147D01*
X29703665Y50635000D01*
X29986335Y50635000D01*
X30263574Y50690147D01*
X30524727Y50798320D01*
X30759759Y50955363D01*
X30959637Y51155241D01*
X31116680Y51390273D01*
X31224853Y51651426D01*
X31280000Y51928665D01*
X31280000Y52211335D01*
X31224853Y52488574D01*
X31116680Y52749727D01*
X30959637Y52984759D01*
X30759759Y53184637D01*
X30524727Y53341680D01*
X30263574Y53449853D01*
X29986335Y53505000D01*
X29703665Y53505000D01*
X29426426Y53449853D01*
X29165273Y53341680D01*
X28930241Y53184637D01*
X28730363Y52984759D01*
X28573320Y52749727D01*
X28465147Y52488574D01*
X28410000Y52211335D01*
X26200000Y52211335D01*
X26144853Y52488574D01*
X26036680Y52749727D01*
X25879637Y52984759D01*
X25679759Y53184637D01*
X25444727Y53341680D01*
X25183574Y53449853D01*
X24906335Y53505000D01*
X24623665Y53505000D01*
X24346426Y53449853D01*
X24085273Y53341680D01*
X23850241Y53184637D01*
X23650363Y52984759D01*
X23493320Y52749727D01*
X23385147Y52488574D01*
X23330000Y52211335D01*
X19844658Y52211335D01*
X19878586Y52262111D01*
X19949068Y52432271D01*
X19985000Y52612911D01*
X19985000Y52797089D01*
X19949068Y52977729D01*
X19878586Y53147889D01*
X19785000Y53287951D01*
X19785000Y59831335D01*
X23330000Y59831335D01*
X23330000Y59548665D01*
X23385147Y59271426D01*
X23493320Y59010273D01*
X23650363Y58775241D01*
X23850241Y58575363D01*
X24085273Y58418320D01*
X24346426Y58310147D01*
X24623665Y58255000D01*
X24906335Y58255000D01*
X25183574Y58310147D01*
X25444727Y58418320D01*
X25679759Y58575363D01*
X25879637Y58775241D01*
X26036680Y59010273D01*
X26144853Y59271426D01*
X26200000Y59548665D01*
X26200000Y59831335D01*
X26144853Y60108574D01*
X26036680Y60369727D01*
X25879637Y60604759D01*
X25679759Y60804637D01*
X25444727Y60961680D01*
X25183574Y61069853D01*
X24906335Y61125000D01*
X24623665Y61125000D01*
X24346426Y61069853D01*
X24085273Y60961680D01*
X23850241Y60804637D01*
X23650363Y60604759D01*
X23493320Y60369727D01*
X23385147Y60108574D01*
X23330000Y59831335D01*
X19785000Y59831335D01*
X19785000Y62033098D01*
X19840363Y61950241D01*
X20040241Y61750363D01*
X20275273Y61593320D01*
X20536426Y61485147D01*
X20813665Y61430000D01*
X21096335Y61430000D01*
X21373574Y61485147D01*
X21634727Y61593320D01*
X21869759Y61750363D01*
X22069637Y61950241D01*
X22189748Y62130000D01*
X24648895Y62130000D01*
X24671513Y62127772D01*
X24675635Y62085916D01*
X24717663Y61947368D01*
X24785913Y61819681D01*
X24877762Y61707763D01*
X24905808Y61684746D01*
X26570001Y60020552D01*
X26570000Y57821105D01*
X26566444Y57785000D01*
X26580312Y57644193D01*
X26580635Y57640916D01*
X26622663Y57502368D01*
X26690913Y57374681D01*
X26782762Y57262763D01*
X26810808Y57239746D01*
X32920001Y51130552D01*
X32920000Y38700127D01*
X31593731Y37373857D01*
X31565686Y37350841D01*
X31473837Y37238923D01*
X31448792Y37192068D01*
X20401172Y48239687D01*
X20378151Y48267738D01*
X20266233Y48359587D01*
X20138546Y48427837D01*
X19999998Y48469865D01*
X19892018Y48480500D01*
X19855913Y48484056D01*
X19819808Y48480500D01*
X19632951Y48480500D01*
X19492889Y48574086D01*
X19322729Y48644568D01*
X19142089Y48680500D01*
X18957911Y48680500D01*
X18777271Y48644568D01*
X18607111Y48574086D01*
X18453972Y48471762D01*
X18323738Y48341528D01*
X18221414Y48188389D01*
X18150932Y48018229D01*
X18115000Y47837589D01*
X18115000Y47653411D01*
X18150932Y47472771D01*
X18221414Y47302611D01*
X18323738Y47149472D01*
X18453972Y47019238D01*
X18607111Y46916914D01*
X18777271Y46846432D01*
X18957911Y46810500D01*
X19142089Y46810500D01*
X19322729Y46846432D01*
X19492889Y46916914D01*
X19584105Y46977862D01*
X23488867Y43073100D01*
X18350605Y43073100D01*
X18314500Y43076656D01*
X18278395Y43073100D01*
X18170415Y43062465D01*
X18031867Y43020437D01*
X17904180Y42952187D01*
X17792262Y42860338D01*
X17769241Y42832287D01*
X17442508Y42505554D01*
X17414463Y42482538D01*
X17322613Y42370620D01*
X17254363Y42242933D01*
X17221525Y42134681D01*
X17212335Y42104385D01*
X17198144Y41960300D01*
X17201700Y41924195D01*
X17201700Y41478405D01*
X17198144Y41442300D01*
X17212335Y41298215D01*
X17218478Y41277964D01*
X17254363Y41159668D01*
X17322613Y41031981D01*
X17414462Y40920063D01*
X17442508Y40897046D01*
X17652701Y40686853D01*
X17652701Y40211400D01*
X17626111Y40211400D01*
X17445471Y40175468D01*
X17437582Y40172200D01*
X14609999Y42999783D01*
X14609999Y43238897D01*
X14613555Y43275002D01*
X14599364Y43419087D01*
X14577357Y43491632D01*
X14557336Y43557634D01*
X14489086Y43685321D01*
X14421509Y43767663D01*
X14420252Y43769195D01*
X14420249Y43769198D01*
X14397236Y43797239D01*
X14369197Y43820250D01*
X8420344Y49769103D01*
X8470000Y50018740D01*
X8470000Y50311260D01*
X8412932Y50598158D01*
X8300990Y50868411D01*
X8138475Y51111632D01*
X7931632Y51318475D01*
X7688411Y51480990D01*
X7418158Y51592932D01*
X7131260Y51650000D01*
X6838740Y51650000D01*
X6551842Y51592932D01*
X6281589Y51480990D01*
X6038368Y51318475D01*
X5906513Y51186620D01*
X5884502Y51259180D01*
X5825537Y51369494D01*
X5746185Y51466185D01*
X5649494Y51545537D01*
X5539180Y51604502D01*
X5419482Y51640812D01*
X5295000Y51653072D01*
X3595000Y51653072D01*
X3470518Y51640812D01*
X3350820Y51604502D01*
X3240506Y51545537D01*
X3143815Y51466185D01*
X3064463Y51369494D01*
X3005498Y51259180D01*
X2969188Y51139482D01*
X2956928Y51015000D01*
X2956928Y50496375D01*
X2505808Y50045254D01*
X2477762Y50022237D01*
X2385913Y49910319D01*
X2317663Y49782632D01*
X2309184Y49754680D01*
X2275635Y49644085D01*
X2261444Y49500000D01*
X2265000Y49463895D01*
X2265001Y42121115D01*
X2261444Y42085000D01*
X2275635Y41940915D01*
X2311940Y41821237D01*
X2317664Y41802367D01*
X2385914Y41674680D01*
X2477763Y41562762D01*
X2505808Y41539746D01*
X3212376Y40833177D01*
X3129010Y40708411D01*
X3017068Y40438158D01*
X2960000Y40151260D01*
X2960000Y39858740D01*
X3017068Y39571842D01*
X3129010Y39301589D01*
X3291525Y39058368D01*
X3498368Y38851525D01*
X3672760Y38735000D01*
X3498368Y38618475D01*
X3291525Y38411632D01*
X3129010Y38168411D01*
X3017068Y37898158D01*
X2960000Y37611260D01*
X2960000Y37318740D01*
X3017068Y37031842D01*
X3129010Y36761589D01*
X3291525Y36518368D01*
X3498368Y36311525D01*
X3741589Y36149010D01*
X4011842Y36037068D01*
X4298740Y35980000D01*
X4591260Y35980000D01*
X4840897Y36029656D01*
X6518346Y34352207D01*
X6541362Y34324162D01*
X6569406Y34301147D01*
X6653280Y34232313D01*
X6780966Y34164063D01*
X6919515Y34122035D01*
X7063600Y34107844D01*
X7099705Y34111400D01*
X14589034Y34111400D01*
X8116371Y27638736D01*
X7931632Y27823475D01*
X7757240Y27940000D01*
X7931632Y28056525D01*
X8138475Y28263368D01*
X8300990Y28506589D01*
X8412932Y28776842D01*
X8470000Y29063740D01*
X8470000Y29356260D01*
X8412932Y29643158D01*
X8300990Y29913411D01*
X8138475Y30156632D01*
X7931632Y30363475D01*
X7688411Y30525990D01*
X7418158Y30637932D01*
X7131260Y30695000D01*
X6838740Y30695000D01*
X6551842Y30637932D01*
X6281589Y30525990D01*
X6038368Y30363475D01*
X5906513Y30231620D01*
X5884502Y30304180D01*
X5825537Y30414494D01*
X5746185Y30511185D01*
X5649494Y30590537D01*
X5539180Y30649502D01*
X5419482Y30685812D01*
X5295000Y30698072D01*
X3595000Y30698072D01*
X3470518Y30685812D01*
X3350820Y30649502D01*
X3240506Y30590537D01*
X3143815Y30511185D01*
X3064463Y30414494D01*
X3005498Y30304180D01*
X2969188Y30184482D01*
X2956928Y30060000D01*
X2956928Y28360000D01*
X2969188Y28235518D01*
X3005498Y28115820D01*
X3064463Y28005506D01*
X3143815Y27908815D01*
X3240506Y27829463D01*
X3350820Y27770498D01*
X3423380Y27748487D01*
X3291525Y27616632D01*
X3129010Y27373411D01*
X3017068Y27103158D01*
X2960000Y26816260D01*
X2960000Y26523740D01*
X3017068Y26236842D01*
X3129010Y25966589D01*
X3291525Y25723368D01*
X3498368Y25516525D01*
X3672760Y25400000D01*
X3498368Y25283475D01*
X3291525Y25076632D01*
X3129010Y24833411D01*
X3017068Y24563158D01*
X2960000Y24276260D01*
X2960000Y23983740D01*
X3017068Y23696842D01*
X3129010Y23426589D01*
X3291525Y23183368D01*
X3498368Y22976525D01*
X3672760Y22860000D01*
X3498368Y22743475D01*
X3291525Y22536632D01*
X3129010Y22293411D01*
X3017068Y22023158D01*
X2960000Y21736260D01*
X2960000Y21443740D01*
X3017068Y21156842D01*
X3129010Y20886589D01*
X3291525Y20643368D01*
X3498368Y20436525D01*
X3672760Y20320000D01*
X3498368Y20203475D01*
X3291525Y19996632D01*
X3129010Y19753411D01*
X3017068Y19483158D01*
X2960000Y19196260D01*
X2960000Y18903740D01*
X3017068Y18616842D01*
X3129010Y18346589D01*
X3291525Y18103368D01*
X3498368Y17896525D01*
X3672760Y17780000D01*
X3498368Y17663475D01*
X3291525Y17456632D01*
X3129010Y17213411D01*
X3017068Y16943158D01*
X2960000Y16656260D01*
X2960000Y16363740D01*
X3017068Y16076842D01*
X3129010Y15806589D01*
X3291525Y15563368D01*
X3498368Y15356525D01*
X3672760Y15240000D01*
X3498368Y15123475D01*
X3291525Y14916632D01*
X3129010Y14673411D01*
X3017068Y14403158D01*
X2960000Y14116260D01*
X2960000Y13823740D01*
X3017068Y13536842D01*
X3129010Y13266589D01*
X3291525Y13023368D01*
X3498368Y12816525D01*
X3672760Y12700000D01*
X3498368Y12583475D01*
X3291525Y12376632D01*
X3129010Y12133411D01*
X3017068Y11863158D01*
X2960000Y11576260D01*
X2960000Y11283740D01*
X3017068Y10996842D01*
X3129010Y10726589D01*
X3291525Y10483368D01*
X3498368Y10276525D01*
X3741589Y10114010D01*
X4011842Y10002068D01*
X4298740Y9945000D01*
X4591260Y9945000D01*
X4878158Y10002068D01*
X5148411Y10114010D01*
X5391632Y10276525D01*
X5598475Y10483368D01*
X5715000Y10657760D01*
X5831525Y10483368D01*
X6038368Y10276525D01*
X6281589Y10114010D01*
X6551842Y10002068D01*
X6838740Y9945000D01*
X7131260Y9945000D01*
X7418158Y10002068D01*
X7688411Y10114010D01*
X7931632Y10276525D01*
X8138475Y10483368D01*
X8300990Y10726589D01*
X8412932Y10996842D01*
X8470000Y11283740D01*
X8470000Y11491335D01*
X16980000Y11491335D01*
X16980000Y11208665D01*
X17035147Y10931426D01*
X17143320Y10670273D01*
X17300363Y10435241D01*
X17500241Y10235363D01*
X17735273Y10078320D01*
X17996426Y9970147D01*
X18273665Y9915000D01*
X18556335Y9915000D01*
X18833574Y9970147D01*
X19094727Y10078320D01*
X19329759Y10235363D01*
X19529637Y10435241D01*
X19686680Y10670273D01*
X19794853Y10931426D01*
X19850000Y11208665D01*
X19850000Y11491335D01*
X19794853Y11768574D01*
X19686680Y12029727D01*
X19529637Y12264759D01*
X19329759Y12464637D01*
X19094727Y12621680D01*
X18833574Y12729853D01*
X18556335Y12785000D01*
X18273665Y12785000D01*
X17996426Y12729853D01*
X17735273Y12621680D01*
X17500241Y12464637D01*
X17300363Y12264759D01*
X17143320Y12029727D01*
X17035147Y11768574D01*
X16980000Y11491335D01*
X8470000Y11491335D01*
X8470000Y11576260D01*
X8412932Y11863158D01*
X8300990Y12133411D01*
X8138475Y12376632D01*
X7931632Y12583475D01*
X7757240Y12700000D01*
X7931632Y12816525D01*
X8138475Y13023368D01*
X8300990Y13266589D01*
X8412932Y13536842D01*
X8470000Y13823740D01*
X8470000Y14116260D01*
X8412932Y14403158D01*
X8300990Y14673411D01*
X8138475Y14916632D01*
X7931632Y15123475D01*
X7757240Y15240000D01*
X7931632Y15356525D01*
X8138475Y15563368D01*
X8300990Y15806589D01*
X8412932Y16076842D01*
X8470000Y16363740D01*
X8470000Y16656260D01*
X8412932Y16943158D01*
X8300990Y17213411D01*
X8138475Y17456632D01*
X7931632Y17663475D01*
X7757240Y17780000D01*
X7931632Y17896525D01*
X7956442Y17921335D01*
X12535000Y17921335D01*
X12535000Y17638665D01*
X12590147Y17361426D01*
X12698320Y17100273D01*
X12855363Y16865241D01*
X13055241Y16665363D01*
X13290273Y16508320D01*
X13551426Y16400147D01*
X13828665Y16345000D01*
X14111335Y16345000D01*
X14388574Y16400147D01*
X14649727Y16508320D01*
X14884759Y16665363D01*
X15084637Y16865241D01*
X15204748Y17045000D01*
X16003312Y17045000D01*
X15987762Y17032238D01*
X15964746Y17004193D01*
X14323376Y15362822D01*
X14111335Y15405000D01*
X13828665Y15405000D01*
X13551426Y15349853D01*
X13290273Y15241680D01*
X13055241Y15084637D01*
X12855363Y14884759D01*
X12698320Y14649727D01*
X12590147Y14388574D01*
X12535000Y14111335D01*
X12535000Y13828665D01*
X12590147Y13551426D01*
X12698320Y13290273D01*
X12855363Y13055241D01*
X13055241Y12855363D01*
X13290273Y12698320D01*
X13551426Y12590147D01*
X13828665Y12535000D01*
X14111335Y12535000D01*
X14388574Y12590147D01*
X14649727Y12698320D01*
X14884759Y12855363D01*
X15084637Y13055241D01*
X15241680Y13290273D01*
X15349853Y13551426D01*
X15405000Y13828665D01*
X15405000Y14111335D01*
X15362822Y14323376D01*
X16814447Y15775000D01*
X17583098Y15775000D01*
X17500241Y15719637D01*
X17300363Y15519759D01*
X17143320Y15284727D01*
X17035147Y15023574D01*
X16980000Y14746335D01*
X16980000Y14463665D01*
X17035147Y14186426D01*
X17143320Y13925273D01*
X17300363Y13690241D01*
X17500241Y13490363D01*
X17735273Y13333320D01*
X17996426Y13225147D01*
X18273665Y13170000D01*
X18556335Y13170000D01*
X18833574Y13225147D01*
X19094727Y13333320D01*
X19329759Y13490363D01*
X19529637Y13690241D01*
X19686680Y13925273D01*
X19794853Y14186426D01*
X19850000Y14463665D01*
X19850000Y14746335D01*
X19794853Y15023574D01*
X19686680Y15284727D01*
X19529637Y15519759D01*
X19329759Y15719637D01*
X19246902Y15775000D01*
X19737049Y15775000D01*
X19877111Y15681414D01*
X20047271Y15610932D01*
X20227911Y15575000D01*
X20412089Y15575000D01*
X20592729Y15610932D01*
X20762889Y15681414D01*
X20916028Y15783738D01*
X21046262Y15913972D01*
X21148586Y16067111D01*
X21219068Y16237271D01*
X21255000Y16417911D01*
X21255000Y16602089D01*
X21219068Y16782729D01*
X21148586Y16952889D01*
X21087040Y17045000D01*
X22276987Y17045000D01*
X22417049Y16951414D01*
X22587209Y16880932D01*
X22767849Y16845000D01*
X22952027Y16845000D01*
X23132667Y16880932D01*
X23302827Y16951414D01*
X23455966Y17053738D01*
X23586200Y17183972D01*
X23688524Y17337111D01*
X23759006Y17507271D01*
X23794938Y17687911D01*
X23794938Y17872089D01*
X23759006Y18052729D01*
X23688524Y18222889D01*
X23586200Y18376028D01*
X23455966Y18506262D01*
X23302827Y18608586D01*
X23132667Y18679068D01*
X22952027Y18715000D01*
X22767849Y18715000D01*
X22587209Y18679068D01*
X22417049Y18608586D01*
X22276987Y18515000D01*
X15204748Y18515000D01*
X15084637Y18694759D01*
X14884759Y18894637D01*
X14649727Y19051680D01*
X14388574Y19159853D01*
X14111335Y19215000D01*
X13828665Y19215000D01*
X13551426Y19159853D01*
X13290273Y19051680D01*
X13055241Y18894637D01*
X12855363Y18694759D01*
X12698320Y18459727D01*
X12590147Y18198574D01*
X12535000Y17921335D01*
X7956442Y17921335D01*
X8138475Y18103368D01*
X8300990Y18346589D01*
X8412932Y18616842D01*
X8470000Y18903740D01*
X8470000Y19196260D01*
X8412932Y19483158D01*
X8300990Y19753411D01*
X8138475Y19996632D01*
X7931632Y20203475D01*
X7757240Y20320000D01*
X7931632Y20436525D01*
X8138475Y20643368D01*
X8300990Y20886589D01*
X8412932Y21156842D01*
X8470000Y21443740D01*
X8470000Y21736260D01*
X8412932Y22023158D01*
X8380003Y22102657D01*
X10600841Y24323495D01*
X10601414Y24322111D01*
X10703738Y24168972D01*
X10833972Y24038738D01*
X10987111Y23936414D01*
X11157271Y23865932D01*
X11337911Y23830000D01*
X11522089Y23830000D01*
X11702729Y23865932D01*
X11872889Y23936414D01*
X12026028Y24038738D01*
X12156262Y24168972D01*
X12258586Y24322111D01*
X12329068Y24492271D01*
X12361932Y24657486D01*
X12618184Y24913738D01*
X12698320Y24720273D01*
X12855363Y24485241D01*
X13055241Y24285363D01*
X13235000Y24165252D01*
X13235001Y22896115D01*
X13231444Y22860000D01*
X13245635Y22715915D01*
X13267580Y22643574D01*
X13287664Y22577367D01*
X13355914Y22449680D01*
X13447763Y22337762D01*
X13475807Y22314747D01*
X16599746Y19190807D01*
X16622762Y19162762D01*
X16734680Y19070913D01*
X16862367Y19002663D01*
X16958886Y18973384D01*
X17000914Y18960635D01*
X17144999Y18946444D01*
X17181104Y18950000D01*
X26087049Y18950000D01*
X26227111Y18856414D01*
X26397271Y18785932D01*
X26577911Y18750000D01*
X26762089Y18750000D01*
X26942729Y18785932D01*
X27112889Y18856414D01*
X27266028Y18958738D01*
X27396262Y19088972D01*
X27498586Y19242111D01*
X27569068Y19412271D01*
X27605000Y19592911D01*
X27605000Y19777089D01*
X27569068Y19957729D01*
X27498586Y20127889D01*
X27396262Y20281028D01*
X27266028Y20411262D01*
X27112889Y20513586D01*
X26942729Y20584068D01*
X26762089Y20620000D01*
X26577911Y20620000D01*
X26397271Y20584068D01*
X26227111Y20513586D01*
X26087049Y20420000D01*
X17449447Y20420000D01*
X14705000Y23164446D01*
X14705000Y24165252D01*
X14884759Y24285363D01*
X15084637Y24485241D01*
X15241680Y24720273D01*
X15349853Y24981426D01*
X15405000Y25258665D01*
X15405000Y25541335D01*
X15349853Y25818574D01*
X15241680Y26079727D01*
X15084637Y26314759D01*
X14884759Y26514637D01*
X14649727Y26671680D01*
X14456262Y26751816D01*
X17706437Y30001991D01*
X17690635Y29949898D01*
X17676444Y29805813D01*
X17680001Y29769698D01*
X17680000Y23459748D01*
X17500241Y23339637D01*
X17300363Y23139759D01*
X17143320Y22904727D01*
X17035147Y22643574D01*
X16980000Y22366335D01*
X16980000Y22083665D01*
X17035147Y21806426D01*
X17143320Y21545273D01*
X17300363Y21310241D01*
X17500241Y21110363D01*
X17735273Y20953320D01*
X17996426Y20845147D01*
X18273665Y20790000D01*
X18556335Y20790000D01*
X18833574Y20845147D01*
X19094727Y20953320D01*
X19329759Y21110363D01*
X19529637Y21310241D01*
X19686680Y21545273D01*
X19794853Y21806426D01*
X19850000Y22083665D01*
X19850000Y22366335D01*
X19794853Y22643574D01*
X19686680Y22904727D01*
X19622129Y23001335D01*
X29045000Y23001335D01*
X29045000Y22718665D01*
X29100147Y22441426D01*
X29208320Y22180273D01*
X29365363Y21945241D01*
X29565241Y21745363D01*
X29800273Y21588320D01*
X30061426Y21480147D01*
X30338665Y21425000D01*
X30621335Y21425000D01*
X30898574Y21480147D01*
X31159727Y21588320D01*
X31394759Y21745363D01*
X31516694Y21867298D01*
X34666903Y21867298D01*
X34738486Y21623329D01*
X34993996Y21502429D01*
X35268184Y21433700D01*
X35550512Y21419783D01*
X35830130Y21461213D01*
X36096292Y21556397D01*
X36221514Y21623329D01*
X36293097Y21867298D01*
X35480000Y22680395D01*
X34666903Y21867298D01*
X31516694Y21867298D01*
X31594637Y21945241D01*
X31751680Y22180273D01*
X31859853Y22441426D01*
X31915000Y22718665D01*
X31915000Y22789488D01*
X34039783Y22789488D01*
X34081213Y22509870D01*
X34176397Y22243708D01*
X34243329Y22118486D01*
X34487298Y22046903D01*
X35300395Y22860000D01*
X34487298Y23673097D01*
X34243329Y23601514D01*
X34122429Y23346004D01*
X34053700Y23071816D01*
X34039783Y22789488D01*
X31915000Y22789488D01*
X31915000Y23001335D01*
X31859853Y23278574D01*
X31751680Y23539727D01*
X31594637Y23774759D01*
X31516694Y23852702D01*
X34666903Y23852702D01*
X35480000Y23039605D01*
X36293097Y23852702D01*
X36221514Y24096671D01*
X35966004Y24217571D01*
X35691816Y24286300D01*
X35409488Y24300217D01*
X35129870Y24258787D01*
X34863708Y24163603D01*
X34738486Y24096671D01*
X34666903Y23852702D01*
X31516694Y23852702D01*
X31394759Y23974637D01*
X31159727Y24131680D01*
X30898574Y24239853D01*
X30621335Y24295000D01*
X30338665Y24295000D01*
X30061426Y24239853D01*
X29800273Y24131680D01*
X29565241Y23974637D01*
X29365363Y23774759D01*
X29208320Y23539727D01*
X29100147Y23278574D01*
X29045000Y23001335D01*
X19622129Y23001335D01*
X19529637Y23139759D01*
X19329759Y23339637D01*
X19150000Y23459748D01*
X19150000Y29501367D01*
X24872503Y35223870D01*
X25037717Y35256733D01*
X25207877Y35327215D01*
X25361016Y35429539D01*
X25491250Y35559773D01*
X25593574Y35712912D01*
X25664056Y35883072D01*
X25699988Y36063712D01*
X25699988Y36247890D01*
X25664056Y36428530D01*
X25593574Y36598690D01*
X25491250Y36751829D01*
X25361016Y36882063D01*
X25207877Y36984387D01*
X25037717Y37054869D01*
X24857077Y37090801D01*
X24672899Y37090801D01*
X24492259Y37054869D01*
X24322099Y36984387D01*
X24168960Y36882063D01*
X24038726Y36751829D01*
X23936402Y36598690D01*
X23865920Y36428530D01*
X23833057Y36263316D01*
X20163515Y32593775D01*
X20122528Y32634762D01*
X19969389Y32737086D01*
X19799229Y32807568D01*
X19618589Y32843500D01*
X19434411Y32843500D01*
X19253771Y32807568D01*
X19083611Y32737086D01*
X18943549Y32643500D01*
X18920847Y32643500D01*
X20285916Y34008569D01*
X20451129Y34041432D01*
X20621289Y34111914D01*
X20774428Y34214238D01*
X20904662Y34344472D01*
X21006986Y34497611D01*
X21077468Y34667771D01*
X21113400Y34848411D01*
X21113400Y35032589D01*
X21077468Y35213229D01*
X21006986Y35383389D01*
X20904662Y35536528D01*
X20774428Y35666762D01*
X20621289Y35769086D01*
X20451129Y35839568D01*
X20270489Y35875500D01*
X20086311Y35875500D01*
X19905671Y35839568D01*
X19903465Y35838654D01*
X20926193Y36861382D01*
X20954238Y36884398D01*
X21046087Y36996316D01*
X21085027Y37069168D01*
X21114337Y37124002D01*
X21143487Y37220097D01*
X21158262Y37234872D01*
X21260586Y37388011D01*
X21331068Y37558171D01*
X21367000Y37738811D01*
X21367000Y37922989D01*
X21331068Y38103629D01*
X21260586Y38273789D01*
X21158262Y38426928D01*
X21028028Y38557162D01*
X20874889Y38659486D01*
X20704729Y38729968D01*
X20558900Y38758976D01*
X20558900Y40373149D01*
X20652486Y40513211D01*
X20722968Y40683371D01*
X20758900Y40864011D01*
X20758900Y41048189D01*
X20722968Y41228829D01*
X20652486Y41398989D01*
X20550162Y41552128D01*
X20499190Y41603100D01*
X24031044Y41603100D01*
X29811200Y35822943D01*
X29811201Y33745952D01*
X29717614Y33605889D01*
X29647132Y33435729D01*
X29611200Y33255089D01*
X29611200Y33070911D01*
X29647132Y32890271D01*
X29717614Y32720111D01*
X29819938Y32566972D01*
X29950172Y32436738D01*
X30103311Y32334414D01*
X30273471Y32263932D01*
X30454111Y32228000D01*
X30553553Y32228000D01*
X25982629Y27657075D01*
X24564076Y27657075D01*
X24424014Y27750661D01*
X24253854Y27821143D01*
X24073214Y27857075D01*
X23889036Y27857075D01*
X23708396Y27821143D01*
X23538236Y27750661D01*
X23385097Y27648337D01*
X23254863Y27518103D01*
X23152539Y27364964D01*
X23082057Y27194804D01*
X23046125Y27014164D01*
X23046125Y26829986D01*
X23082057Y26649346D01*
X23152539Y26479186D01*
X23254863Y26326047D01*
X23385097Y26195813D01*
X23538236Y26093489D01*
X23708396Y26023007D01*
X23889036Y25987075D01*
X24073214Y25987075D01*
X24253854Y26023007D01*
X24424014Y26093489D01*
X24564076Y26187075D01*
X26250970Y26187075D01*
X26287075Y26183519D01*
X26323180Y26187075D01*
X26431160Y26197710D01*
X26569708Y26239738D01*
X26697395Y26307988D01*
X26809313Y26399837D01*
X26832334Y26427888D01*
X29551678Y29147232D01*
X29594372Y29104538D01*
X29747511Y29002214D01*
X29917671Y28931732D01*
X30098311Y28895800D01*
X30282489Y28895800D01*
X30463129Y28931732D01*
X30633289Y29002214D01*
X30786428Y29104538D01*
X30916662Y29234772D01*
X31018986Y29387911D01*
X31089468Y29558071D01*
X31122332Y29723285D01*
X32582120Y31183073D01*
X32610160Y31206085D01*
X32633173Y31234126D01*
X32633176Y31234129D01*
X32702010Y31318003D01*
X32753485Y31414306D01*
X32770260Y31445690D01*
X32812288Y31584238D01*
X32822923Y31692218D01*
X32822923Y31692219D01*
X32826479Y31728323D01*
X32822923Y31764428D01*
X32822923Y36524157D01*
X34149197Y37850430D01*
X34177237Y37873442D01*
X34190000Y37888994D01*
X34190000Y35507953D01*
X34096409Y35367884D01*
X34025927Y35197724D01*
X33989995Y35017084D01*
X33989995Y34832906D01*
X34025927Y34652266D01*
X34096409Y34482106D01*
X34198733Y34328967D01*
X34328967Y34198733D01*
X34482106Y34096409D01*
X34652266Y34025927D01*
X34832906Y33989995D01*
X35017084Y33989995D01*
X35197724Y34025927D01*
X35367884Y34096409D01*
X35521023Y34198733D01*
X35651257Y34328967D01*
X35753581Y34482106D01*
X35824063Y34652266D01*
X35859995Y34832906D01*
X35859995Y35017084D01*
X35824063Y35197724D01*
X35753581Y35367884D01*
X35660000Y35507938D01*
X35660000Y42675554D01*
X36095001Y42240552D01*
X36095000Y26706105D01*
X36091444Y26670000D01*
X36105635Y26525915D01*
X36118384Y26483887D01*
X36147663Y26387368D01*
X36215913Y26259681D01*
X36307762Y26147763D01*
X36335807Y26124747D01*
X36730001Y25730552D01*
X36730001Y23576576D01*
X36716671Y23601514D01*
X36472702Y23673097D01*
X35659605Y22860000D01*
X36472702Y22046903D01*
X36716671Y22118486D01*
X36730001Y22146657D01*
X36730000Y15822971D01*
X36636414Y15682909D01*
X36565932Y15512749D01*
X36530000Y15332109D01*
X36530000Y15147931D01*
X36565932Y14967291D01*
X36636414Y14797131D01*
X36738738Y14643992D01*
X36868972Y14513758D01*
X37022111Y14411434D01*
X37192271Y14340952D01*
X37372911Y14305020D01*
X37557089Y14305020D01*
X37737729Y14340952D01*
X37907889Y14411434D01*
X38000029Y14473000D01*
X38000029Y13917952D01*
X37906442Y13777889D01*
X37835960Y13607729D01*
X37800028Y13427089D01*
X37800028Y13242911D01*
X37835960Y13062271D01*
X37906442Y12892111D01*
X38008766Y12738972D01*
X38139000Y12608738D01*
X38292139Y12506414D01*
X38462299Y12435932D01*
X38642939Y12400000D01*
X38827117Y12400000D01*
X39007757Y12435932D01*
X39177917Y12506414D01*
X39331056Y12608738D01*
X39461290Y12738972D01*
X39563614Y12892111D01*
X39634096Y13062271D01*
X39670028Y13242911D01*
X39670028Y13427089D01*
X39634096Y13607729D01*
X39563614Y13777889D01*
X39470028Y13917951D01*
X39470028Y19826335D01*
X39840000Y19826335D01*
X39840000Y19543665D01*
X39895147Y19266426D01*
X40003320Y19005273D01*
X40160363Y18770241D01*
X40360241Y18570363D01*
X40595273Y18413320D01*
X40856426Y18305147D01*
X41133665Y18250000D01*
X41416335Y18250000D01*
X41693574Y18305147D01*
X41954727Y18413320D01*
X42189759Y18570363D01*
X42389637Y18770241D01*
X42546680Y19005273D01*
X42654853Y19266426D01*
X42710000Y19543665D01*
X42710000Y19826335D01*
X42654853Y20103574D01*
X42546680Y20364727D01*
X42389637Y20599759D01*
X42189759Y20799637D01*
X41954727Y20956680D01*
X41693574Y21064853D01*
X41416335Y21120000D01*
X41133665Y21120000D01*
X40856426Y21064853D01*
X40595273Y20956680D01*
X40360241Y20799637D01*
X40160363Y20599759D01*
X40003320Y20364727D01*
X39895147Y20103574D01*
X39840000Y19826335D01*
X39470028Y19826335D01*
X39470028Y23692298D01*
X40461903Y23692298D01*
X40533486Y23448329D01*
X40788996Y23327429D01*
X41063184Y23258700D01*
X41345512Y23244783D01*
X41625130Y23286213D01*
X41891292Y23381397D01*
X42016514Y23448329D01*
X42088097Y23692298D01*
X41275000Y24505395D01*
X40461903Y23692298D01*
X39470028Y23692298D01*
X39470028Y24614488D01*
X39834783Y24614488D01*
X39876213Y24334870D01*
X39971397Y24068708D01*
X40038329Y23943486D01*
X40282298Y23871903D01*
X41095395Y24685000D01*
X41454605Y24685000D01*
X42267702Y23871903D01*
X42511671Y23943486D01*
X42632571Y24198996D01*
X42701300Y24473184D01*
X42715217Y24755512D01*
X42673787Y25035130D01*
X42578603Y25301292D01*
X42511671Y25426514D01*
X42267702Y25498097D01*
X41454605Y24685000D01*
X41095395Y24685000D01*
X40282298Y25498097D01*
X40038329Y25426514D01*
X39917429Y25171004D01*
X39848700Y24896816D01*
X39834783Y24614488D01*
X39470028Y24614488D01*
X39470028Y25677702D01*
X40461903Y25677702D01*
X41275000Y24864605D01*
X42088097Y25677702D01*
X42016514Y25921671D01*
X41761004Y26042571D01*
X41486816Y26111300D01*
X41204488Y26125217D01*
X40924870Y26083787D01*
X40658708Y25988603D01*
X40533486Y25921671D01*
X40461903Y25677702D01*
X39470028Y25677702D01*
X39470028Y35018054D01*
X39564201Y34877114D01*
X39757114Y34684201D01*
X39983957Y34532629D01*
X40236011Y34428225D01*
X40503589Y34375000D01*
X40776411Y34375000D01*
X41043989Y34428225D01*
X41296043Y34532629D01*
X41522886Y34684201D01*
X41715799Y34877114D01*
X41867371Y35103957D01*
X41971775Y35356011D01*
X42025000Y35623589D01*
X42025000Y35896411D01*
X41971775Y36163989D01*
X41867371Y36416043D01*
X41715799Y36642886D01*
X41522886Y36835799D01*
X41296043Y36987371D01*
X41043989Y37091775D01*
X40776411Y37145000D01*
X40503589Y37145000D01*
X40236011Y37091775D01*
X39983957Y36987371D01*
X39757114Y36835799D01*
X39564201Y36642886D01*
X39470028Y36501946D01*
X39470028Y39898054D01*
X39564201Y39757114D01*
X39757114Y39564201D01*
X39983957Y39412629D01*
X40236011Y39308225D01*
X40503589Y39255000D01*
X40776411Y39255000D01*
X41043989Y39308225D01*
X41296043Y39412629D01*
X41522886Y39564201D01*
X41715799Y39757114D01*
X41867371Y39983957D01*
X41971775Y40236011D01*
X42025000Y40503589D01*
X42025000Y40776411D01*
X41971775Y41043989D01*
X41867371Y41296043D01*
X41715799Y41522886D01*
X41522886Y41715799D01*
X41296043Y41867371D01*
X41043989Y41971775D01*
X40776411Y42025000D01*
X40503589Y42025000D01*
X40236011Y41971775D01*
X39983957Y41867371D01*
X39757114Y41715799D01*
X39564201Y41522886D01*
X39470028Y41381946D01*
X39470028Y42020582D01*
X40499193Y43049746D01*
X40527238Y43072762D01*
X40619087Y43184680D01*
X40636669Y43217574D01*
X40687337Y43312366D01*
X40729365Y43450915D01*
X40743556Y43595000D01*
X40740000Y43631105D01*
X40740000Y46299279D01*
X40801987Y46206509D01*
X41071509Y45936987D01*
X41388434Y45725225D01*
X41740581Y45579361D01*
X42114419Y45505000D01*
X42495581Y45505000D01*
X42869419Y45579361D01*
X43221566Y45725225D01*
X43538491Y45936987D01*
X43808013Y46206509D01*
X44019775Y46523434D01*
X44165639Y46875581D01*
X44240000Y47249419D01*
X44240000Y47630581D01*
X44165639Y48004419D01*
X44019775Y48356566D01*
X43808013Y48673491D01*
X43538491Y48943013D01*
X43221566Y49154775D01*
X42869419Y49300639D01*
X42495581Y49375000D01*
X42114419Y49375000D01*
X41892376Y49330833D01*
X41957337Y49452367D01*
X41999365Y49590915D01*
X42010000Y49698895D01*
X42010000Y49698904D01*
X42013555Y49734999D01*
X42010000Y49771094D01*
X42010000Y56097906D01*
X42013555Y56134001D01*
X42010000Y56170096D01*
X42010000Y56170105D01*
X41999365Y56278085D01*
X41957337Y56416633D01*
X41889087Y56544320D01*
X41843907Y56599371D01*
X41820253Y56628194D01*
X41820250Y56628197D01*
X41797237Y56656238D01*
X41769197Y56679250D01*
X41355301Y57093146D01*
X41390000Y57267589D01*
X41390000Y57540411D01*
X41336775Y57807989D01*
X41232371Y58060043D01*
X41080799Y58286886D01*
X40887886Y58479799D01*
X40661043Y58631371D01*
X40408989Y58735775D01*
X40141411Y58789000D01*
X39868589Y58789000D01*
X39601011Y58735775D01*
X39348957Y58631371D01*
X39122114Y58479799D01*
X38929201Y58286886D01*
X38853072Y58172951D01*
X38853072Y59170000D01*
X38840812Y59294482D01*
X38804502Y59414180D01*
X38745537Y59524494D01*
X38666185Y59621185D01*
X38569494Y59700537D01*
X38459180Y59759502D01*
X38339482Y59795812D01*
X38215000Y59808072D01*
X36715000Y59808072D01*
X36590518Y59795812D01*
X36470820Y59759502D01*
X36360506Y59700537D01*
X36263815Y59621185D01*
X36184463Y59524494D01*
X36125498Y59414180D01*
X36089188Y59294482D01*
X36076928Y59170000D01*
X36076928Y59146927D01*
X36050915Y59144365D01*
X35912367Y59102337D01*
X35784680Y59034087D01*
X35672762Y58942238D01*
X35649746Y58914193D01*
X34430808Y57695254D01*
X34402763Y57672238D01*
X34310914Y57560320D01*
X34286834Y57515269D01*
X34242664Y57432633D01*
X34200635Y57294085D01*
X34186444Y57150000D01*
X34190001Y57113885D01*
X34190001Y51941687D01*
X34177238Y51957238D01*
X34149193Y51980254D01*
X28040000Y58089446D01*
X28040000Y59831335D01*
X28410000Y59831335D01*
X28410000Y59548665D01*
X28465147Y59271426D01*
X28573320Y59010273D01*
X28730363Y58775241D01*
X28930241Y58575363D01*
X29165273Y58418320D01*
X29426426Y58310147D01*
X29703665Y58255000D01*
X29986335Y58255000D01*
X30263574Y58310147D01*
X30524727Y58418320D01*
X30759759Y58575363D01*
X30959637Y58775241D01*
X31116680Y59010273D01*
X31224853Y59271426D01*
X31280000Y59548665D01*
X31280000Y59831335D01*
X31224853Y60108574D01*
X31116680Y60369727D01*
X30959637Y60604759D01*
X30759759Y60804637D01*
X30524727Y60961680D01*
X30263574Y61069853D01*
X29986335Y61125000D01*
X29703665Y61125000D01*
X29426426Y61069853D01*
X29165273Y60961680D01*
X28930241Y60804637D01*
X28730363Y60604759D01*
X28573320Y60369727D01*
X28465147Y60108574D01*
X28410000Y59831335D01*
X28040000Y59831335D01*
X28040000Y60288895D01*
X28043556Y60325000D01*
X28029365Y60469085D01*
X27987337Y60607633D01*
X27919087Y60735320D01*
X27827238Y60847238D01*
X27799193Y60870254D01*
X26768527Y61900920D01*
X36580525Y61900920D01*
X36664208Y61646739D01*
X36936775Y61515842D01*
X37229642Y61440635D01*
X37531553Y61424009D01*
X37830907Y61466603D01*
X38116199Y61566778D01*
X38265792Y61646739D01*
X38349475Y61900920D01*
X37465000Y62785395D01*
X36580525Y61900920D01*
X26768527Y61900920D01*
X26248414Y62421033D01*
X26314759Y62465363D01*
X26514637Y62665241D01*
X26670459Y62898447D01*
X35924009Y62898447D01*
X35966603Y62599093D01*
X36066778Y62313801D01*
X36146739Y62164208D01*
X36400920Y62080525D01*
X37285395Y62965000D01*
X37644605Y62965000D01*
X38529080Y62080525D01*
X38783261Y62164208D01*
X38911183Y62430581D01*
X40370000Y62430581D01*
X40370000Y62049419D01*
X40444361Y61675581D01*
X40590225Y61323434D01*
X40801987Y61006509D01*
X41071509Y60736987D01*
X41388434Y60525225D01*
X41740581Y60379361D01*
X42114419Y60305000D01*
X42495581Y60305000D01*
X42869419Y60379361D01*
X43221566Y60525225D01*
X43538491Y60736987D01*
X43808013Y61006509D01*
X44019775Y61323434D01*
X44165639Y61675581D01*
X44240000Y62049419D01*
X44240000Y62430581D01*
X44165639Y62804419D01*
X44019775Y63156566D01*
X43808013Y63473491D01*
X43538491Y63743013D01*
X43221566Y63954775D01*
X42869419Y64100639D01*
X42495581Y64175000D01*
X42114419Y64175000D01*
X41740581Y64100639D01*
X41388434Y63954775D01*
X41071509Y63743013D01*
X40801987Y63473491D01*
X40590225Y63156566D01*
X40444361Y62804419D01*
X40370000Y62430581D01*
X38911183Y62430581D01*
X38914158Y62436775D01*
X38989365Y62729642D01*
X39005991Y63031553D01*
X38963397Y63330907D01*
X38863222Y63616199D01*
X38783261Y63765792D01*
X38529080Y63849475D01*
X37644605Y62965000D01*
X37285395Y62965000D01*
X36400920Y63849475D01*
X36146739Y63765792D01*
X36015842Y63493225D01*
X35940635Y63200358D01*
X35924009Y62898447D01*
X26670459Y62898447D01*
X26671680Y62900273D01*
X26779853Y63161426D01*
X26835000Y63438665D01*
X26835000Y63721335D01*
X26779853Y63998574D01*
X26767218Y64029080D01*
X36580525Y64029080D01*
X37465000Y63144605D01*
X38349475Y64029080D01*
X38265792Y64283261D01*
X37993225Y64414158D01*
X37700358Y64489365D01*
X37398447Y64505991D01*
X37099093Y64463397D01*
X36813801Y64363222D01*
X36664208Y64283261D01*
X36580525Y64029080D01*
X26767218Y64029080D01*
X26671680Y64259727D01*
X26514637Y64494759D01*
X26314759Y64694637D01*
X26079727Y64851680D01*
X25818574Y64959853D01*
X25541335Y65015000D01*
X25258665Y65015000D01*
X24981426Y64959853D01*
X24720273Y64851680D01*
X24485241Y64694637D01*
X24285363Y64494759D01*
X24128320Y64259727D01*
X24020147Y63998574D01*
X23965000Y63721335D01*
X23965000Y63600000D01*
X22189748Y63600000D01*
X22069637Y63779759D01*
X21869759Y63979637D01*
X21634727Y64136680D01*
X21373574Y64244853D01*
X21096335Y64300000D01*
X20813665Y64300000D01*
X20536426Y64244853D01*
X20275273Y64136680D01*
X20040241Y63979637D01*
X19840363Y63779759D01*
X19743715Y63635115D01*
X19732337Y63672623D01*
X19664087Y63800310D01*
X19572238Y63912228D01*
X19544193Y63935244D01*
X18374436Y65105000D01*
X18507089Y65105000D01*
X18687729Y65140932D01*
X18857889Y65211414D01*
X19011028Y65313738D01*
X19141262Y65443972D01*
X19243586Y65597111D01*
X19314068Y65767271D01*
X19350000Y65947911D01*
X19350000Y66132089D01*
X19314068Y66312729D01*
X19243586Y66482889D01*
X19141262Y66636028D01*
X19011028Y66766262D01*
X18857889Y66868586D01*
X18687729Y66939068D01*
X18683044Y66940000D01*
X28941928Y66940000D01*
X28941928Y65140000D01*
X28954188Y65015518D01*
X28990498Y64895820D01*
X29049463Y64785506D01*
X29128815Y64688815D01*
X29225506Y64609463D01*
X29335820Y64550498D01*
X29455518Y64514188D01*
X29580000Y64501928D01*
X31380000Y64501928D01*
X31504482Y64514188D01*
X31624180Y64550498D01*
X31734494Y64609463D01*
X31831185Y64688815D01*
X31910537Y64785506D01*
X31969502Y64895820D01*
X32005812Y65015518D01*
X32018072Y65140000D01*
X32018072Y66940000D01*
X34656928Y66940000D01*
X34656928Y65140000D01*
X34669188Y65015518D01*
X34705498Y64895820D01*
X34764463Y64785506D01*
X34843815Y64688815D01*
X34940506Y64609463D01*
X35050820Y64550498D01*
X35170518Y64514188D01*
X35295000Y64501928D01*
X37095000Y64501928D01*
X37219482Y64514188D01*
X37339180Y64550498D01*
X37449494Y64609463D01*
X37546185Y64688815D01*
X37625537Y64785506D01*
X37684502Y64895820D01*
X37720812Y65015518D01*
X37733072Y65140000D01*
X37733072Y66940000D01*
X37720812Y67064482D01*
X37684502Y67184180D01*
X37625537Y67294494D01*
X37546185Y67391185D01*
X37449494Y67470537D01*
X37339180Y67529502D01*
X37320873Y67535056D01*
X37387312Y67601495D01*
X37555299Y67852905D01*
X37671011Y68132257D01*
X37730000Y68428816D01*
X37730000Y68731184D01*
X37671011Y69027743D01*
X37591323Y69220128D01*
X41765000Y69220128D01*
X41765000Y68779872D01*
X41850890Y68348075D01*
X42019369Y67941331D01*
X42263962Y67575271D01*
X42575271Y67263962D01*
X42941331Y67019369D01*
X43348075Y66850890D01*
X43779872Y66765000D01*
X44220128Y66765000D01*
X44651925Y66850890D01*
X45058669Y67019369D01*
X45424729Y67263962D01*
X45736038Y67575271D01*
X45980631Y67941331D01*
X46149110Y68348075D01*
X46235000Y68779872D01*
X46235000Y69220128D01*
X46149110Y69651925D01*
X45980631Y70058669D01*
X45736038Y70424729D01*
X45424729Y70736038D01*
X45058669Y70980631D01*
X44651925Y71149110D01*
X44220128Y71235000D01*
X43779872Y71235000D01*
X43348075Y71149110D01*
X42941331Y70980631D01*
X42575271Y70736038D01*
X42263962Y70424729D01*
X42019369Y70058669D01*
X41850890Y69651925D01*
X41765000Y69220128D01*
X37591323Y69220128D01*
X37555299Y69307095D01*
X37387312Y69558505D01*
X37173505Y69772312D01*
X36922095Y69940299D01*
X36642743Y70056011D01*
X36346184Y70115000D01*
X36043816Y70115000D01*
X35747257Y70056011D01*
X35467905Y69940299D01*
X35216495Y69772312D01*
X35002688Y69558505D01*
X34834701Y69307095D01*
X34718989Y69027743D01*
X34660000Y68731184D01*
X34660000Y68428816D01*
X34718989Y68132257D01*
X34834701Y67852905D01*
X35002688Y67601495D01*
X35069127Y67535056D01*
X35050820Y67529502D01*
X34940506Y67470537D01*
X34843815Y67391185D01*
X34764463Y67294494D01*
X34705498Y67184180D01*
X34669188Y67064482D01*
X34656928Y66940000D01*
X32018072Y66940000D01*
X32005812Y67064482D01*
X31969502Y67184180D01*
X31910537Y67294494D01*
X31831185Y67391185D01*
X31734494Y67470537D01*
X31624180Y67529502D01*
X31605873Y67535056D01*
X31672312Y67601495D01*
X31840299Y67852905D01*
X31956011Y68132257D01*
X32015000Y68428816D01*
X32015000Y68731184D01*
X31956011Y69027743D01*
X31840299Y69307095D01*
X31672312Y69558505D01*
X31458505Y69772312D01*
X31207095Y69940299D01*
X30927743Y70056011D01*
X30631184Y70115000D01*
X30328816Y70115000D01*
X30032257Y70056011D01*
X29752905Y69940299D01*
X29501495Y69772312D01*
X29287688Y69558505D01*
X29119701Y69307095D01*
X29003989Y69027743D01*
X28945000Y68731184D01*
X28945000Y68428816D01*
X29003989Y68132257D01*
X29119701Y67852905D01*
X29287688Y67601495D01*
X29354127Y67535056D01*
X29335820Y67529502D01*
X29225506Y67470537D01*
X29128815Y67391185D01*
X29049463Y67294494D01*
X28990498Y67184180D01*
X28954188Y67064482D01*
X28941928Y66940000D01*
X18683044Y66940000D01*
X18507089Y66975000D01*
X18322911Y66975000D01*
X18142271Y66939068D01*
X17972111Y66868586D01*
X17832049Y66775000D01*
X7283099Y66775000D01*
X7246994Y66778556D01*
X7210889Y66775000D01*
X7102909Y66764365D01*
X6964361Y66722337D01*
X6836674Y66654087D01*
X6724756Y66562238D01*
X6701740Y66534193D01*
X5037548Y64870000D01*
X3211094Y64870000D01*
X3174999Y64873555D01*
X3138904Y64870000D01*
X3138895Y64870000D01*
X3030915Y64859365D01*
X2892367Y64817337D01*
X2764680Y64749087D01*
X2652762Y64657238D01*
X2629746Y64629193D01*
X1410808Y63410254D01*
X1382763Y63387238D01*
X1290914Y63275320D01*
X1227439Y63156566D01*
X1222664Y63147633D01*
X1180635Y63009085D01*
X1166444Y62865000D01*
X1170001Y62828885D01*
X1170000Y53922951D01*
X1076414Y53782889D01*
X1005932Y53612729D01*
X970000Y53432089D01*
X710000Y53432089D01*
X710000Y69220128D01*
X765000Y69220128D01*
X765000Y68779872D01*
X850890Y68348075D01*
X1019369Y67941331D01*
X1263962Y67575271D01*
X1575271Y67263962D01*
X1941331Y67019369D01*
X2348075Y66850890D01*
X2779872Y66765000D01*
X3220128Y66765000D01*
X3651925Y66850890D01*
X4058669Y67019369D01*
X4424729Y67263962D01*
X4736038Y67575271D01*
X4980631Y67941331D01*
X5149110Y68348075D01*
X5223356Y68721335D01*
X23965000Y68721335D01*
X23965000Y68438665D01*
X24020147Y68161426D01*
X24128320Y67900273D01*
X24285363Y67665241D01*
X24485241Y67465363D01*
X24720273Y67308320D01*
X24981426Y67200147D01*
X25258665Y67145000D01*
X25541335Y67145000D01*
X25818574Y67200147D01*
X26079727Y67308320D01*
X26314759Y67465363D01*
X26514637Y67665241D01*
X26671680Y67900273D01*
X26779853Y68161426D01*
X26835000Y68438665D01*
X26835000Y68721335D01*
X26779853Y68998574D01*
X26671680Y69259727D01*
X26514637Y69494759D01*
X26314759Y69694637D01*
X26079727Y69851680D01*
X25818574Y69959853D01*
X25541335Y70015000D01*
X25258665Y70015000D01*
X24981426Y69959853D01*
X24720273Y69851680D01*
X24485241Y69694637D01*
X24285363Y69494759D01*
X24128320Y69259727D01*
X24020147Y68998574D01*
X23965000Y68721335D01*
X5223356Y68721335D01*
X5235000Y68779872D01*
X5235000Y69220128D01*
X5149110Y69651925D01*
X4980631Y70058669D01*
X4736038Y70424729D01*
X4424729Y70736038D01*
X4058669Y70980631D01*
X3651925Y71149110D01*
X3220128Y71235000D01*
X2779872Y71235000D01*
X2348075Y71149110D01*
X1941331Y70980631D01*
X1575271Y70736038D01*
X1263962Y70424729D01*
X1019369Y70058669D01*
X850890Y69651925D01*
X765000Y69220128D01*
X710000Y69220128D01*
X710000Y71290000D01*
X46290001Y71290000D01*
X46290000Y710000D01*
G04 #@! TA.AperFunction,Conductor*
D21*
G36*
X46290000Y710000D02*
G01*
X710000Y710000D01*
X710000Y3220128D01*
X765000Y3220128D01*
X765000Y2779872D01*
X850890Y2348075D01*
X1019369Y1941331D01*
X1263962Y1575271D01*
X1575271Y1263962D01*
X1941331Y1019369D01*
X2348075Y850890D01*
X2779872Y765000D01*
X3220128Y765000D01*
X3651925Y850890D01*
X4058669Y1019369D01*
X4424729Y1263962D01*
X4736038Y1575271D01*
X4980631Y1941331D01*
X5149110Y2348075D01*
X5235000Y2779872D01*
X5235000Y3220128D01*
X5172906Y3532298D01*
X22046903Y3532298D01*
X22118486Y3288329D01*
X22373996Y3167429D01*
X22648184Y3098700D01*
X22930512Y3084783D01*
X23210130Y3126213D01*
X23472743Y3220128D01*
X41765000Y3220128D01*
X41765000Y2779872D01*
X41850890Y2348075D01*
X42019369Y1941331D01*
X42263962Y1575271D01*
X42575271Y1263962D01*
X42941331Y1019369D01*
X43348075Y850890D01*
X43779872Y765000D01*
X44220128Y765000D01*
X44651925Y850890D01*
X45058669Y1019369D01*
X45424729Y1263962D01*
X45736038Y1575271D01*
X45980631Y1941331D01*
X46149110Y2348075D01*
X46235000Y2779872D01*
X46235000Y3220128D01*
X46149110Y3651925D01*
X45980631Y4058669D01*
X45736038Y4424729D01*
X45424729Y4736038D01*
X45058669Y4980631D01*
X44651925Y5149110D01*
X44220128Y5235000D01*
X43779872Y5235000D01*
X43348075Y5149110D01*
X42941331Y4980631D01*
X42575271Y4736038D01*
X42263962Y4424729D01*
X42019369Y4058669D01*
X41850890Y3651925D01*
X41765000Y3220128D01*
X23472743Y3220128D01*
X23476292Y3221397D01*
X23601514Y3288329D01*
X23673097Y3532298D01*
X22860000Y4345395D01*
X22046903Y3532298D01*
X5172906Y3532298D01*
X5149110Y3651925D01*
X4980631Y4058669D01*
X4736038Y4424729D01*
X4706279Y4454488D01*
X21419783Y4454488D01*
X21461213Y4174870D01*
X21556397Y3908708D01*
X21623329Y3783486D01*
X21867298Y3711903D01*
X22680395Y4525000D01*
X23039605Y4525000D01*
X23852702Y3711903D01*
X24096671Y3783486D01*
X24217571Y4038996D01*
X24286300Y4313184D01*
X24300217Y4595512D01*
X24269579Y4802298D01*
X38556903Y4802298D01*
X38628486Y4558329D01*
X38883996Y4437429D01*
X39158184Y4368700D01*
X39440512Y4354783D01*
X39720130Y4396213D01*
X39986292Y4491397D01*
X40111514Y4558329D01*
X40183097Y4802298D01*
X39370000Y5615395D01*
X38556903Y4802298D01*
X24269579Y4802298D01*
X24258787Y4875130D01*
X24163603Y5141292D01*
X24096671Y5266514D01*
X23852702Y5338097D01*
X23039605Y4525000D01*
X22680395Y4525000D01*
X21867298Y5338097D01*
X21623329Y5266514D01*
X21502429Y5011004D01*
X21433700Y4736816D01*
X21419783Y4454488D01*
X4706279Y4454488D01*
X4424729Y4736038D01*
X4058669Y4980631D01*
X3651925Y5149110D01*
X3220128Y5235000D01*
X2779872Y5235000D01*
X2348075Y5149110D01*
X1941331Y4980631D01*
X1575271Y4736038D01*
X1263962Y4424729D01*
X1019369Y4058669D01*
X850890Y3651925D01*
X765000Y3220128D01*
X710000Y3220128D01*
X710000Y6491335D01*
X12535000Y6491335D01*
X12535000Y6208665D01*
X12590147Y5931426D01*
X12698320Y5670273D01*
X12855363Y5435241D01*
X13055241Y5235363D01*
X13290273Y5078320D01*
X13551426Y4970147D01*
X13828665Y4915000D01*
X14111335Y4915000D01*
X14388574Y4970147D01*
X14649727Y5078320D01*
X14884759Y5235363D01*
X15084637Y5435241D01*
X15241680Y5670273D01*
X15349853Y5931426D01*
X15405000Y6208665D01*
X15405000Y6491335D01*
X16980000Y6491335D01*
X16980000Y6208665D01*
X17035147Y5931426D01*
X17143320Y5670273D01*
X17300363Y5435241D01*
X17500241Y5235363D01*
X17735273Y5078320D01*
X17996426Y4970147D01*
X18273665Y4915000D01*
X18556335Y4915000D01*
X18833574Y4970147D01*
X19094727Y5078320D01*
X19329759Y5235363D01*
X19529637Y5435241D01*
X19584735Y5517702D01*
X22046903Y5517702D01*
X22860000Y4704605D01*
X23673097Y5517702D01*
X23612424Y5724488D01*
X37929783Y5724488D01*
X37971213Y5444870D01*
X38066397Y5178708D01*
X38133329Y5053486D01*
X38377298Y4981903D01*
X39190395Y5795000D01*
X39549605Y5795000D01*
X40362702Y4981903D01*
X40606671Y5053486D01*
X40727571Y5308996D01*
X40796300Y5583184D01*
X40810217Y5865512D01*
X40768787Y6145130D01*
X40673603Y6411292D01*
X40606671Y6536514D01*
X40362702Y6608097D01*
X39549605Y5795000D01*
X39190395Y5795000D01*
X38377298Y6608097D01*
X38133329Y6536514D01*
X38012429Y6281004D01*
X37943700Y6006816D01*
X37929783Y5724488D01*
X23612424Y5724488D01*
X23601514Y5761671D01*
X23346004Y5882571D01*
X23071816Y5951300D01*
X22789488Y5965217D01*
X22509870Y5923787D01*
X22243708Y5828603D01*
X22118486Y5761671D01*
X22046903Y5517702D01*
X19584735Y5517702D01*
X19686680Y5670273D01*
X19794853Y5931426D01*
X19850000Y6208665D01*
X19850000Y6491335D01*
X19794853Y6768574D01*
X19786930Y6787702D01*
X38556903Y6787702D01*
X39370000Y5974605D01*
X40183097Y6787702D01*
X40111514Y7031671D01*
X39856004Y7152571D01*
X39581816Y7221300D01*
X39299488Y7235217D01*
X39019870Y7193787D01*
X38753708Y7098603D01*
X38628486Y7031671D01*
X38556903Y6787702D01*
X19786930Y6787702D01*
X19686680Y7029727D01*
X19529637Y7264759D01*
X19329759Y7464637D01*
X19094727Y7621680D01*
X18833574Y7729853D01*
X18556335Y7785000D01*
X18273665Y7785000D01*
X17996426Y7729853D01*
X17735273Y7621680D01*
X17500241Y7464637D01*
X17300363Y7264759D01*
X17143320Y7029727D01*
X17035147Y6768574D01*
X16980000Y6491335D01*
X15405000Y6491335D01*
X15349853Y6768574D01*
X15241680Y7029727D01*
X15084637Y7264759D01*
X14884759Y7464637D01*
X14649727Y7621680D01*
X14388574Y7729853D01*
X14111335Y7785000D01*
X13828665Y7785000D01*
X13551426Y7729853D01*
X13290273Y7621680D01*
X13055241Y7464637D01*
X12855363Y7264759D01*
X12698320Y7029727D01*
X12590147Y6768574D01*
X12535000Y6491335D01*
X710000Y6491335D01*
X710000Y9666335D01*
X21425000Y9666335D01*
X21425000Y9383665D01*
X21480147Y9106426D01*
X21588320Y8845273D01*
X21745363Y8610241D01*
X21945241Y8410363D01*
X22180273Y8253320D01*
X22441426Y8145147D01*
X22718665Y8090000D01*
X23001335Y8090000D01*
X23278574Y8145147D01*
X23539727Y8253320D01*
X23774759Y8410363D01*
X23974637Y8610241D01*
X24131680Y8845273D01*
X24239853Y9106426D01*
X24295000Y9383665D01*
X24295000Y9666335D01*
X24239853Y9943574D01*
X24131680Y10204727D01*
X23974637Y10439759D01*
X23774759Y10639637D01*
X23539727Y10796680D01*
X23278574Y10904853D01*
X23120306Y10936335D01*
X37935000Y10936335D01*
X37935000Y10653665D01*
X37990147Y10376426D01*
X38098320Y10115273D01*
X38255363Y9880241D01*
X38455241Y9680363D01*
X38690273Y9523320D01*
X38951426Y9415147D01*
X39228665Y9360000D01*
X39511335Y9360000D01*
X39788574Y9415147D01*
X40049727Y9523320D01*
X40284759Y9680363D01*
X40484637Y9880241D01*
X40641680Y10115273D01*
X40749853Y10376426D01*
X40805000Y10653665D01*
X40805000Y10936335D01*
X40749853Y11213574D01*
X40641680Y11474727D01*
X40484637Y11709759D01*
X40284759Y11909637D01*
X40049727Y12066680D01*
X39788574Y12174853D01*
X39511335Y12230000D01*
X39228665Y12230000D01*
X38951426Y12174853D01*
X38690273Y12066680D01*
X38455241Y11909637D01*
X38255363Y11709759D01*
X38098320Y11474727D01*
X37990147Y11213574D01*
X37935000Y10936335D01*
X23120306Y10936335D01*
X23001335Y10960000D01*
X22718665Y10960000D01*
X22441426Y10904853D01*
X22180273Y10796680D01*
X21945241Y10639637D01*
X21745363Y10439759D01*
X21588320Y10204727D01*
X21480147Y9943574D01*
X21425000Y9666335D01*
X710000Y9666335D01*
X710000Y53432089D01*
X970000Y53432089D01*
X970000Y53247911D01*
X1005932Y53067271D01*
X1076414Y52897111D01*
X1178738Y52743972D01*
X1308972Y52613738D01*
X1462111Y52511414D01*
X1632271Y52440932D01*
X1812911Y52405000D01*
X1997089Y52405000D01*
X2177729Y52440932D01*
X2347889Y52511414D01*
X2501028Y52613738D01*
X2631262Y52743972D01*
X2733586Y52897111D01*
X2804068Y53067271D01*
X2840000Y53247911D01*
X2840000Y53432089D01*
X2804068Y53612729D01*
X2733586Y53782889D01*
X2640000Y53922951D01*
X2640000Y56158110D01*
X3003524Y56158110D01*
X3048175Y56010901D01*
X3173359Y55748080D01*
X3347412Y55514731D01*
X3563645Y55319822D01*
X3813748Y55170843D01*
X4088109Y55073519D01*
X4318000Y55194186D01*
X4318000Y56388000D01*
X4572000Y56388000D01*
X4572000Y55194186D01*
X4801891Y55073519D01*
X5076252Y55170843D01*
X5326355Y55319822D01*
X5542588Y55514731D01*
X5715000Y55745880D01*
X5887412Y55514731D01*
X6103645Y55319822D01*
X6353748Y55170843D01*
X6628109Y55073519D01*
X6858000Y55194186D01*
X6858000Y56388000D01*
X7112000Y56388000D01*
X7112000Y55194186D01*
X7341891Y55073519D01*
X7616252Y55170843D01*
X7866355Y55319822D01*
X8082588Y55514731D01*
X8256641Y55748080D01*
X8381825Y56010901D01*
X8426476Y56158110D01*
X8305155Y56388000D01*
X7112000Y56388000D01*
X6858000Y56388000D01*
X4572000Y56388000D01*
X4318000Y56388000D01*
X3124845Y56388000D01*
X3003524Y56158110D01*
X2640000Y56158110D01*
X2640000Y62445000D01*
X2956928Y62445000D01*
X2956928Y60745000D01*
X2969188Y60620518D01*
X3005498Y60500820D01*
X3064463Y60390506D01*
X3143815Y60293815D01*
X3240506Y60214463D01*
X3350820Y60155498D01*
X3423380Y60133487D01*
X3291525Y60001632D01*
X3129010Y59758411D01*
X3017068Y59488158D01*
X2960000Y59201260D01*
X2960000Y58908740D01*
X3017068Y58621842D01*
X3129010Y58351589D01*
X3291525Y58108368D01*
X3498368Y57901525D01*
X3680534Y57779805D01*
X3563645Y57710178D01*
X3347412Y57515269D01*
X3173359Y57281920D01*
X3048175Y57019099D01*
X3003524Y56871890D01*
X3124845Y56642000D01*
X4318000Y56642000D01*
X4318000Y56662000D01*
X4572000Y56662000D01*
X4572000Y56642000D01*
X6858000Y56642000D01*
X6858000Y56662000D01*
X7112000Y56662000D01*
X7112000Y56642000D01*
X8305155Y56642000D01*
X8426476Y56871890D01*
X8381825Y57019099D01*
X8256641Y57281920D01*
X8082588Y57515269D01*
X7866355Y57710178D01*
X7749466Y57779805D01*
X7931632Y57901525D01*
X8138475Y58108368D01*
X8300990Y58351589D01*
X8412932Y58621842D01*
X8470000Y58908740D01*
X8470000Y59201260D01*
X8412932Y59488158D01*
X8300990Y59758411D01*
X8138475Y60001632D01*
X7931632Y60208475D01*
X7757240Y60325000D01*
X7931632Y60441525D01*
X8138475Y60648368D01*
X8300990Y60891589D01*
X8412932Y61161842D01*
X8470000Y61448740D01*
X8470000Y61741260D01*
X8412932Y62028158D01*
X8300990Y62298411D01*
X8138475Y62541632D01*
X7931632Y62748475D01*
X7688411Y62910990D01*
X7418158Y63022932D01*
X7131260Y63080000D01*
X6838740Y63080000D01*
X6551842Y63022932D01*
X6281589Y62910990D01*
X6038368Y62748475D01*
X5906513Y62616620D01*
X5884502Y62689180D01*
X5825537Y62799494D01*
X5746185Y62896185D01*
X5649494Y62975537D01*
X5539180Y63034502D01*
X5419482Y63070812D01*
X5295000Y63083072D01*
X3595000Y63083072D01*
X3470518Y63070812D01*
X3350820Y63034502D01*
X3240506Y62975537D01*
X3143815Y62896185D01*
X3064463Y62799494D01*
X3005498Y62689180D01*
X2969188Y62569482D01*
X2956928Y62445000D01*
X2640000Y62445000D01*
X2640000Y62560554D01*
X3479447Y63400000D01*
X5305889Y63400000D01*
X5341994Y63396444D01*
X5378099Y63400000D01*
X5486079Y63410635D01*
X5624627Y63452663D01*
X5752314Y63520913D01*
X5864232Y63612762D01*
X5887252Y63640812D01*
X7007080Y64760640D01*
X7088982Y64678738D01*
X7242121Y64576414D01*
X7412281Y64505932D01*
X7577495Y64473068D01*
X9425001Y62625562D01*
X9425000Y56462951D01*
X9331414Y56322889D01*
X9260932Y56152729D01*
X9225000Y55972089D01*
X9225000Y55787911D01*
X9260932Y55607271D01*
X9331414Y55437111D01*
X9433738Y55283972D01*
X9563972Y55153738D01*
X9717111Y55051414D01*
X9887271Y54980932D01*
X10067911Y54945000D01*
X10252089Y54945000D01*
X10432729Y54980932D01*
X10602889Y55051414D01*
X10756028Y55153738D01*
X10886262Y55283972D01*
X10988586Y55437111D01*
X11059068Y55607271D01*
X11095000Y55787911D01*
X11095000Y55810554D01*
X11133068Y55772485D01*
X11165932Y55607271D01*
X11236414Y55437111D01*
X11338738Y55283972D01*
X11468972Y55153738D01*
X11622111Y55051414D01*
X11792271Y54980932D01*
X11965001Y54946574D01*
X11965000Y53922951D01*
X11871414Y53782889D01*
X11800932Y53612729D01*
X11766574Y53440000D01*
X10107951Y53440000D01*
X9967889Y53533586D01*
X9797729Y53604068D01*
X9617089Y53640000D01*
X9432911Y53640000D01*
X9252271Y53604068D01*
X9082111Y53533586D01*
X8928972Y53431262D01*
X8798738Y53301028D01*
X8696414Y53147889D01*
X8625932Y52977729D01*
X8590000Y52797089D01*
X8590000Y52612911D01*
X8625932Y52432271D01*
X8696414Y52262111D01*
X8798738Y52108972D01*
X8928972Y51978738D01*
X9082111Y51876414D01*
X9252271Y51805932D01*
X9432911Y51770000D01*
X9617089Y51770000D01*
X9797729Y51805932D01*
X9967889Y51876414D01*
X10107951Y51970000D01*
X13588897Y51970000D01*
X13625002Y51966444D01*
X13661107Y51970000D01*
X13769087Y51980635D01*
X13907635Y52022663D01*
X14035322Y52090913D01*
X14147240Y52182762D01*
X14170261Y52210812D01*
X16369193Y54409744D01*
X16397238Y54432760D01*
X16489087Y54544678D01*
X16557022Y54671775D01*
X16557337Y54672364D01*
X16599365Y54810913D01*
X16613556Y54954998D01*
X16610000Y54991103D01*
X16610000Y64589497D01*
X16727271Y64540922D01*
X16892485Y64508058D01*
X18315001Y63085542D01*
X18315000Y53287951D01*
X18221414Y53147889D01*
X18150932Y52977729D01*
X18115000Y52797089D01*
X18115000Y52612911D01*
X18150932Y52432271D01*
X18221414Y52262111D01*
X18323738Y52108972D01*
X18453972Y51978738D01*
X18607111Y51876414D01*
X18777271Y51805932D01*
X18957911Y51770000D01*
X19142089Y51770000D01*
X19322729Y51805932D01*
X19492889Y51876414D01*
X19646028Y51978738D01*
X19776262Y52108972D01*
X19844658Y52211335D01*
X23330000Y52211335D01*
X23330000Y51928665D01*
X23385147Y51651426D01*
X23493320Y51390273D01*
X23650363Y51155241D01*
X23850241Y50955363D01*
X24085273Y50798320D01*
X24346426Y50690147D01*
X24623665Y50635000D01*
X24906335Y50635000D01*
X25183574Y50690147D01*
X25444727Y50798320D01*
X25679759Y50955363D01*
X25879637Y51155241D01*
X26036680Y51390273D01*
X26144853Y51651426D01*
X26200000Y51928665D01*
X26200000Y52211335D01*
X28410000Y52211335D01*
X28410000Y51928665D01*
X28465147Y51651426D01*
X28573320Y51390273D01*
X28730363Y51155241D01*
X28930241Y50955363D01*
X29165273Y50798320D01*
X29426426Y50690147D01*
X29703665Y50635000D01*
X29986335Y50635000D01*
X30263574Y50690147D01*
X30524727Y50798320D01*
X30759759Y50955363D01*
X30959637Y51155241D01*
X31116680Y51390273D01*
X31224853Y51651426D01*
X31280000Y51928665D01*
X31280000Y52211335D01*
X31224853Y52488574D01*
X31116680Y52749727D01*
X30959637Y52984759D01*
X30759759Y53184637D01*
X30524727Y53341680D01*
X30263574Y53449853D01*
X29986335Y53505000D01*
X29703665Y53505000D01*
X29426426Y53449853D01*
X29165273Y53341680D01*
X28930241Y53184637D01*
X28730363Y52984759D01*
X28573320Y52749727D01*
X28465147Y52488574D01*
X28410000Y52211335D01*
X26200000Y52211335D01*
X26144853Y52488574D01*
X26036680Y52749727D01*
X25879637Y52984759D01*
X25679759Y53184637D01*
X25444727Y53341680D01*
X25183574Y53449853D01*
X24906335Y53505000D01*
X24623665Y53505000D01*
X24346426Y53449853D01*
X24085273Y53341680D01*
X23850241Y53184637D01*
X23650363Y52984759D01*
X23493320Y52749727D01*
X23385147Y52488574D01*
X23330000Y52211335D01*
X19844658Y52211335D01*
X19878586Y52262111D01*
X19949068Y52432271D01*
X19985000Y52612911D01*
X19985000Y52797089D01*
X19949068Y52977729D01*
X19878586Y53147889D01*
X19785000Y53287951D01*
X19785000Y59831335D01*
X23330000Y59831335D01*
X23330000Y59548665D01*
X23385147Y59271426D01*
X23493320Y59010273D01*
X23650363Y58775241D01*
X23850241Y58575363D01*
X24085273Y58418320D01*
X24346426Y58310147D01*
X24623665Y58255000D01*
X24906335Y58255000D01*
X25183574Y58310147D01*
X25444727Y58418320D01*
X25679759Y58575363D01*
X25879637Y58775241D01*
X26036680Y59010273D01*
X26144853Y59271426D01*
X26200000Y59548665D01*
X26200000Y59831335D01*
X26144853Y60108574D01*
X26036680Y60369727D01*
X25879637Y60604759D01*
X25679759Y60804637D01*
X25444727Y60961680D01*
X25183574Y61069853D01*
X24906335Y61125000D01*
X24623665Y61125000D01*
X24346426Y61069853D01*
X24085273Y60961680D01*
X23850241Y60804637D01*
X23650363Y60604759D01*
X23493320Y60369727D01*
X23385147Y60108574D01*
X23330000Y59831335D01*
X19785000Y59831335D01*
X19785000Y62033098D01*
X19840363Y61950241D01*
X20040241Y61750363D01*
X20275273Y61593320D01*
X20536426Y61485147D01*
X20813665Y61430000D01*
X21096335Y61430000D01*
X21373574Y61485147D01*
X21634727Y61593320D01*
X21869759Y61750363D01*
X22069637Y61950241D01*
X22189748Y62130000D01*
X24648895Y62130000D01*
X24671513Y62127772D01*
X24675635Y62085916D01*
X24717663Y61947368D01*
X24785913Y61819681D01*
X24877762Y61707763D01*
X24905808Y61684746D01*
X26570001Y60020552D01*
X26570000Y57821105D01*
X26566444Y57785000D01*
X26580312Y57644193D01*
X26580635Y57640916D01*
X26622663Y57502368D01*
X26690913Y57374681D01*
X26782762Y57262763D01*
X26810808Y57239746D01*
X32920001Y51130552D01*
X32920000Y38700127D01*
X31593731Y37373857D01*
X31565686Y37350841D01*
X31473837Y37238923D01*
X31448792Y37192068D01*
X20401172Y48239687D01*
X20378151Y48267738D01*
X20266233Y48359587D01*
X20138546Y48427837D01*
X19999998Y48469865D01*
X19892018Y48480500D01*
X19855913Y48484056D01*
X19819808Y48480500D01*
X19632951Y48480500D01*
X19492889Y48574086D01*
X19322729Y48644568D01*
X19142089Y48680500D01*
X18957911Y48680500D01*
X18777271Y48644568D01*
X18607111Y48574086D01*
X18453972Y48471762D01*
X18323738Y48341528D01*
X18221414Y48188389D01*
X18150932Y48018229D01*
X18115000Y47837589D01*
X18115000Y47653411D01*
X18150932Y47472771D01*
X18221414Y47302611D01*
X18323738Y47149472D01*
X18453972Y47019238D01*
X18607111Y46916914D01*
X18777271Y46846432D01*
X18957911Y46810500D01*
X19142089Y46810500D01*
X19322729Y46846432D01*
X19492889Y46916914D01*
X19584105Y46977862D01*
X23488867Y43073100D01*
X18350605Y43073100D01*
X18314500Y43076656D01*
X18278395Y43073100D01*
X18170415Y43062465D01*
X18031867Y43020437D01*
X17904180Y42952187D01*
X17792262Y42860338D01*
X17769241Y42832287D01*
X17442508Y42505554D01*
X17414463Y42482538D01*
X17322613Y42370620D01*
X17254363Y42242933D01*
X17221525Y42134681D01*
X17212335Y42104385D01*
X17198144Y41960300D01*
X17201700Y41924195D01*
X17201700Y41478405D01*
X17198144Y41442300D01*
X17212335Y41298215D01*
X17218478Y41277964D01*
X17254363Y41159668D01*
X17322613Y41031981D01*
X17414462Y40920063D01*
X17442508Y40897046D01*
X17652701Y40686853D01*
X17652701Y40211400D01*
X17626111Y40211400D01*
X17445471Y40175468D01*
X17437582Y40172200D01*
X14609999Y42999783D01*
X14609999Y43238897D01*
X14613555Y43275002D01*
X14599364Y43419087D01*
X14577357Y43491632D01*
X14557336Y43557634D01*
X14489086Y43685321D01*
X14421509Y43767663D01*
X14420252Y43769195D01*
X14420249Y43769198D01*
X14397236Y43797239D01*
X14369197Y43820250D01*
X8420344Y49769103D01*
X8470000Y50018740D01*
X8470000Y50311260D01*
X8412932Y50598158D01*
X8300990Y50868411D01*
X8138475Y51111632D01*
X7931632Y51318475D01*
X7688411Y51480990D01*
X7418158Y51592932D01*
X7131260Y51650000D01*
X6838740Y51650000D01*
X6551842Y51592932D01*
X6281589Y51480990D01*
X6038368Y51318475D01*
X5906513Y51186620D01*
X5884502Y51259180D01*
X5825537Y51369494D01*
X5746185Y51466185D01*
X5649494Y51545537D01*
X5539180Y51604502D01*
X5419482Y51640812D01*
X5295000Y51653072D01*
X3595000Y51653072D01*
X3470518Y51640812D01*
X3350820Y51604502D01*
X3240506Y51545537D01*
X3143815Y51466185D01*
X3064463Y51369494D01*
X3005498Y51259180D01*
X2969188Y51139482D01*
X2956928Y51015000D01*
X2956928Y50496375D01*
X2505808Y50045254D01*
X2477762Y50022237D01*
X2385913Y49910319D01*
X2317663Y49782632D01*
X2309184Y49754680D01*
X2275635Y49644085D01*
X2261444Y49500000D01*
X2265000Y49463895D01*
X2265001Y42121115D01*
X2261444Y42085000D01*
X2275635Y41940915D01*
X2311940Y41821237D01*
X2317664Y41802367D01*
X2385914Y41674680D01*
X2477763Y41562762D01*
X2505808Y41539746D01*
X3212376Y40833177D01*
X3129010Y40708411D01*
X3017068Y40438158D01*
X2960000Y40151260D01*
X2960000Y39858740D01*
X3017068Y39571842D01*
X3129010Y39301589D01*
X3291525Y39058368D01*
X3498368Y38851525D01*
X3672760Y38735000D01*
X3498368Y38618475D01*
X3291525Y38411632D01*
X3129010Y38168411D01*
X3017068Y37898158D01*
X2960000Y37611260D01*
X2960000Y37318740D01*
X3017068Y37031842D01*
X3129010Y36761589D01*
X3291525Y36518368D01*
X3498368Y36311525D01*
X3741589Y36149010D01*
X4011842Y36037068D01*
X4298740Y35980000D01*
X4591260Y35980000D01*
X4840897Y36029656D01*
X6518346Y34352207D01*
X6541362Y34324162D01*
X6569406Y34301147D01*
X6653280Y34232313D01*
X6780966Y34164063D01*
X6919515Y34122035D01*
X7063600Y34107844D01*
X7099705Y34111400D01*
X14589034Y34111400D01*
X8116371Y27638736D01*
X7931632Y27823475D01*
X7757240Y27940000D01*
X7931632Y28056525D01*
X8138475Y28263368D01*
X8300990Y28506589D01*
X8412932Y28776842D01*
X8470000Y29063740D01*
X8470000Y29356260D01*
X8412932Y29643158D01*
X8300990Y29913411D01*
X8138475Y30156632D01*
X7931632Y30363475D01*
X7688411Y30525990D01*
X7418158Y30637932D01*
X7131260Y30695000D01*
X6838740Y30695000D01*
X6551842Y30637932D01*
X6281589Y30525990D01*
X6038368Y30363475D01*
X5906513Y30231620D01*
X5884502Y30304180D01*
X5825537Y30414494D01*
X5746185Y30511185D01*
X5649494Y30590537D01*
X5539180Y30649502D01*
X5419482Y30685812D01*
X5295000Y30698072D01*
X3595000Y30698072D01*
X3470518Y30685812D01*
X3350820Y30649502D01*
X3240506Y30590537D01*
X3143815Y30511185D01*
X3064463Y30414494D01*
X3005498Y30304180D01*
X2969188Y30184482D01*
X2956928Y30060000D01*
X2956928Y28360000D01*
X2969188Y28235518D01*
X3005498Y28115820D01*
X3064463Y28005506D01*
X3143815Y27908815D01*
X3240506Y27829463D01*
X3350820Y27770498D01*
X3423380Y27748487D01*
X3291525Y27616632D01*
X3129010Y27373411D01*
X3017068Y27103158D01*
X2960000Y26816260D01*
X2960000Y26523740D01*
X3017068Y26236842D01*
X3129010Y25966589D01*
X3291525Y25723368D01*
X3498368Y25516525D01*
X3672760Y25400000D01*
X3498368Y25283475D01*
X3291525Y25076632D01*
X3129010Y24833411D01*
X3017068Y24563158D01*
X2960000Y24276260D01*
X2960000Y23983740D01*
X3017068Y23696842D01*
X3129010Y23426589D01*
X3291525Y23183368D01*
X3498368Y22976525D01*
X3672760Y22860000D01*
X3498368Y22743475D01*
X3291525Y22536632D01*
X3129010Y22293411D01*
X3017068Y22023158D01*
X2960000Y21736260D01*
X2960000Y21443740D01*
X3017068Y21156842D01*
X3129010Y20886589D01*
X3291525Y20643368D01*
X3498368Y20436525D01*
X3672760Y20320000D01*
X3498368Y20203475D01*
X3291525Y19996632D01*
X3129010Y19753411D01*
X3017068Y19483158D01*
X2960000Y19196260D01*
X2960000Y18903740D01*
X3017068Y18616842D01*
X3129010Y18346589D01*
X3291525Y18103368D01*
X3498368Y17896525D01*
X3672760Y17780000D01*
X3498368Y17663475D01*
X3291525Y17456632D01*
X3129010Y17213411D01*
X3017068Y16943158D01*
X2960000Y16656260D01*
X2960000Y16363740D01*
X3017068Y16076842D01*
X3129010Y15806589D01*
X3291525Y15563368D01*
X3498368Y15356525D01*
X3672760Y15240000D01*
X3498368Y15123475D01*
X3291525Y14916632D01*
X3129010Y14673411D01*
X3017068Y14403158D01*
X2960000Y14116260D01*
X2960000Y13823740D01*
X3017068Y13536842D01*
X3129010Y13266589D01*
X3291525Y13023368D01*
X3498368Y12816525D01*
X3672760Y12700000D01*
X3498368Y12583475D01*
X3291525Y12376632D01*
X3129010Y12133411D01*
X3017068Y11863158D01*
X2960000Y11576260D01*
X2960000Y11283740D01*
X3017068Y10996842D01*
X3129010Y10726589D01*
X3291525Y10483368D01*
X3498368Y10276525D01*
X3741589Y10114010D01*
X4011842Y10002068D01*
X4298740Y9945000D01*
X4591260Y9945000D01*
X4878158Y10002068D01*
X5148411Y10114010D01*
X5391632Y10276525D01*
X5598475Y10483368D01*
X5715000Y10657760D01*
X5831525Y10483368D01*
X6038368Y10276525D01*
X6281589Y10114010D01*
X6551842Y10002068D01*
X6838740Y9945000D01*
X7131260Y9945000D01*
X7418158Y10002068D01*
X7688411Y10114010D01*
X7931632Y10276525D01*
X8138475Y10483368D01*
X8300990Y10726589D01*
X8412932Y10996842D01*
X8470000Y11283740D01*
X8470000Y11491335D01*
X16980000Y11491335D01*
X16980000Y11208665D01*
X17035147Y10931426D01*
X17143320Y10670273D01*
X17300363Y10435241D01*
X17500241Y10235363D01*
X17735273Y10078320D01*
X17996426Y9970147D01*
X18273665Y9915000D01*
X18556335Y9915000D01*
X18833574Y9970147D01*
X19094727Y10078320D01*
X19329759Y10235363D01*
X19529637Y10435241D01*
X19686680Y10670273D01*
X19794853Y10931426D01*
X19850000Y11208665D01*
X19850000Y11491335D01*
X19794853Y11768574D01*
X19686680Y12029727D01*
X19529637Y12264759D01*
X19329759Y12464637D01*
X19094727Y12621680D01*
X18833574Y12729853D01*
X18556335Y12785000D01*
X18273665Y12785000D01*
X17996426Y12729853D01*
X17735273Y12621680D01*
X17500241Y12464637D01*
X17300363Y12264759D01*
X17143320Y12029727D01*
X17035147Y11768574D01*
X16980000Y11491335D01*
X8470000Y11491335D01*
X8470000Y11576260D01*
X8412932Y11863158D01*
X8300990Y12133411D01*
X8138475Y12376632D01*
X7931632Y12583475D01*
X7757240Y12700000D01*
X7931632Y12816525D01*
X8138475Y13023368D01*
X8300990Y13266589D01*
X8412932Y13536842D01*
X8470000Y13823740D01*
X8470000Y14116260D01*
X8412932Y14403158D01*
X8300990Y14673411D01*
X8138475Y14916632D01*
X7931632Y15123475D01*
X7757240Y15240000D01*
X7931632Y15356525D01*
X8138475Y15563368D01*
X8300990Y15806589D01*
X8412932Y16076842D01*
X8470000Y16363740D01*
X8470000Y16656260D01*
X8412932Y16943158D01*
X8300990Y17213411D01*
X8138475Y17456632D01*
X7931632Y17663475D01*
X7757240Y17780000D01*
X7931632Y17896525D01*
X7956442Y17921335D01*
X12535000Y17921335D01*
X12535000Y17638665D01*
X12590147Y17361426D01*
X12698320Y17100273D01*
X12855363Y16865241D01*
X13055241Y16665363D01*
X13290273Y16508320D01*
X13551426Y16400147D01*
X13828665Y16345000D01*
X14111335Y16345000D01*
X14388574Y16400147D01*
X14649727Y16508320D01*
X14884759Y16665363D01*
X15084637Y16865241D01*
X15204748Y17045000D01*
X16003312Y17045000D01*
X15987762Y17032238D01*
X15964746Y17004193D01*
X14323376Y15362822D01*
X14111335Y15405000D01*
X13828665Y15405000D01*
X13551426Y15349853D01*
X13290273Y15241680D01*
X13055241Y15084637D01*
X12855363Y14884759D01*
X12698320Y14649727D01*
X12590147Y14388574D01*
X12535000Y14111335D01*
X12535000Y13828665D01*
X12590147Y13551426D01*
X12698320Y13290273D01*
X12855363Y13055241D01*
X13055241Y12855363D01*
X13290273Y12698320D01*
X13551426Y12590147D01*
X13828665Y12535000D01*
X14111335Y12535000D01*
X14388574Y12590147D01*
X14649727Y12698320D01*
X14884759Y12855363D01*
X15084637Y13055241D01*
X15241680Y13290273D01*
X15349853Y13551426D01*
X15405000Y13828665D01*
X15405000Y14111335D01*
X15362822Y14323376D01*
X16814447Y15775000D01*
X17583098Y15775000D01*
X17500241Y15719637D01*
X17300363Y15519759D01*
X17143320Y15284727D01*
X17035147Y15023574D01*
X16980000Y14746335D01*
X16980000Y14463665D01*
X17035147Y14186426D01*
X17143320Y13925273D01*
X17300363Y13690241D01*
X17500241Y13490363D01*
X17735273Y13333320D01*
X17996426Y13225147D01*
X18273665Y13170000D01*
X18556335Y13170000D01*
X18833574Y13225147D01*
X19094727Y13333320D01*
X19329759Y13490363D01*
X19529637Y13690241D01*
X19686680Y13925273D01*
X19794853Y14186426D01*
X19850000Y14463665D01*
X19850000Y14746335D01*
X19794853Y15023574D01*
X19686680Y15284727D01*
X19529637Y15519759D01*
X19329759Y15719637D01*
X19246902Y15775000D01*
X19737049Y15775000D01*
X19877111Y15681414D01*
X20047271Y15610932D01*
X20227911Y15575000D01*
X20412089Y15575000D01*
X20592729Y15610932D01*
X20762889Y15681414D01*
X20916028Y15783738D01*
X21046262Y15913972D01*
X21148586Y16067111D01*
X21219068Y16237271D01*
X21255000Y16417911D01*
X21255000Y16602089D01*
X21219068Y16782729D01*
X21148586Y16952889D01*
X21087040Y17045000D01*
X22276987Y17045000D01*
X22417049Y16951414D01*
X22587209Y16880932D01*
X22767849Y16845000D01*
X22952027Y16845000D01*
X23132667Y16880932D01*
X23302827Y16951414D01*
X23455966Y17053738D01*
X23586200Y17183972D01*
X23688524Y17337111D01*
X23759006Y17507271D01*
X23794938Y17687911D01*
X23794938Y17872089D01*
X23759006Y18052729D01*
X23688524Y18222889D01*
X23586200Y18376028D01*
X23455966Y18506262D01*
X23302827Y18608586D01*
X23132667Y18679068D01*
X22952027Y18715000D01*
X22767849Y18715000D01*
X22587209Y18679068D01*
X22417049Y18608586D01*
X22276987Y18515000D01*
X15204748Y18515000D01*
X15084637Y18694759D01*
X14884759Y18894637D01*
X14649727Y19051680D01*
X14388574Y19159853D01*
X14111335Y19215000D01*
X13828665Y19215000D01*
X13551426Y19159853D01*
X13290273Y19051680D01*
X13055241Y18894637D01*
X12855363Y18694759D01*
X12698320Y18459727D01*
X12590147Y18198574D01*
X12535000Y17921335D01*
X7956442Y17921335D01*
X8138475Y18103368D01*
X8300990Y18346589D01*
X8412932Y18616842D01*
X8470000Y18903740D01*
X8470000Y19196260D01*
X8412932Y19483158D01*
X8300990Y19753411D01*
X8138475Y19996632D01*
X7931632Y20203475D01*
X7757240Y20320000D01*
X7931632Y20436525D01*
X8138475Y20643368D01*
X8300990Y20886589D01*
X8412932Y21156842D01*
X8470000Y21443740D01*
X8470000Y21736260D01*
X8412932Y22023158D01*
X8380003Y22102657D01*
X10600841Y24323495D01*
X10601414Y24322111D01*
X10703738Y24168972D01*
X10833972Y24038738D01*
X10987111Y23936414D01*
X11157271Y23865932D01*
X11337911Y23830000D01*
X11522089Y23830000D01*
X11702729Y23865932D01*
X11872889Y23936414D01*
X12026028Y24038738D01*
X12156262Y24168972D01*
X12258586Y24322111D01*
X12329068Y24492271D01*
X12361932Y24657486D01*
X12618184Y24913738D01*
X12698320Y24720273D01*
X12855363Y24485241D01*
X13055241Y24285363D01*
X13235000Y24165252D01*
X13235001Y22896115D01*
X13231444Y22860000D01*
X13245635Y22715915D01*
X13267580Y22643574D01*
X13287664Y22577367D01*
X13355914Y22449680D01*
X13447763Y22337762D01*
X13475807Y22314747D01*
X16599746Y19190807D01*
X16622762Y19162762D01*
X16734680Y19070913D01*
X16862367Y19002663D01*
X16958886Y18973384D01*
X17000914Y18960635D01*
X17144999Y18946444D01*
X17181104Y18950000D01*
X26087049Y18950000D01*
X26227111Y18856414D01*
X26397271Y18785932D01*
X26577911Y18750000D01*
X26762089Y18750000D01*
X26942729Y18785932D01*
X27112889Y18856414D01*
X27266028Y18958738D01*
X27396262Y19088972D01*
X27498586Y19242111D01*
X27569068Y19412271D01*
X27605000Y19592911D01*
X27605000Y19777089D01*
X27569068Y19957729D01*
X27498586Y20127889D01*
X27396262Y20281028D01*
X27266028Y20411262D01*
X27112889Y20513586D01*
X26942729Y20584068D01*
X26762089Y20620000D01*
X26577911Y20620000D01*
X26397271Y20584068D01*
X26227111Y20513586D01*
X26087049Y20420000D01*
X17449447Y20420000D01*
X14705000Y23164446D01*
X14705000Y24165252D01*
X14884759Y24285363D01*
X15084637Y24485241D01*
X15241680Y24720273D01*
X15349853Y24981426D01*
X15405000Y25258665D01*
X15405000Y25541335D01*
X15349853Y25818574D01*
X15241680Y26079727D01*
X15084637Y26314759D01*
X14884759Y26514637D01*
X14649727Y26671680D01*
X14456262Y26751816D01*
X17706437Y30001991D01*
X17690635Y29949898D01*
X17676444Y29805813D01*
X17680001Y29769698D01*
X17680000Y23459748D01*
X17500241Y23339637D01*
X17300363Y23139759D01*
X17143320Y22904727D01*
X17035147Y22643574D01*
X16980000Y22366335D01*
X16980000Y22083665D01*
X17035147Y21806426D01*
X17143320Y21545273D01*
X17300363Y21310241D01*
X17500241Y21110363D01*
X17735273Y20953320D01*
X17996426Y20845147D01*
X18273665Y20790000D01*
X18556335Y20790000D01*
X18833574Y20845147D01*
X19094727Y20953320D01*
X19329759Y21110363D01*
X19529637Y21310241D01*
X19686680Y21545273D01*
X19794853Y21806426D01*
X19850000Y22083665D01*
X19850000Y22366335D01*
X19794853Y22643574D01*
X19686680Y22904727D01*
X19622129Y23001335D01*
X29045000Y23001335D01*
X29045000Y22718665D01*
X29100147Y22441426D01*
X29208320Y22180273D01*
X29365363Y21945241D01*
X29565241Y21745363D01*
X29800273Y21588320D01*
X30061426Y21480147D01*
X30338665Y21425000D01*
X30621335Y21425000D01*
X30898574Y21480147D01*
X31159727Y21588320D01*
X31394759Y21745363D01*
X31516694Y21867298D01*
X34666903Y21867298D01*
X34738486Y21623329D01*
X34993996Y21502429D01*
X35268184Y21433700D01*
X35550512Y21419783D01*
X35830130Y21461213D01*
X36096292Y21556397D01*
X36221514Y21623329D01*
X36293097Y21867298D01*
X35480000Y22680395D01*
X34666903Y21867298D01*
X31516694Y21867298D01*
X31594637Y21945241D01*
X31751680Y22180273D01*
X31859853Y22441426D01*
X31915000Y22718665D01*
X31915000Y22789488D01*
X34039783Y22789488D01*
X34081213Y22509870D01*
X34176397Y22243708D01*
X34243329Y22118486D01*
X34487298Y22046903D01*
X35300395Y22860000D01*
X34487298Y23673097D01*
X34243329Y23601514D01*
X34122429Y23346004D01*
X34053700Y23071816D01*
X34039783Y22789488D01*
X31915000Y22789488D01*
X31915000Y23001335D01*
X31859853Y23278574D01*
X31751680Y23539727D01*
X31594637Y23774759D01*
X31516694Y23852702D01*
X34666903Y23852702D01*
X35480000Y23039605D01*
X36293097Y23852702D01*
X36221514Y24096671D01*
X35966004Y24217571D01*
X35691816Y24286300D01*
X35409488Y24300217D01*
X35129870Y24258787D01*
X34863708Y24163603D01*
X34738486Y24096671D01*
X34666903Y23852702D01*
X31516694Y23852702D01*
X31394759Y23974637D01*
X31159727Y24131680D01*
X30898574Y24239853D01*
X30621335Y24295000D01*
X30338665Y24295000D01*
X30061426Y24239853D01*
X29800273Y24131680D01*
X29565241Y23974637D01*
X29365363Y23774759D01*
X29208320Y23539727D01*
X29100147Y23278574D01*
X29045000Y23001335D01*
X19622129Y23001335D01*
X19529637Y23139759D01*
X19329759Y23339637D01*
X19150000Y23459748D01*
X19150000Y29501367D01*
X24872503Y35223870D01*
X25037717Y35256733D01*
X25207877Y35327215D01*
X25361016Y35429539D01*
X25491250Y35559773D01*
X25593574Y35712912D01*
X25664056Y35883072D01*
X25699988Y36063712D01*
X25699988Y36247890D01*
X25664056Y36428530D01*
X25593574Y36598690D01*
X25491250Y36751829D01*
X25361016Y36882063D01*
X25207877Y36984387D01*
X25037717Y37054869D01*
X24857077Y37090801D01*
X24672899Y37090801D01*
X24492259Y37054869D01*
X24322099Y36984387D01*
X24168960Y36882063D01*
X24038726Y36751829D01*
X23936402Y36598690D01*
X23865920Y36428530D01*
X23833057Y36263316D01*
X20163515Y32593775D01*
X20122528Y32634762D01*
X19969389Y32737086D01*
X19799229Y32807568D01*
X19618589Y32843500D01*
X19434411Y32843500D01*
X19253771Y32807568D01*
X19083611Y32737086D01*
X18943549Y32643500D01*
X18920847Y32643500D01*
X20285916Y34008569D01*
X20451129Y34041432D01*
X20621289Y34111914D01*
X20774428Y34214238D01*
X20904662Y34344472D01*
X21006986Y34497611D01*
X21077468Y34667771D01*
X21113400Y34848411D01*
X21113400Y35032589D01*
X21077468Y35213229D01*
X21006986Y35383389D01*
X20904662Y35536528D01*
X20774428Y35666762D01*
X20621289Y35769086D01*
X20451129Y35839568D01*
X20270489Y35875500D01*
X20086311Y35875500D01*
X19905671Y35839568D01*
X19903465Y35838654D01*
X20926193Y36861382D01*
X20954238Y36884398D01*
X21046087Y36996316D01*
X21085027Y37069168D01*
X21114337Y37124002D01*
X21143487Y37220097D01*
X21158262Y37234872D01*
X21260586Y37388011D01*
X21331068Y37558171D01*
X21367000Y37738811D01*
X21367000Y37922989D01*
X21331068Y38103629D01*
X21260586Y38273789D01*
X21158262Y38426928D01*
X21028028Y38557162D01*
X20874889Y38659486D01*
X20704729Y38729968D01*
X20558900Y38758976D01*
X20558900Y40373149D01*
X20652486Y40513211D01*
X20722968Y40683371D01*
X20758900Y40864011D01*
X20758900Y41048189D01*
X20722968Y41228829D01*
X20652486Y41398989D01*
X20550162Y41552128D01*
X20499190Y41603100D01*
X24031044Y41603100D01*
X29811200Y35822943D01*
X29811201Y33745952D01*
X29717614Y33605889D01*
X29647132Y33435729D01*
X29611200Y33255089D01*
X29611200Y33070911D01*
X29647132Y32890271D01*
X29717614Y32720111D01*
X29819938Y32566972D01*
X29950172Y32436738D01*
X30103311Y32334414D01*
X30273471Y32263932D01*
X30454111Y32228000D01*
X30553553Y32228000D01*
X25982629Y27657075D01*
X24564076Y27657075D01*
X24424014Y27750661D01*
X24253854Y27821143D01*
X24073214Y27857075D01*
X23889036Y27857075D01*
X23708396Y27821143D01*
X23538236Y27750661D01*
X23385097Y27648337D01*
X23254863Y27518103D01*
X23152539Y27364964D01*
X23082057Y27194804D01*
X23046125Y27014164D01*
X23046125Y26829986D01*
X23082057Y26649346D01*
X23152539Y26479186D01*
X23254863Y26326047D01*
X23385097Y26195813D01*
X23538236Y26093489D01*
X23708396Y26023007D01*
X23889036Y25987075D01*
X24073214Y25987075D01*
X24253854Y26023007D01*
X24424014Y26093489D01*
X24564076Y26187075D01*
X26250970Y26187075D01*
X26287075Y26183519D01*
X26323180Y26187075D01*
X26431160Y26197710D01*
X26569708Y26239738D01*
X26697395Y26307988D01*
X26809313Y26399837D01*
X26832334Y26427888D01*
X29551678Y29147232D01*
X29594372Y29104538D01*
X29747511Y29002214D01*
X29917671Y28931732D01*
X30098311Y28895800D01*
X30282489Y28895800D01*
X30463129Y28931732D01*
X30633289Y29002214D01*
X30786428Y29104538D01*
X30916662Y29234772D01*
X31018986Y29387911D01*
X31089468Y29558071D01*
X31122332Y29723285D01*
X32582120Y31183073D01*
X32610160Y31206085D01*
X32633173Y31234126D01*
X32633176Y31234129D01*
X32702010Y31318003D01*
X32753485Y31414306D01*
X32770260Y31445690D01*
X32812288Y31584238D01*
X32822923Y31692218D01*
X32822923Y31692219D01*
X32826479Y31728323D01*
X32822923Y31764428D01*
X32822923Y36524157D01*
X34149197Y37850430D01*
X34177237Y37873442D01*
X34190000Y37888994D01*
X34190000Y35507953D01*
X34096409Y35367884D01*
X34025927Y35197724D01*
X33989995Y35017084D01*
X33989995Y34832906D01*
X34025927Y34652266D01*
X34096409Y34482106D01*
X34198733Y34328967D01*
X34328967Y34198733D01*
X34482106Y34096409D01*
X34652266Y34025927D01*
X34832906Y33989995D01*
X35017084Y33989995D01*
X35197724Y34025927D01*
X35367884Y34096409D01*
X35521023Y34198733D01*
X35651257Y34328967D01*
X35753581Y34482106D01*
X35824063Y34652266D01*
X35859995Y34832906D01*
X35859995Y35017084D01*
X35824063Y35197724D01*
X35753581Y35367884D01*
X35660000Y35507938D01*
X35660000Y42675554D01*
X36095001Y42240552D01*
X36095000Y26706105D01*
X36091444Y26670000D01*
X36105635Y26525915D01*
X36118384Y26483887D01*
X36147663Y26387368D01*
X36215913Y26259681D01*
X36307762Y26147763D01*
X36335807Y26124747D01*
X36730001Y25730552D01*
X36730001Y23576576D01*
X36716671Y23601514D01*
X36472702Y23673097D01*
X35659605Y22860000D01*
X36472702Y22046903D01*
X36716671Y22118486D01*
X36730001Y22146657D01*
X36730000Y15822971D01*
X36636414Y15682909D01*
X36565932Y15512749D01*
X36530000Y15332109D01*
X36530000Y15147931D01*
X36565932Y14967291D01*
X36636414Y14797131D01*
X36738738Y14643992D01*
X36868972Y14513758D01*
X37022111Y14411434D01*
X37192271Y14340952D01*
X37372911Y14305020D01*
X37557089Y14305020D01*
X37737729Y14340952D01*
X37907889Y14411434D01*
X38000029Y14473000D01*
X38000029Y13917952D01*
X37906442Y13777889D01*
X37835960Y13607729D01*
X37800028Y13427089D01*
X37800028Y13242911D01*
X37835960Y13062271D01*
X37906442Y12892111D01*
X38008766Y12738972D01*
X38139000Y12608738D01*
X38292139Y12506414D01*
X38462299Y12435932D01*
X38642939Y12400000D01*
X38827117Y12400000D01*
X39007757Y12435932D01*
X39177917Y12506414D01*
X39331056Y12608738D01*
X39461290Y12738972D01*
X39563614Y12892111D01*
X39634096Y13062271D01*
X39670028Y13242911D01*
X39670028Y13427089D01*
X39634096Y13607729D01*
X39563614Y13777889D01*
X39470028Y13917951D01*
X39470028Y19826335D01*
X39840000Y19826335D01*
X39840000Y19543665D01*
X39895147Y19266426D01*
X40003320Y19005273D01*
X40160363Y18770241D01*
X40360241Y18570363D01*
X40595273Y18413320D01*
X40856426Y18305147D01*
X41133665Y18250000D01*
X41416335Y18250000D01*
X41693574Y18305147D01*
X41954727Y18413320D01*
X42189759Y18570363D01*
X42389637Y18770241D01*
X42546680Y19005273D01*
X42654853Y19266426D01*
X42710000Y19543665D01*
X42710000Y19826335D01*
X42654853Y20103574D01*
X42546680Y20364727D01*
X42389637Y20599759D01*
X42189759Y20799637D01*
X41954727Y20956680D01*
X41693574Y21064853D01*
X41416335Y21120000D01*
X41133665Y21120000D01*
X40856426Y21064853D01*
X40595273Y20956680D01*
X40360241Y20799637D01*
X40160363Y20599759D01*
X40003320Y20364727D01*
X39895147Y20103574D01*
X39840000Y19826335D01*
X39470028Y19826335D01*
X39470028Y23692298D01*
X40461903Y23692298D01*
X40533486Y23448329D01*
X40788996Y23327429D01*
X41063184Y23258700D01*
X41345512Y23244783D01*
X41625130Y23286213D01*
X41891292Y23381397D01*
X42016514Y23448329D01*
X42088097Y23692298D01*
X41275000Y24505395D01*
X40461903Y23692298D01*
X39470028Y23692298D01*
X39470028Y24614488D01*
X39834783Y24614488D01*
X39876213Y24334870D01*
X39971397Y24068708D01*
X40038329Y23943486D01*
X40282298Y23871903D01*
X41095395Y24685000D01*
X41454605Y24685000D01*
X42267702Y23871903D01*
X42511671Y23943486D01*
X42632571Y24198996D01*
X42701300Y24473184D01*
X42715217Y24755512D01*
X42673787Y25035130D01*
X42578603Y25301292D01*
X42511671Y25426514D01*
X42267702Y25498097D01*
X41454605Y24685000D01*
X41095395Y24685000D01*
X40282298Y25498097D01*
X40038329Y25426514D01*
X39917429Y25171004D01*
X39848700Y24896816D01*
X39834783Y24614488D01*
X39470028Y24614488D01*
X39470028Y25677702D01*
X40461903Y25677702D01*
X41275000Y24864605D01*
X42088097Y25677702D01*
X42016514Y25921671D01*
X41761004Y26042571D01*
X41486816Y26111300D01*
X41204488Y26125217D01*
X40924870Y26083787D01*
X40658708Y25988603D01*
X40533486Y25921671D01*
X40461903Y25677702D01*
X39470028Y25677702D01*
X39470028Y35018054D01*
X39564201Y34877114D01*
X39757114Y34684201D01*
X39983957Y34532629D01*
X40236011Y34428225D01*
X40503589Y34375000D01*
X40776411Y34375000D01*
X41043989Y34428225D01*
X41296043Y34532629D01*
X41522886Y34684201D01*
X41715799Y34877114D01*
X41867371Y35103957D01*
X41971775Y35356011D01*
X42025000Y35623589D01*
X42025000Y35896411D01*
X41971775Y36163989D01*
X41867371Y36416043D01*
X41715799Y36642886D01*
X41522886Y36835799D01*
X41296043Y36987371D01*
X41043989Y37091775D01*
X40776411Y37145000D01*
X40503589Y37145000D01*
X40236011Y37091775D01*
X39983957Y36987371D01*
X39757114Y36835799D01*
X39564201Y36642886D01*
X39470028Y36501946D01*
X39470028Y39898054D01*
X39564201Y39757114D01*
X39757114Y39564201D01*
X39983957Y39412629D01*
X40236011Y39308225D01*
X40503589Y39255000D01*
X40776411Y39255000D01*
X41043989Y39308225D01*
X41296043Y39412629D01*
X41522886Y39564201D01*
X41715799Y39757114D01*
X41867371Y39983957D01*
X41971775Y40236011D01*
X42025000Y40503589D01*
X42025000Y40776411D01*
X41971775Y41043989D01*
X41867371Y41296043D01*
X41715799Y41522886D01*
X41522886Y41715799D01*
X41296043Y41867371D01*
X41043989Y41971775D01*
X40776411Y42025000D01*
X40503589Y42025000D01*
X40236011Y41971775D01*
X39983957Y41867371D01*
X39757114Y41715799D01*
X39564201Y41522886D01*
X39470028Y41381946D01*
X39470028Y42020582D01*
X40499193Y43049746D01*
X40527238Y43072762D01*
X40619087Y43184680D01*
X40636669Y43217574D01*
X40687337Y43312366D01*
X40729365Y43450915D01*
X40743556Y43595000D01*
X40740000Y43631105D01*
X40740000Y46299279D01*
X40801987Y46206509D01*
X41071509Y45936987D01*
X41388434Y45725225D01*
X41740581Y45579361D01*
X42114419Y45505000D01*
X42495581Y45505000D01*
X42869419Y45579361D01*
X43221566Y45725225D01*
X43538491Y45936987D01*
X43808013Y46206509D01*
X44019775Y46523434D01*
X44165639Y46875581D01*
X44240000Y47249419D01*
X44240000Y47630581D01*
X44165639Y48004419D01*
X44019775Y48356566D01*
X43808013Y48673491D01*
X43538491Y48943013D01*
X43221566Y49154775D01*
X42869419Y49300639D01*
X42495581Y49375000D01*
X42114419Y49375000D01*
X41892376Y49330833D01*
X41957337Y49452367D01*
X41999365Y49590915D01*
X42010000Y49698895D01*
X42010000Y49698904D01*
X42013555Y49734999D01*
X42010000Y49771094D01*
X42010000Y56097906D01*
X42013555Y56134001D01*
X42010000Y56170096D01*
X42010000Y56170105D01*
X41999365Y56278085D01*
X41957337Y56416633D01*
X41889087Y56544320D01*
X41843907Y56599371D01*
X41820253Y56628194D01*
X41820250Y56628197D01*
X41797237Y56656238D01*
X41769197Y56679250D01*
X41355301Y57093146D01*
X41390000Y57267589D01*
X41390000Y57540411D01*
X41336775Y57807989D01*
X41232371Y58060043D01*
X41080799Y58286886D01*
X40887886Y58479799D01*
X40661043Y58631371D01*
X40408989Y58735775D01*
X40141411Y58789000D01*
X39868589Y58789000D01*
X39601011Y58735775D01*
X39348957Y58631371D01*
X39122114Y58479799D01*
X38929201Y58286886D01*
X38853072Y58172951D01*
X38853072Y59170000D01*
X38840812Y59294482D01*
X38804502Y59414180D01*
X38745537Y59524494D01*
X38666185Y59621185D01*
X38569494Y59700537D01*
X38459180Y59759502D01*
X38339482Y59795812D01*
X38215000Y59808072D01*
X36715000Y59808072D01*
X36590518Y59795812D01*
X36470820Y59759502D01*
X36360506Y59700537D01*
X36263815Y59621185D01*
X36184463Y59524494D01*
X36125498Y59414180D01*
X36089188Y59294482D01*
X36076928Y59170000D01*
X36076928Y59146927D01*
X36050915Y59144365D01*
X35912367Y59102337D01*
X35784680Y59034087D01*
X35672762Y58942238D01*
X35649746Y58914193D01*
X34430808Y57695254D01*
X34402763Y57672238D01*
X34310914Y57560320D01*
X34286834Y57515269D01*
X34242664Y57432633D01*
X34200635Y57294085D01*
X34186444Y57150000D01*
X34190001Y57113885D01*
X34190001Y51941687D01*
X34177238Y51957238D01*
X34149193Y51980254D01*
X28040000Y58089446D01*
X28040000Y59831335D01*
X28410000Y59831335D01*
X28410000Y59548665D01*
X28465147Y59271426D01*
X28573320Y59010273D01*
X28730363Y58775241D01*
X28930241Y58575363D01*
X29165273Y58418320D01*
X29426426Y58310147D01*
X29703665Y58255000D01*
X29986335Y58255000D01*
X30263574Y58310147D01*
X30524727Y58418320D01*
X30759759Y58575363D01*
X30959637Y58775241D01*
X31116680Y59010273D01*
X31224853Y59271426D01*
X31280000Y59548665D01*
X31280000Y59831335D01*
X31224853Y60108574D01*
X31116680Y60369727D01*
X30959637Y60604759D01*
X30759759Y60804637D01*
X30524727Y60961680D01*
X30263574Y61069853D01*
X29986335Y61125000D01*
X29703665Y61125000D01*
X29426426Y61069853D01*
X29165273Y60961680D01*
X28930241Y60804637D01*
X28730363Y60604759D01*
X28573320Y60369727D01*
X28465147Y60108574D01*
X28410000Y59831335D01*
X28040000Y59831335D01*
X28040000Y60288895D01*
X28043556Y60325000D01*
X28029365Y60469085D01*
X27987337Y60607633D01*
X27919087Y60735320D01*
X27827238Y60847238D01*
X27799193Y60870254D01*
X26768527Y61900920D01*
X36580525Y61900920D01*
X36664208Y61646739D01*
X36936775Y61515842D01*
X37229642Y61440635D01*
X37531553Y61424009D01*
X37830907Y61466603D01*
X38116199Y61566778D01*
X38265792Y61646739D01*
X38349475Y61900920D01*
X37465000Y62785395D01*
X36580525Y61900920D01*
X26768527Y61900920D01*
X26248414Y62421033D01*
X26314759Y62465363D01*
X26514637Y62665241D01*
X26670459Y62898447D01*
X35924009Y62898447D01*
X35966603Y62599093D01*
X36066778Y62313801D01*
X36146739Y62164208D01*
X36400920Y62080525D01*
X37285395Y62965000D01*
X37644605Y62965000D01*
X38529080Y62080525D01*
X38783261Y62164208D01*
X38911183Y62430581D01*
X40370000Y62430581D01*
X40370000Y62049419D01*
X40444361Y61675581D01*
X40590225Y61323434D01*
X40801987Y61006509D01*
X41071509Y60736987D01*
X41388434Y60525225D01*
X41740581Y60379361D01*
X42114419Y60305000D01*
X42495581Y60305000D01*
X42869419Y60379361D01*
X43221566Y60525225D01*
X43538491Y60736987D01*
X43808013Y61006509D01*
X44019775Y61323434D01*
X44165639Y61675581D01*
X44240000Y62049419D01*
X44240000Y62430581D01*
X44165639Y62804419D01*
X44019775Y63156566D01*
X43808013Y63473491D01*
X43538491Y63743013D01*
X43221566Y63954775D01*
X42869419Y64100639D01*
X42495581Y64175000D01*
X42114419Y64175000D01*
X41740581Y64100639D01*
X41388434Y63954775D01*
X41071509Y63743013D01*
X40801987Y63473491D01*
X40590225Y63156566D01*
X40444361Y62804419D01*
X40370000Y62430581D01*
X38911183Y62430581D01*
X38914158Y62436775D01*
X38989365Y62729642D01*
X39005991Y63031553D01*
X38963397Y63330907D01*
X38863222Y63616199D01*
X38783261Y63765792D01*
X38529080Y63849475D01*
X37644605Y62965000D01*
X37285395Y62965000D01*
X36400920Y63849475D01*
X36146739Y63765792D01*
X36015842Y63493225D01*
X35940635Y63200358D01*
X35924009Y62898447D01*
X26670459Y62898447D01*
X26671680Y62900273D01*
X26779853Y63161426D01*
X26835000Y63438665D01*
X26835000Y63721335D01*
X26779853Y63998574D01*
X26767218Y64029080D01*
X36580525Y64029080D01*
X37465000Y63144605D01*
X38349475Y64029080D01*
X38265792Y64283261D01*
X37993225Y64414158D01*
X37700358Y64489365D01*
X37398447Y64505991D01*
X37099093Y64463397D01*
X36813801Y64363222D01*
X36664208Y64283261D01*
X36580525Y64029080D01*
X26767218Y64029080D01*
X26671680Y64259727D01*
X26514637Y64494759D01*
X26314759Y64694637D01*
X26079727Y64851680D01*
X25818574Y64959853D01*
X25541335Y65015000D01*
X25258665Y65015000D01*
X24981426Y64959853D01*
X24720273Y64851680D01*
X24485241Y64694637D01*
X24285363Y64494759D01*
X24128320Y64259727D01*
X24020147Y63998574D01*
X23965000Y63721335D01*
X23965000Y63600000D01*
X22189748Y63600000D01*
X22069637Y63779759D01*
X21869759Y63979637D01*
X21634727Y64136680D01*
X21373574Y64244853D01*
X21096335Y64300000D01*
X20813665Y64300000D01*
X20536426Y64244853D01*
X20275273Y64136680D01*
X20040241Y63979637D01*
X19840363Y63779759D01*
X19743715Y63635115D01*
X19732337Y63672623D01*
X19664087Y63800310D01*
X19572238Y63912228D01*
X19544193Y63935244D01*
X18374436Y65105000D01*
X18507089Y65105000D01*
X18687729Y65140932D01*
X18857889Y65211414D01*
X19011028Y65313738D01*
X19141262Y65443972D01*
X19243586Y65597111D01*
X19314068Y65767271D01*
X19350000Y65947911D01*
X19350000Y66132089D01*
X19314068Y66312729D01*
X19243586Y66482889D01*
X19141262Y66636028D01*
X19011028Y66766262D01*
X18857889Y66868586D01*
X18687729Y66939068D01*
X18683044Y66940000D01*
X28941928Y66940000D01*
X28941928Y65140000D01*
X28954188Y65015518D01*
X28990498Y64895820D01*
X29049463Y64785506D01*
X29128815Y64688815D01*
X29225506Y64609463D01*
X29335820Y64550498D01*
X29455518Y64514188D01*
X29580000Y64501928D01*
X31380000Y64501928D01*
X31504482Y64514188D01*
X31624180Y64550498D01*
X31734494Y64609463D01*
X31831185Y64688815D01*
X31910537Y64785506D01*
X31969502Y64895820D01*
X32005812Y65015518D01*
X32018072Y65140000D01*
X32018072Y66940000D01*
X34656928Y66940000D01*
X34656928Y65140000D01*
X34669188Y65015518D01*
X34705498Y64895820D01*
X34764463Y64785506D01*
X34843815Y64688815D01*
X34940506Y64609463D01*
X35050820Y64550498D01*
X35170518Y64514188D01*
X35295000Y64501928D01*
X37095000Y64501928D01*
X37219482Y64514188D01*
X37339180Y64550498D01*
X37449494Y64609463D01*
X37546185Y64688815D01*
X37625537Y64785506D01*
X37684502Y64895820D01*
X37720812Y65015518D01*
X37733072Y65140000D01*
X37733072Y66940000D01*
X37720812Y67064482D01*
X37684502Y67184180D01*
X37625537Y67294494D01*
X37546185Y67391185D01*
X37449494Y67470537D01*
X37339180Y67529502D01*
X37320873Y67535056D01*
X37387312Y67601495D01*
X37555299Y67852905D01*
X37671011Y68132257D01*
X37730000Y68428816D01*
X37730000Y68731184D01*
X37671011Y69027743D01*
X37591323Y69220128D01*
X41765000Y69220128D01*
X41765000Y68779872D01*
X41850890Y68348075D01*
X42019369Y67941331D01*
X42263962Y67575271D01*
X42575271Y67263962D01*
X42941331Y67019369D01*
X43348075Y66850890D01*
X43779872Y66765000D01*
X44220128Y66765000D01*
X44651925Y66850890D01*
X45058669Y67019369D01*
X45424729Y67263962D01*
X45736038Y67575271D01*
X45980631Y67941331D01*
X46149110Y68348075D01*
X46235000Y68779872D01*
X46235000Y69220128D01*
X46149110Y69651925D01*
X45980631Y70058669D01*
X45736038Y70424729D01*
X45424729Y70736038D01*
X45058669Y70980631D01*
X44651925Y71149110D01*
X44220128Y71235000D01*
X43779872Y71235000D01*
X43348075Y71149110D01*
X42941331Y70980631D01*
X42575271Y70736038D01*
X42263962Y70424729D01*
X42019369Y70058669D01*
X41850890Y69651925D01*
X41765000Y69220128D01*
X37591323Y69220128D01*
X37555299Y69307095D01*
X37387312Y69558505D01*
X37173505Y69772312D01*
X36922095Y69940299D01*
X36642743Y70056011D01*
X36346184Y70115000D01*
X36043816Y70115000D01*
X35747257Y70056011D01*
X35467905Y69940299D01*
X35216495Y69772312D01*
X35002688Y69558505D01*
X34834701Y69307095D01*
X34718989Y69027743D01*
X34660000Y68731184D01*
X34660000Y68428816D01*
X34718989Y68132257D01*
X34834701Y67852905D01*
X35002688Y67601495D01*
X35069127Y67535056D01*
X35050820Y67529502D01*
X34940506Y67470537D01*
X34843815Y67391185D01*
X34764463Y67294494D01*
X34705498Y67184180D01*
X34669188Y67064482D01*
X34656928Y66940000D01*
X32018072Y66940000D01*
X32005812Y67064482D01*
X31969502Y67184180D01*
X31910537Y67294494D01*
X31831185Y67391185D01*
X31734494Y67470537D01*
X31624180Y67529502D01*
X31605873Y67535056D01*
X31672312Y67601495D01*
X31840299Y67852905D01*
X31956011Y68132257D01*
X32015000Y68428816D01*
X32015000Y68731184D01*
X31956011Y69027743D01*
X31840299Y69307095D01*
X31672312Y69558505D01*
X31458505Y69772312D01*
X31207095Y69940299D01*
X30927743Y70056011D01*
X30631184Y70115000D01*
X30328816Y70115000D01*
X30032257Y70056011D01*
X29752905Y69940299D01*
X29501495Y69772312D01*
X29287688Y69558505D01*
X29119701Y69307095D01*
X29003989Y69027743D01*
X28945000Y68731184D01*
X28945000Y68428816D01*
X29003989Y68132257D01*
X29119701Y67852905D01*
X29287688Y67601495D01*
X29354127Y67535056D01*
X29335820Y67529502D01*
X29225506Y67470537D01*
X29128815Y67391185D01*
X29049463Y67294494D01*
X28990498Y67184180D01*
X28954188Y67064482D01*
X28941928Y66940000D01*
X18683044Y66940000D01*
X18507089Y66975000D01*
X18322911Y66975000D01*
X18142271Y66939068D01*
X17972111Y66868586D01*
X17832049Y66775000D01*
X7283099Y66775000D01*
X7246994Y66778556D01*
X7210889Y66775000D01*
X7102909Y66764365D01*
X6964361Y66722337D01*
X6836674Y66654087D01*
X6724756Y66562238D01*
X6701740Y66534193D01*
X5037548Y64870000D01*
X3211094Y64870000D01*
X3174999Y64873555D01*
X3138904Y64870000D01*
X3138895Y64870000D01*
X3030915Y64859365D01*
X2892367Y64817337D01*
X2764680Y64749087D01*
X2652762Y64657238D01*
X2629746Y64629193D01*
X1410808Y63410254D01*
X1382763Y63387238D01*
X1290914Y63275320D01*
X1227439Y63156566D01*
X1222664Y63147633D01*
X1180635Y63009085D01*
X1166444Y62865000D01*
X1170001Y62828885D01*
X1170000Y53922951D01*
X1076414Y53782889D01*
X1005932Y53612729D01*
X970000Y53432089D01*
X710000Y53432089D01*
X710000Y69220128D01*
X765000Y69220128D01*
X765000Y68779872D01*
X850890Y68348075D01*
X1019369Y67941331D01*
X1263962Y67575271D01*
X1575271Y67263962D01*
X1941331Y67019369D01*
X2348075Y66850890D01*
X2779872Y66765000D01*
X3220128Y66765000D01*
X3651925Y66850890D01*
X4058669Y67019369D01*
X4424729Y67263962D01*
X4736038Y67575271D01*
X4980631Y67941331D01*
X5149110Y68348075D01*
X5223356Y68721335D01*
X23965000Y68721335D01*
X23965000Y68438665D01*
X24020147Y68161426D01*
X24128320Y67900273D01*
X24285363Y67665241D01*
X24485241Y67465363D01*
X24720273Y67308320D01*
X24981426Y67200147D01*
X25258665Y67145000D01*
X25541335Y67145000D01*
X25818574Y67200147D01*
X26079727Y67308320D01*
X26314759Y67465363D01*
X26514637Y67665241D01*
X26671680Y67900273D01*
X26779853Y68161426D01*
X26835000Y68438665D01*
X26835000Y68721335D01*
X26779853Y68998574D01*
X26671680Y69259727D01*
X26514637Y69494759D01*
X26314759Y69694637D01*
X26079727Y69851680D01*
X25818574Y69959853D01*
X25541335Y70015000D01*
X25258665Y70015000D01*
X24981426Y69959853D01*
X24720273Y69851680D01*
X24485241Y69694637D01*
X24285363Y69494759D01*
X24128320Y69259727D01*
X24020147Y68998574D01*
X23965000Y68721335D01*
X5223356Y68721335D01*
X5235000Y68779872D01*
X5235000Y69220128D01*
X5149110Y69651925D01*
X4980631Y70058669D01*
X4736038Y70424729D01*
X4424729Y70736038D01*
X4058669Y70980631D01*
X3651925Y71149110D01*
X3220128Y71235000D01*
X2779872Y71235000D01*
X2348075Y71149110D01*
X1941331Y70980631D01*
X1575271Y70736038D01*
X1263962Y70424729D01*
X1019369Y70058669D01*
X850890Y69651925D01*
X765000Y69220128D01*
X710000Y69220128D01*
X710000Y71290000D01*
X46290001Y71290000D01*
X46290000Y710000D01*
G37*
G04 #@! TD.AperFunction*
D20*
X36389201Y51441114D02*
X36582114Y51248201D01*
X36808957Y51096629D01*
X37061011Y50992225D01*
X37328589Y50939000D01*
X37601411Y50939000D01*
X37868989Y50992225D01*
X38000001Y51046492D01*
X38000000Y49678104D01*
X37996444Y49641999D01*
X38010635Y49497914D01*
X38021654Y49461589D01*
X38052663Y49359367D01*
X38120913Y49231680D01*
X38212762Y49119762D01*
X38240808Y49096745D01*
X38635001Y48702551D01*
X38635001Y47564603D01*
X38529080Y47599475D01*
X37644605Y46715000D01*
X38529080Y45830525D01*
X38635000Y45865397D01*
X38635000Y44384447D01*
X37605808Y43355254D01*
X37577763Y43332238D01*
X37485914Y43220320D01*
X37438127Y43130916D01*
X37417664Y43092633D01*
X37394382Y43015885D01*
X37352238Y43067238D01*
X37324193Y43090254D01*
X36295000Y44119446D01*
X36295000Y45650920D01*
X36580525Y45650920D01*
X36664208Y45396739D01*
X36936775Y45265842D01*
X37229642Y45190635D01*
X37531553Y45174009D01*
X37830907Y45216603D01*
X38116199Y45316778D01*
X38265792Y45396739D01*
X38349475Y45650920D01*
X37465000Y46535395D01*
X36580525Y45650920D01*
X36295000Y45650920D01*
X36295000Y45865397D01*
X36400920Y45830525D01*
X37285395Y46715000D01*
X36400920Y47599475D01*
X36295000Y47564603D01*
X36295000Y47779080D01*
X36580525Y47779080D01*
X37465000Y46894605D01*
X38349475Y47779080D01*
X38265792Y48033261D01*
X37993225Y48164158D01*
X37700358Y48239365D01*
X37398447Y48255991D01*
X37099093Y48213397D01*
X36813801Y48113222D01*
X36664208Y48033261D01*
X36580525Y47779080D01*
X36295000Y47779080D01*
X36295000Y51582095D01*
X36389201Y51441114D01*
G04 #@! TA.AperFunction,Conductor*
D21*
G36*
X36389201Y51441114D02*
G01*
X36582114Y51248201D01*
X36808957Y51096629D01*
X37061011Y50992225D01*
X37328589Y50939000D01*
X37601411Y50939000D01*
X37868989Y50992225D01*
X38000001Y51046492D01*
X38000000Y49678104D01*
X37996444Y49641999D01*
X38010635Y49497914D01*
X38021654Y49461589D01*
X38052663Y49359367D01*
X38120913Y49231680D01*
X38212762Y49119762D01*
X38240808Y49096745D01*
X38635001Y48702551D01*
X38635001Y47564603D01*
X38529080Y47599475D01*
X37644605Y46715000D01*
X38529080Y45830525D01*
X38635000Y45865397D01*
X38635000Y44384447D01*
X37605808Y43355254D01*
X37577763Y43332238D01*
X37485914Y43220320D01*
X37438127Y43130916D01*
X37417664Y43092633D01*
X37394382Y43015885D01*
X37352238Y43067238D01*
X37324193Y43090254D01*
X36295000Y44119446D01*
X36295000Y45650920D01*
X36580525Y45650920D01*
X36664208Y45396739D01*
X36936775Y45265842D01*
X37229642Y45190635D01*
X37531553Y45174009D01*
X37830907Y45216603D01*
X38116199Y45316778D01*
X38265792Y45396739D01*
X38349475Y45650920D01*
X37465000Y46535395D01*
X36580525Y45650920D01*
X36295000Y45650920D01*
X36295000Y45865397D01*
X36400920Y45830525D01*
X37285395Y46715000D01*
X36400920Y47599475D01*
X36295000Y47564603D01*
X36295000Y47779080D01*
X36580525Y47779080D01*
X37465000Y46894605D01*
X38349475Y47779080D01*
X38265792Y48033261D01*
X37993225Y48164158D01*
X37700358Y48239365D01*
X37398447Y48255991D01*
X37099093Y48213397D01*
X36813801Y48113222D01*
X36664208Y48033261D01*
X36580525Y47779080D01*
X36295000Y47779080D01*
X36295000Y51582095D01*
X36389201Y51441114D01*
G37*
G04 #@! TD.AperFunction*
D20*
X14975932Y65132271D02*
X15046414Y64962111D01*
X15140000Y64822049D01*
X15140001Y55259446D01*
X13568085Y53687529D01*
X13528586Y53782889D01*
X13435000Y53922951D01*
X13435000Y56133898D01*
X13438556Y56170003D01*
X13424365Y56314088D01*
X13393258Y56416633D01*
X13382337Y56452635D01*
X13314087Y56580322D01*
X13222238Y56692240D01*
X13194193Y56715256D01*
X12735018Y57174430D01*
X12735018Y61562953D01*
X12985960Y61473091D01*
X13208000Y61594376D01*
X13208000Y62738000D01*
X13462000Y62738000D01*
X13462000Y61594376D01*
X13684040Y61473091D01*
X13948881Y61567930D01*
X14190131Y61712615D01*
X14398519Y61901586D01*
X14566037Y62127580D01*
X14686246Y62381913D01*
X14726904Y62515961D01*
X14604915Y62738000D01*
X13462000Y62738000D01*
X13208000Y62738000D01*
X13188000Y62738000D01*
X13188000Y62992000D01*
X13208000Y62992000D01*
X13208000Y64135624D01*
X13462000Y64135624D01*
X13462000Y62992000D01*
X14604915Y62992000D01*
X14726904Y63214039D01*
X14686246Y63348087D01*
X14566037Y63602420D01*
X14398519Y63828414D01*
X14190131Y64017385D01*
X13948881Y64162070D01*
X13684040Y64256909D01*
X13462000Y64135624D01*
X13208000Y64135624D01*
X12985960Y64256909D01*
X12735018Y64167047D01*
X12735018Y64822049D01*
X12828604Y64962111D01*
X12899086Y65132271D01*
X12933444Y65305000D01*
X14941574Y65305000D01*
X14975932Y65132271D01*
G04 #@! TA.AperFunction,Conductor*
D21*
G36*
X14975932Y65132271D02*
G01*
X15046414Y64962111D01*
X15140000Y64822049D01*
X15140001Y55259446D01*
X13568085Y53687529D01*
X13528586Y53782889D01*
X13435000Y53922951D01*
X13435000Y56133898D01*
X13438556Y56170003D01*
X13424365Y56314088D01*
X13393258Y56416633D01*
X13382337Y56452635D01*
X13314087Y56580322D01*
X13222238Y56692240D01*
X13194193Y56715256D01*
X12735018Y57174430D01*
X12735018Y61562953D01*
X12985960Y61473091D01*
X13208000Y61594376D01*
X13208000Y62738000D01*
X13462000Y62738000D01*
X13462000Y61594376D01*
X13684040Y61473091D01*
X13948881Y61567930D01*
X14190131Y61712615D01*
X14398519Y61901586D01*
X14566037Y62127580D01*
X14686246Y62381913D01*
X14726904Y62515961D01*
X14604915Y62738000D01*
X13462000Y62738000D01*
X13208000Y62738000D01*
X13188000Y62738000D01*
X13188000Y62992000D01*
X13208000Y62992000D01*
X13208000Y64135624D01*
X13462000Y64135624D01*
X13462000Y62992000D01*
X14604915Y62992000D01*
X14726904Y63214039D01*
X14686246Y63348087D01*
X14566037Y63602420D01*
X14398519Y63828414D01*
X14190131Y64017385D01*
X13948881Y64162070D01*
X13684040Y64256909D01*
X13462000Y64135624D01*
X13208000Y64135624D01*
X12985960Y64256909D01*
X12735018Y64167047D01*
X12735018Y64822049D01*
X12828604Y64962111D01*
X12899086Y65132271D01*
X12933444Y65305000D01*
X14941574Y65305000D01*
X14975932Y65132271D01*
G37*
G04 #@! TD.AperFunction*
M02*
